<svg width="88" height="77" viewBox="0 0 88 77" fill="none" xmlns="http://www.w3.org/2000/svg">
<g clip-path="url(#clip0_214_4709)">
<mask id="mask0_214_4709" style="mask-type:luminance" maskUnits="userSpaceOnUse" x="3" y="0" width="43" height="76">
<path d="M3.61523 0H45.0669V75.3742H3.61523V0Z" fill="white"/>
</mask>
<g mask="url(#mask0_214_4709)">
<path d="M67.0313 47.706C67.0313 49.1465 66.9038 50.5614 66.6609 51.941C63.3298 51.6907 60.0582 53.3246 58.7125 56.1607C57.3678 58.9969 58.3559 62.1675 60.9125 64.0468C58.9884 66.3368 56.6738 68.3572 54.054 70.0303C51.8998 67.803 48.2671 66.9399 45.0175 68.1142C41.7643 69.2876 39.8952 72.1454 40.1821 75.0498C38.6008 75.2599 36.9802 75.3706 35.3329 75.3706C33.682 75.3706 32.0641 75.2599 30.481 75.0474C30.7643 72.1454 28.8979 69.2876 25.6456 68.1142C22.3988 66.9399 18.7651 67.803 16.6118 70.0303C13.9893 68.3572 11.6738 66.3368 9.75059 64.0468C12.3063 62.1675 13.2944 58.9969 11.9497 56.1607C10.604 53.3246 7.33242 51.6907 4.00217 51.941C3.75925 50.5614 3.63184 49.1465 3.63184 47.706C3.63184 46.2686 3.75925 44.8538 3.99942 43.4742C7.33059 43.7244 10.604 42.093 11.9497 39.2544C13.2944 36.4182 11.5051 33.8484 9.75059 31.3675C5.37717 25.1835 9.99075 15.8713 16.115 14.7708C10.8387 19.5296 14.6593 28.8249 19.4462 27.2352C23.7151 25.8171 33.8928 10.774 25.6593 -0.00195312C32.6425 4.62045 36.0782 12.1352 34.4172 20.0533C33.7608 23.1871 32.3043 26.3818 29.9539 29.4866C27.3552 30.069 24.9489 31.0643 22.8278 32.3838C17.3498 35.7958 13.7784 41.388 13.7784 47.706C13.7784 58.097 23.4282 66.518 35.3329 66.518C47.2349 66.518 56.8847 58.097 56.8847 47.706C56.8847 46.883 56.8251 46.0705 56.7059 45.2757C55.3392 36.0357 46.2917 28.8979 35.3329 28.8979C35.0167 28.8979 34.7004 28.9043 34.3878 28.9164C35.8866 26.867 37.1919 23.6138 37.7291 20.1223C38.2745 16.5691 38.0233 12.7688 36.3752 9.74095C45.9571 14.1861 45.3695 25.3118 45.3374 25.4313C45.4337 25.3583 58.1579 20.0421 46.002 0.47288C50.5019 3.93066 61.9401 10.4925 59.0673 24.9075C58.817 26.1636 58.1295 27.2071 57.8866 28.2699C57.2871 30.9015 57.5593 33.1786 58.3028 35.1125V35.1141C60.478 40.7728 66.6628 43.4742 66.6628 43.4742C66.9038 44.8538 67.0313 46.2686 67.0313 47.706Z" fill="#EF4136"/>
</g>
<mask id="mask1_214_4709" style="mask-type:luminance" maskUnits="userSpaceOnUse" x="15" y="30" width="31" height="35">
<path d="M15.9575 30.7998H45.0672V64.4745H15.9575V30.7998Z" fill="white"/>
</mask>
<g mask="url(#mask1_214_4709)">
<path d="M35.3321 33.221C26.1811 33.221 18.7359 39.7187 18.7359 47.705C18.7359 55.6922 26.1811 62.1907 35.3321 62.1907C44.4841 62.1907 51.9293 55.6922 51.9293 47.705C51.9293 39.7187 44.4841 33.221 35.3321 33.221ZM35.3321 64.4188C24.7722 64.4188 16.1812 56.9218 16.1812 47.705C16.1812 38.4899 24.7722 30.9912 35.3321 30.9912C45.8921 30.9912 54.4831 38.4899 54.4831 47.705C54.4831 56.9218 45.8921 64.4188 35.3321 64.4188Z" fill="#EF4136"/>
</g>
<path d="M35.0998 54.5634C32.689 54.5634 30.851 54.0805 29.5851 53.1132C28.321 52.1443 27.6895 50.715 27.6895 48.8237C27.6895 46.9436 28.3504 45.5175 29.6731 44.5438C30.9977 43.5708 32.9181 43.084 35.4335 43.084C36.264 43.084 37.0046 43.1249 37.6555 43.2059C38.3081 43.2853 38.9315 43.4112 39.5255 43.5845V47.1457C38.4713 46.7888 37.2136 46.6099 35.7525 46.6099C34.7496 46.6099 33.9686 46.78 33.4095 47.1201C32.8494 47.4602 32.5698 48.028 32.5698 48.8237C32.5698 49.6306 32.7733 50.2017 33.1821 50.5369C33.59 50.8706 34.2161 51.0374 35.0595 51.0374C35.4793 51.0374 35.8744 50.9973 36.2438 50.9155V50.2418H34.1318V47.7168H40.1965V53.4726C39.5896 53.7958 38.8618 54.0589 38.0111 54.2618C37.1623 54.4623 36.1925 54.5634 35.0998 54.5634Z" fill="#EF4136"/>
<path d="M41.1851 43.2549H45.1964L48.7531 47.615V43.2549H53.5344V54.391H49.5011L45.9664 50.0341V54.391H41.1851V43.2549Z" fill="#EF4136"/>
<path d="M72.7021 43.2549H82.8771V46.2643H77.4835V47.2685H82.1255V50.3806H77.4835V51.3816H82.8771V54.391H72.7021V43.2549Z" fill="#EF4136"/>
<path d="M22.1455 43.2891H26.5858V53.6231H22.1455V43.2891Z" fill="#EF4136"/>
<path d="M55.2905 43.0615H59.0489V54.3356H55.2905V43.0615Z" fill="black"/>
<path d="M63.6715 45.5127H60.0488V43.0615H71.0525V45.5127H67.4335V54.3356H63.6715V45.5127Z" fill="black"/>
<path d="M48.8932 59.649C48.6045 59.649 48.3469 59.6177 48.1195 59.5559C47.894 59.4942 47.707 59.4132 47.5585 59.3121C47.4091 59.2094 47.2945 59.0971 47.2139 58.9752L47.6649 58.494H47.7382C47.8629 58.6568 48.0215 58.7859 48.2149 58.8822C48.4074 58.9784 48.6338 59.0266 48.8932 59.0266C49.1132 59.0266 49.2791 58.9865 49.3919 58.9046C49.5037 58.8236 49.5605 58.7113 49.5605 58.5678C49.5605 58.4827 49.5422 58.4106 49.5055 58.3528C49.4689 58.2935 49.4084 58.2429 49.3259 58.202C49.2425 58.1595 49.1288 58.1234 48.9849 58.0929L48.4495 57.9871C48.0755 57.9125 47.7969 57.7881 47.6135 57.6149C47.4302 57.44 47.3385 57.2139 47.3385 56.9379C47.3385 56.731 47.3972 56.5489 47.5145 56.3925C47.6319 56.2369 47.8024 56.1158 48.0279 56.03C48.2552 55.9426 48.5247 55.8984 48.8382 55.8984C49.1581 55.8984 49.4331 55.9361 49.6632 56.0107C49.8924 56.0837 50.0858 56.1968 50.2425 56.3508L49.8355 56.8385H49.7659C49.6458 56.7318 49.5101 56.6516 49.3589 56.5979C49.2067 56.5425 49.0335 56.5144 48.8382 56.5144C48.6109 56.5144 48.4385 56.5497 48.3212 56.6203C48.2039 56.6893 48.1452 56.7855 48.1452 56.9091C48.1452 57.0246 48.1865 57.1168 48.2699 57.185C48.3524 57.2516 48.4954 57.3037 48.6989 57.3422L49.2452 57.4416C49.6504 57.517 49.9437 57.6438 50.1252 57.8234C50.3085 58.0015 50.4002 58.2341 50.4002 58.5229C50.4002 58.7498 50.3434 58.948 50.2315 59.1164C50.1188 59.2856 49.9492 59.4172 49.7219 59.511C49.4964 59.6025 49.2205 59.649 48.8932 59.649Z" fill="black"/>
<path d="M54.6501 59.649C54.266 59.649 53.9287 59.5816 53.6381 59.4469C53.3466 59.3105 53.1184 59.102 52.9525 58.8212C52.7856 58.5413 52.7031 58.1924 52.7031 57.7753C52.7031 57.3582 52.7856 57.0101 52.9525 56.7294C53.1184 56.4495 53.3466 56.2409 53.6381 56.1038C53.9287 55.9674 54.266 55.8984 54.6501 55.8984C55.0315 55.8984 55.367 55.9674 55.6585 56.1038C55.949 56.2385 56.1764 56.4471 56.3405 56.7294C56.5036 57.0101 56.5861 57.3582 56.5861 57.7753C56.5861 58.1924 56.5036 58.5421 56.3405 58.8244C56.1764 59.1052 55.949 59.3121 55.6585 59.4469C55.367 59.5816 55.0315 59.649 54.6501 59.649ZM54.6501 59.0234C55.0021 59.0234 55.2707 58.9239 55.4568 58.725C55.642 58.5261 55.7355 58.21 55.7355 57.7753C55.7355 57.339 55.642 57.0214 55.4568 56.8224C55.2707 56.6235 55.0021 56.5241 54.6501 56.5241C54.2926 56.5241 54.0204 56.6235 53.8325 56.8224C53.6464 57.0214 53.5538 57.339 53.5538 57.7753C53.5538 58.21 53.6464 58.5261 53.8325 58.725C54.0204 58.9239 54.2926 59.0234 54.6501 59.0234Z" fill="black"/>
<path d="M60.9463 59.649C60.5622 59.649 60.2239 59.58 59.9306 59.4404C59.6391 59.3017 59.4109 59.0923 59.2449 58.8116C59.0781 58.5317 58.9956 58.186 58.9956 57.7753C58.9956 57.3646 59.0781 57.0197 59.2449 56.739C59.4109 56.4591 59.6391 56.2497 59.9306 56.1102C60.2239 55.969 60.5622 55.8984 60.9463 55.8984C61.3469 55.8984 61.6869 55.9674 61.9656 56.1038C62.2461 56.2409 62.4469 56.4503 62.5669 56.7326L61.9656 57.0534L61.8959 57.0502C61.8052 56.8625 61.6833 56.7278 61.5293 56.646C61.3771 56.5626 61.1828 56.5209 60.9463 56.5209C60.6016 56.5209 60.3312 56.6219 60.1359 56.8224C59.9425 57.0214 59.8463 57.339 59.8463 57.7753C59.8463 58.21 59.9425 58.5277 60.1359 58.7282C60.3312 58.9271 60.6016 59.0266 60.9463 59.0266C61.4889 59.0266 61.8199 58.7972 61.9399 58.3368H62.0133L62.6183 58.6127C62.5055 58.9592 62.3112 59.2191 62.0353 59.3923C61.7584 59.564 61.3954 59.649 60.9463 59.649Z" fill="black"/>
<path d="M65.8726 59.5978H65.0513V55.9531H65.8726V59.5978Z" fill="black"/>
<path d="M69.5337 57.9968V58.9946H71.5247V59.5978H68.7124V55.9531H71.4771V56.5563H69.5337V57.4065H71.2351V57.9968H69.5337Z" fill="black"/>
<path d="M76.8448 55.9531V56.5563H75.6422V59.5978H74.8208V56.5563H73.6182V55.9531H76.8448Z" fill="black"/>
<path d="M80.995 59.5978H80.17V58.1669L78.729 55.9531H79.6127L80.566 57.384H80.6357L81.5707 55.9531H82.4323L80.995 58.1669V59.5978Z" fill="black"/>
<path d="M48.3061 64.2327C48.1566 64.2327 48.0201 64.2134 47.8954 64.1749C47.7707 64.1348 47.6653 64.0811 47.5801 64.0145C47.4939 63.9487 47.4316 63.8749 47.3931 63.7931L47.5764 63.5846H47.6277C47.6864 63.6961 47.7744 63.7851 47.8917 63.8509C48.0091 63.915 48.1466 63.9471 48.3061 63.9471C48.4326 63.9471 48.5371 63.9295 48.6177 63.8926C48.6984 63.8565 48.758 63.7963 48.7974 63.7129C48.8386 63.6279 48.8597 63.5132 48.8597 63.3696V61.5762H49.2081V63.376C49.2081 63.6712 49.132 63.8886 48.9807 64.0273C48.8313 64.1645 48.6067 64.2327 48.3061 64.2327Z" fill="black"/>
<path d="M52.325 64.1942H51.951L51.6723 63.4755H50.4L50.1213 64.1942H49.751L50.796 61.5762H51.2836L52.325 64.1942ZM51.0123 61.8938L50.499 63.2188H51.5733L51.0636 61.8938H51.0123Z" fill="black"/>
<path d="M53.2209 64.1942H52.8945V61.5762H53.4189L54.3245 63.7931H54.3685L55.2742 61.5762H55.7765V64.1942H55.4429V62.0574L55.3915 62.051L54.5079 64.1942H54.1595L53.2722 62.051L53.2209 62.0574V64.1942Z" fill="black"/>
<path d="M57.0327 64.1942H56.6807V61.5762H57.0327V64.1942Z" fill="black"/>
<path d="M60.1785 64.1942H59.8045L59.5258 63.4755H58.2535L57.9748 64.1942H57.6045L58.6495 61.5762H59.1372L60.1785 64.1942ZM58.8658 61.8938L58.3525 63.2188H59.4268L58.9172 61.8938H58.8658Z" fill="black"/>
<path d="M63.6821 62.6381V61.5762H64.0341V64.1942H63.6821V62.898H62.1274V64.1942H61.7754V61.5762H62.1274V62.6381H63.6821Z" fill="black"/>
<path d="M67.1775 64.1942H66.8035L66.5248 63.4755H65.2525L64.9738 64.1942H64.6035L65.6485 61.5762H66.1362L67.1775 64.1942ZM65.8648 61.8938L65.3515 63.2188H66.4258L65.9162 61.8938H65.8648Z" fill="black"/>
<path d="M68.0739 64.1942H67.7476V61.5762H68.2719L69.1776 63.7931H69.2216L70.1272 61.5762H70.6296V64.1942H70.2959V62.0574L70.2446 62.051L69.3609 64.1942H69.0126L68.1252 62.051L68.0739 62.0574V64.1942Z" fill="black"/>
<path d="M72.5012 61.5762C72.8037 61.5762 73.064 61.6243 73.2822 61.7205C73.4995 61.8152 73.6672 61.9596 73.7845 62.1537C73.9037 62.3486 73.9642 62.5924 73.9642 62.8852C73.9642 63.1787 73.9037 63.4226 73.7845 63.6167C73.6672 63.8116 73.4995 63.9568 73.2822 64.053C73.064 64.1477 72.8037 64.1942 72.5012 64.1942H71.5332V61.5762H72.5012ZM72.4682 63.9343C72.7175 63.9343 72.9238 63.9006 73.0879 63.8316C73.251 63.7635 73.3748 63.652 73.4582 63.498C73.5435 63.344 73.5865 63.1402 73.5865 62.8852C73.5865 62.6309 73.5435 62.4264 73.4582 62.2724C73.3748 62.1184 73.251 62.0085 73.0879 61.9419C72.9238 61.8737 72.7175 61.8393 72.4682 61.8393H71.8852V63.9343H72.4682Z" fill="black"/>
<path d="M76.9519 64.1942H76.5779L76.2993 63.4755H75.0269L74.7483 64.1942H74.3779L75.4229 61.5762H75.9106L76.9519 64.1942ZM75.6393 61.8938L75.1259 63.2188H76.2003L75.6906 61.8938H75.6393Z" fill="black"/>
<path d="M77.522 64.1942V61.5762H78.611C78.8108 61.5762 78.9786 61.605 79.1133 61.6628C79.2499 61.7205 79.3526 61.8032 79.4213 61.9098C79.4891 62.0149 79.524 62.14 79.524 62.2852C79.524 62.4456 79.4772 62.5796 79.3846 62.6863C79.2911 62.7913 79.1472 62.8707 78.952 62.9237V62.959C79.0491 62.9935 79.1289 63.0472 79.1903 63.1194C79.2508 63.19 79.3076 63.2958 79.359 63.437L79.634 64.1942H79.2746L78.974 63.3953C78.9391 63.299 78.8988 63.2245 78.853 63.1707C78.8062 63.1178 78.7476 63.0793 78.677 63.0552C78.6055 63.032 78.5156 63.0199 78.4056 63.0199H77.874V64.1942H77.522ZM78.6 62.7568C78.7879 62.7568 78.9272 62.7199 79.018 62.6445C79.1106 62.57 79.1573 62.4545 79.1573 62.298C79.1573 62.1424 79.1106 62.0269 79.018 61.9515C78.9272 61.877 78.7879 61.8393 78.6 61.8393H77.874V62.7568H78.6Z" fill="black"/>
<path d="M81.2595 61.5762C81.562 61.5762 81.8223 61.6243 82.0405 61.7205C82.2578 61.8152 82.4255 61.9596 82.5428 62.1537C82.662 62.3486 82.7225 62.5924 82.7225 62.8852C82.7225 63.1787 82.662 63.4226 82.5428 63.6167C82.4255 63.8116 82.2578 63.9568 82.0405 64.053C81.8223 64.1477 81.562 64.1942 81.2595 64.1942H80.2915V61.5762H81.2595ZM81.2265 63.9343C81.4758 63.9343 81.6821 63.9006 81.8462 63.8316C82.0093 63.7635 82.1331 63.652 82.2165 63.498C82.3018 63.344 82.3448 63.1402 82.3448 62.8852C82.3448 62.6309 82.3018 62.4264 82.2165 62.2724C82.1331 62.1184 82.0093 62.0085 81.8462 61.9419C81.6821 61.8737 81.4758 61.8393 81.2265 61.8393H80.6435V63.9343H81.2265Z" fill="black"/>
</g>
<defs>
<clipPath id="clip0_214_4709">
<rect width="88" height="77" fill="white"/>
</clipPath>
</defs>
</svg>
