<svg width="112" height="112" viewBox="0 0 112 112" fill="none" xmlns="http://www.w3.org/2000/svg">
<g clip-path="url(#clip0_89_14037)">
<mask id="mask0_89_14037" style="mask-type:luminance" maskUnits="userSpaceOnUse" x="4" y="0" width="54" height="110">
<path d="M4.60156 0H57.3582V109.635H4.60156V0Z" fill="white"/>
</mask>
<g mask="url(#mask0_89_14037)">
<path d="M85.3132 69.3894C85.3132 71.4848 85.1511 73.5428 84.8419 75.5494C80.6022 75.1854 76.4384 77.5619 74.7257 81.6873C73.0142 85.8126 74.2719 90.4244 77.5257 93.1579C75.0769 96.4888 72.1311 99.4276 68.7967 101.861C66.055 98.6214 61.4315 97.3661 57.2957 99.0741C53.1552 100.781 50.7764 104.938 51.1415 109.162C49.1291 109.468 47.0664 109.629 44.9699 109.629C42.8687 109.629 40.8096 109.468 38.7947 109.159C39.1552 104.938 36.7799 100.781 32.6405 99.0741C28.5082 97.3661 23.8835 98.6214 21.143 101.861C17.8052 99.4276 14.8582 96.4888 12.4105 93.1579C15.6632 90.4244 16.9209 85.8126 15.2094 81.6873C13.4967 77.5619 9.33288 75.1854 5.09438 75.5494C4.78521 73.5428 4.62305 71.4848 4.62305 69.3894C4.62305 67.2988 4.78521 65.2408 5.09088 63.2341C9.33055 63.5981 13.4967 61.2251 15.2094 57.0963C16.9209 52.9709 14.6435 49.2329 12.4105 45.6244C6.84438 36.6294 12.7162 23.0844 20.5107 21.4838C13.7954 28.4056 18.658 41.9261 24.7504 39.6138C30.1835 37.5511 43.1371 15.6703 32.658 -0.00390625C41.5457 6.71959 45.9184 17.6501 43.8044 29.1674C42.969 33.7256 41.1152 38.3724 38.1239 42.8886C34.8164 43.7356 31.7539 45.1834 29.0542 47.1026C22.0822 52.0656 17.5369 60.1996 17.5369 69.3894C17.5369 84.5036 29.8184 96.7524 44.9699 96.7524C60.1179 96.7524 72.3994 84.5036 72.3994 69.3894C72.3994 68.1924 72.3235 67.0106 72.1719 65.8544C70.4324 52.4144 58.9174 42.0323 44.9699 42.0323C44.5674 42.0323 44.1649 42.0416 43.767 42.0591C45.6745 39.0783 47.3359 34.3463 48.0196 29.2678C48.7137 24.0994 48.3941 18.5718 46.2964 14.1676C58.4916 20.6333 57.7437 36.8161 57.7029 36.9899C57.8254 36.8838 74.0199 29.1511 58.5487 0.68676C64.2759 5.71626 78.8335 15.2608 75.1772 36.2281C74.8587 38.0551 73.9837 39.5729 73.6746 41.1188C72.9116 44.9466 73.258 48.2588 74.2042 51.0716V51.0739C76.9727 59.3048 84.8442 63.2341 84.8442 63.2341C85.1511 65.2408 85.3132 67.2988 85.3132 69.3894Z" fill="white"/>
</g>
<mask id="mask1_89_14037" style="mask-type:luminance" maskUnits="userSpaceOnUse" x="20" y="44" width="38" height="50">
<path d="M20.3096 44.8008H57.3582V93.7821H20.3096V44.8008Z" fill="white"/>
</mask>
<g mask="url(#mask1_89_14037)">
<path d="M44.9677 48.3234C33.3209 48.3234 23.8452 57.7746 23.8452 69.3911C23.8452 81.0087 33.3209 90.4611 44.9677 90.4611C56.6157 90.4611 66.0914 81.0087 66.0914 69.3911C66.0914 57.7746 56.6157 48.3234 44.9677 48.3234ZM44.9677 93.7021C31.5278 93.7021 20.5938 82.7972 20.5938 69.3911C20.5938 55.9872 31.5278 45.0801 44.9677 45.0801C58.4077 45.0801 69.3417 55.9872 69.3417 69.3911C69.3417 82.7972 58.4077 93.7021 44.9677 93.7021Z" fill="white"/>
</g>
<path d="M44.6725 79.3653C41.6042 79.3653 39.265 78.663 37.6539 77.256C36.045 75.8466 35.2412 73.7676 35.2412 71.0166C35.2412 68.282 36.0824 66.2076 37.7659 64.7913C39.4517 63.3761 41.8959 62.668 45.0972 62.668C46.1542 62.668 47.0969 62.7275 47.9252 62.8453C48.7559 62.9608 49.5492 63.144 50.3052 63.396V68.576C48.9635 68.0568 47.3629 67.7966 45.5032 67.7966C44.2269 67.7966 43.2329 68.044 42.5212 68.5386C41.8084 69.0333 41.4525 69.8593 41.4525 71.0166C41.4525 72.1903 41.7115 73.021 42.2319 73.5086C42.751 73.994 43.5479 74.2366 44.6212 74.2366C45.1555 74.2366 45.6584 74.1783 46.1285 74.0593V73.0793H43.4405V69.4066H51.1592V77.7786C50.3869 78.2488 49.4605 78.6315 48.3779 78.9266C47.2975 79.2183 46.0632 79.3653 44.6725 79.3653Z" fill="white"/>
<path d="M52.417 62.916H57.5223L62.049 69.258V62.916H68.1343V79.114H63.001L58.5023 72.7767V79.114H52.417V62.916Z" fill="white"/>
<path d="M92.5303 62.916H105.48V67.2933H98.6156V68.754H104.524V73.2807H98.6156V74.7367H105.48V79.114H92.5303V62.916Z" fill="white"/>
<path d="M28.1855 62.9648H33.8369V77.9962H28.1855V62.9648Z" fill="white"/>
<path d="M70.3691 62.6348H75.1525V79.0334H70.3691V62.6348Z" fill="white"/>
<path d="M81.0364 66.2001H76.4258V62.6348H90.4304V66.2001H85.8244V79.0334H81.0364V66.2001Z" fill="white"/>
<path d="M62.2272 86.762C61.8597 86.762 61.5318 86.7165 61.2425 86.6266C60.9555 86.5368 60.7175 86.419 60.5285 86.272C60.3383 86.1226 60.1925 85.9593 60.0898 85.782L60.6638 85.082H60.7572C60.9158 85.3188 61.1177 85.5066 61.3638 85.6466C61.6088 85.7866 61.897 85.8566 62.2272 85.8566C62.5072 85.8566 62.7183 85.7983 62.8618 85.6793C63.0042 85.5615 63.0765 85.3981 63.0765 85.1893C63.0765 85.0656 63.0532 84.9606 63.0065 84.8766C62.9598 84.7903 62.8828 84.7168 62.7778 84.6573C62.6717 84.5955 62.527 84.543 62.3438 84.4986L61.6625 84.3446C61.1865 84.2361 60.8318 84.0553 60.5985 83.8033C60.3652 83.549 60.2485 83.22 60.2485 82.8186C60.2485 82.5176 60.3232 82.2528 60.4725 82.0253C60.6218 81.799 60.8388 81.6228 61.1258 81.498C61.4152 81.3708 61.7582 81.3066 62.1572 81.3066C62.5643 81.3066 62.9143 81.3615 63.2072 81.47C63.4988 81.5761 63.745 81.7406 63.9445 81.9646L63.4265 82.674H63.3378C63.185 82.5188 63.0123 82.4021 62.8198 82.324C62.6262 82.2435 62.4057 82.2026 62.1572 82.2026C61.8678 82.2026 61.6485 82.254 61.4992 82.3566C61.3498 82.457 61.2752 82.597 61.2752 82.7766C61.2752 82.9446 61.3277 83.0788 61.4338 83.178C61.5388 83.2748 61.7208 83.3506 61.9798 83.4066L62.6752 83.5513C63.1908 83.661 63.5642 83.8453 63.7952 84.1066C64.0285 84.3656 64.1452 84.704 64.1452 85.124C64.1452 85.4541 64.0728 85.7423 63.9305 85.9873C63.787 86.2335 63.5712 86.4248 63.2818 86.5613C62.9948 86.6943 62.6437 86.762 62.2272 86.762Z" fill="white"/>
<path d="M69.5551 86.762C69.0663 86.762 68.637 86.664 68.2671 86.468C67.8961 86.2696 67.6056 85.9663 67.3945 85.558C67.1821 85.1508 67.0771 84.6433 67.0771 84.0366C67.0771 83.43 67.1821 82.9236 67.3945 82.5153C67.6056 82.1081 67.8961 81.8048 68.2671 81.6053C68.637 81.407 69.0663 81.3066 69.5551 81.3066C70.0405 81.3066 70.4675 81.407 70.8385 81.6053C71.2083 81.8013 71.4976 82.1046 71.7065 82.5153C71.9141 82.9236 72.0191 83.43 72.0191 84.0366C72.0191 84.6433 71.9141 85.152 71.7065 85.5626C71.4976 85.971 71.2083 86.272 70.8385 86.468C70.4675 86.664 70.0405 86.762 69.5551 86.762ZM69.5551 85.852C70.0031 85.852 70.345 85.7073 70.5818 85.418C70.8175 85.1286 70.9365 84.669 70.9365 84.0366C70.9365 83.402 70.8175 82.94 70.5818 82.6506C70.345 82.3613 70.0031 82.2166 69.5551 82.2166C69.1001 82.2166 68.7536 82.3613 68.5145 82.6506C68.2776 82.94 68.1598 83.402 68.1598 84.0366C68.1598 84.669 68.2776 85.1286 68.5145 85.418C68.7536 85.7073 69.1001 85.852 69.5551 85.852Z" fill="white"/>
<path d="M77.5676 86.762C77.0788 86.762 76.6483 86.6616 76.275 86.4586C75.904 86.2568 75.6135 85.9523 75.4023 85.544C75.19 85.1368 75.085 84.634 75.085 84.0366C75.085 83.4393 75.19 82.9376 75.4023 82.5293C75.6135 82.1221 75.904 81.8176 76.275 81.6146C76.6483 81.4093 77.0788 81.3066 77.5676 81.3066C78.0775 81.3066 78.5103 81.407 78.865 81.6053C79.222 81.8048 79.4775 82.1093 79.6303 82.52L78.865 82.9866L78.7763 82.982C78.6608 82.709 78.5056 82.513 78.3096 82.394C78.116 82.2726 77.8686 82.212 77.5676 82.212C77.129 82.212 76.7848 82.359 76.5363 82.6506C76.2901 82.94 76.1676 83.402 76.1676 84.0366C76.1676 84.669 76.2901 85.131 76.5363 85.4226C76.7848 85.712 77.129 85.8566 77.5676 85.8566C78.2583 85.8566 78.6795 85.523 78.8323 84.8533H78.9256L79.6956 85.2546C79.5521 85.7586 79.3048 86.1366 78.9536 86.3886C78.6013 86.6383 78.1393 86.762 77.5676 86.762Z" fill="white"/>
<path d="M83.8373 86.6881H82.792V81.3867H83.8373V86.6881Z" fill="white"/>
<path d="M88.4975 84.3594V85.8107H91.0315V86.6881H87.4521V81.3867H90.9708V82.2641H88.4975V83.5007H90.6628V84.3594H88.4975Z" fill="white"/>
<path d="M97.802 81.3867V82.2641H96.2713V86.6881H95.226V82.2641H93.6953V81.3867H97.802Z" fill="white"/>
<path d="M103.085 86.6881H102.035V84.6067L100.201 81.3867H101.326L102.539 83.4681H102.628L103.818 81.3867H104.915L103.085 84.6067V86.6881Z" fill="white"/>
<path d="M61.4804 93.4285C61.2902 93.4285 61.1164 93.4005 60.9577 93.3445C60.799 93.2861 60.6649 93.208 60.5564 93.1111C60.4467 93.0155 60.3674 92.9081 60.3184 92.7891L60.5517 92.4858H60.617C60.6917 92.648 60.8037 92.7775 60.953 92.8731C61.1024 92.9665 61.2774 93.0131 61.4804 93.0131C61.6414 93.0131 61.7744 92.9875 61.877 92.9338C61.9797 92.8813 62.0555 92.7938 62.1057 92.6725C62.1582 92.5488 62.185 92.382 62.185 92.1731V89.5645H62.6284V92.1825C62.6284 92.6118 62.5315 92.928 62.339 93.1298C62.1489 93.3293 61.863 93.4285 61.4804 93.4285Z" fill="white"/>
<path d="M66.5953 93.3725H66.1193L65.7647 92.3271H64.1453L63.7907 93.3725H63.3193L64.6493 89.5645H65.27L66.5953 93.3725ZM64.9247 90.0265L64.2713 91.9538H65.6387L64.99 90.0265H64.9247Z" fill="white"/>
<path d="M67.7356 93.3725H67.3203V89.5645H67.9876L69.1403 92.7891H69.1963L70.349 89.5645H70.9883V93.3725H70.5636V90.2645L70.4983 90.2551L69.3736 93.3725H68.9303L67.801 90.2551L67.7356 90.2645V93.3725Z" fill="white"/>
<path d="M72.5867 93.3725H72.1387V89.5645H72.5867V93.3725Z" fill="white"/>
<path d="M76.5914 93.3725H76.1154L75.7608 92.3271H74.1414L73.7868 93.3725H73.3154L74.6454 89.5645H75.2661L76.5914 93.3725ZM74.9208 90.0265L74.2674 91.9538H75.6348L74.9861 90.0265H74.9208Z" fill="white"/>
<path d="M81.0497 91.1091V89.5645H81.4977V93.3725H81.0497V91.4871H79.071V93.3725H78.623V89.5645H79.071V91.1091H81.0497Z" fill="white"/>
<path d="M85.4987 93.3725H85.0227L84.668 92.3271H83.0487L82.694 93.3725H82.2227L83.5527 89.5645H84.1733L85.4987 93.3725ZM83.828 90.0265L83.1747 91.9538H84.542L83.8933 90.0265H83.828Z" fill="white"/>
<path d="M86.6399 93.3725H86.2246V89.5645H86.8919L88.0446 92.7891H88.1006L89.2533 89.5645H89.8926V93.3725H89.4679V90.2645L89.4026 90.2551L88.2779 93.3725H87.8346L86.7053 90.2551L86.6399 90.2645V93.3725Z" fill="white"/>
<path d="M92.275 89.5645C92.66 89.5645 92.9913 89.6345 93.269 89.7745C93.5455 89.9121 93.759 90.1221 93.9083 90.4045C94.06 90.688 94.137 91.0426 94.137 91.4685C94.137 91.8955 94.06 92.2501 93.9083 92.5325C93.759 92.816 93.5455 93.0271 93.269 93.1671C92.9913 93.3048 92.66 93.3725 92.275 93.3725H91.043V89.5645H92.275ZM92.233 92.9945C92.5503 92.9945 92.8128 92.9455 93.0216 92.8451C93.2293 92.746 93.3868 92.5838 93.493 92.3598C93.6015 92.1358 93.6563 91.8395 93.6563 91.4685C93.6563 91.0986 93.6015 90.8011 93.493 90.5771C93.3868 90.3531 93.2293 90.1933 93.0216 90.0965C92.8128 89.9973 92.5503 89.9471 92.233 89.9471H91.491V92.9945H92.233Z" fill="white"/>
<path d="M97.9391 93.3725H97.4631L97.1084 92.3271H95.4891L95.1344 93.3725H94.6631L95.9931 89.5645H96.6138L97.9391 93.3725ZM96.2684 90.0265L95.6151 91.9538H96.9824L96.3338 90.0265H96.2684Z" fill="white"/>
<path d="M98.6641 93.3725V89.5645H100.05C100.304 89.5645 100.518 89.6065 100.689 89.6905C100.863 89.7745 100.994 89.8946 101.081 90.0498C101.168 90.2026 101.212 90.3846 101.212 90.5958C101.212 90.8291 101.153 91.024 101.035 91.1791C100.916 91.332 100.733 91.4475 100.484 91.5245V91.5758C100.608 91.626 100.709 91.7041 100.787 91.8091C100.864 91.9118 100.937 92.0658 101.002 92.2711L101.352 93.3725H100.895L100.512 92.2105C100.468 92.0705 100.416 91.962 100.358 91.8838C100.299 91.8068 100.224 91.7508 100.134 91.7158C100.043 91.682 99.9287 91.6645 99.7887 91.6645H99.1121V93.3725H98.6641ZM100.036 91.2818C100.275 91.2818 100.453 91.2281 100.568 91.1185C100.686 91.01 100.745 90.842 100.745 90.6145C100.745 90.3881 100.686 90.2201 100.568 90.1105C100.453 90.002 100.275 89.9471 100.036 89.9471H99.1121V91.2818H100.036Z" fill="white"/>
<path d="M103.421 89.5645C103.806 89.5645 104.138 89.6345 104.415 89.7745C104.692 89.9121 104.905 90.1221 105.055 90.4045C105.206 90.688 105.283 91.0426 105.283 91.4685C105.283 91.8955 105.206 92.2501 105.055 92.5325C104.905 92.816 104.692 93.0271 104.415 93.1671C104.138 93.3048 103.806 93.3725 103.421 93.3725H102.189V89.5645H103.421ZM103.379 92.9945C103.697 92.9945 103.959 92.9455 104.168 92.8451C104.376 92.746 104.533 92.5838 104.639 92.3598C104.748 92.1358 104.803 91.8395 104.803 91.4685C104.803 91.0986 104.748 90.8011 104.639 90.5771C104.533 90.3531 104.376 90.1933 104.168 90.0965C103.959 89.9973 103.697 89.9471 103.379 89.9471H102.637V92.9945H103.379Z" fill="white"/>
</g>
<defs>
<clipPath id="clip0_89_14037">
<rect width="112" height="112" fill="white"/>
</clipPath>
</defs>
</svg>
