<svg width="297" height="297" viewBox="0 0 297 297" fill="none" xmlns="http://www.w3.org/2000/svg">
<path d="M58.4729 35.4199H37.6582V42.0444H58.4729V35.4199Z" fill="#EBEBEB"/>
<path d="M259.635 94.7438H238.229V87.5273H259.635V94.7438ZM238.821 94.1518H259.043V88.1193H238.821V94.1518Z" fill="#EBEBEB"/>
<path d="M46.8647 27.0672C43.4074 27.1264 34.5452 27.2744 31.2063 27.3158H26.05L26.3223 27.0435V33.668L26.0263 33.372C29.4836 33.372 38.2984 33.4193 41.6373 33.4667L46.841 33.5318L46.6989 33.668L46.841 27.0435L46.8647 27.0672ZM46.8647 27.0672L47.0008 33.6917V33.8337H46.8588C44.2599 33.8693 39.0444 33.9285 36.4514 33.9462L26.044 33.9877H25.748V33.6917V27.0672V26.8008H26.0144H31.2655C34.5807 26.8363 43.4015 26.9843 46.8292 27.0435L46.8647 27.0672Z" fill="#EBEBEB"/>
<path d="M81.6498 185.024C78.1926 185.083 69.3244 185.231 65.9914 185.273H60.8351L61.1015 185.001V191.625L60.8055 191.329C64.2628 191.329 73.0777 191.376 76.4166 191.424L81.6202 191.489L81.4782 191.625L81.6202 185.001L81.6498 185.024ZM81.6498 185.024L81.786 191.649V191.791H81.6439C79.045 191.826 73.8295 191.886 71.2366 191.909L60.8292 191.945H60.5332V191.643V185.018V184.752H60.8055H66.0566C69.3718 184.787 78.1926 184.941 81.6202 184.995L81.6498 185.024Z" fill="#EBEBEB"/>
<path d="M70.0365 176.671C66.5792 176.73 57.717 176.878 54.384 176.919H49.2277L49.4941 176.647V183.272L49.1981 182.976C52.6495 182.976 61.4643 183.023 64.8032 183.07L70.0069 183.135L69.8707 183.272L70.0069 176.647L70.0365 176.671ZM70.0365 176.671L70.1786 183.295V183.437H70.0306C67.4376 183.473 62.2221 183.532 59.6232 183.556L49.2218 183.591H48.9258V183.289V176.665V176.398H49.1981H54.4432C57.7643 176.434 66.5851 176.588 70.0069 176.641L70.0365 176.671Z" fill="#EBEBEB"/>
<path d="M58.4729 185.023H37.6582V191.648H58.4729V185.023Z" fill="#EBEBEB"/>
<path d="M270.949 27.0664H250.135V33.6909H270.949V27.0664Z" fill="#EBEBEB"/>
<path d="M259.34 259.107H238.525V265.732H259.34V259.107Z" fill="#EBEBEB"/>
<path d="M270.949 250.755C267.491 250.814 258.629 250.962 255.29 251.003H250.134L250.406 250.731V257.355L250.11 257.059C253.568 257.059 262.382 257.101 265.721 257.154L270.925 257.213L270.783 257.355L270.925 250.731L270.949 250.755ZM270.949 250.755L271.091 257.379V257.521H270.949C268.35 257.557 263.14 257.616 260.541 257.634L250.134 257.675H249.838V257.397L249.868 250.772V250.5H250.134H255.385C258.7 250.536 267.527 250.684 270.949 250.743V250.755Z" fill="#EBEBEB"/>
<path d="M46.8647 259.106C43.4074 259.166 34.5452 259.314 31.2063 259.349L26.05 259.379L26.3223 259.106V265.731L26.0263 265.435C29.4836 265.435 38.2984 265.476 41.6373 265.524L46.841 265.589L46.6989 265.731L46.841 259.106H46.8647ZM46.8647 259.106L47.0008 265.731V265.873H46.8588C44.2599 265.908 39.0444 265.968 36.4514 265.985L26.044 266.027H25.748V265.731V259.106V258.834H26.0144H31.2655C34.5807 258.87 43.4015 259.018 46.8292 259.077L46.8647 259.106Z" fill="#EBEBEB"/>
<path d="M268.213 25.1191H128.051V126.375H268.213V25.1191Z" fill="white"/>
<path d="M269.93 128.092H126.334V23.3965H269.93V128.092ZM129.768 124.652H266.52V26.836H129.768V124.652Z" fill="#EBEBEB"/>
<path d="M231.13 100.445C231.074 100.446 231.019 100.432 230.97 100.404L223.541 96.1177C223.491 96.0884 223.45 96.047 223.421 95.9972C223.392 95.9475 223.376 95.8911 223.375 95.8336V87.2555C223.376 87.1978 223.391 87.1412 223.42 87.0914C223.449 87.0416 223.491 87.0002 223.541 86.9713L230.97 82.6793C231.02 82.6502 231.076 82.6348 231.133 82.6348C231.19 82.6348 231.247 82.6502 231.296 82.6793L238.726 86.9713C238.776 87.0002 238.817 87.0416 238.846 87.0914C238.875 87.1412 238.891 87.1978 238.891 87.2555V95.8336C238.89 95.8911 238.874 95.9475 238.845 95.9972C238.816 96.047 238.775 96.0884 238.726 96.1177L231.296 100.404C231.246 100.433 231.188 100.447 231.13 100.445ZM224.026 95.6441L231.13 99.7408L238.234 95.6441V87.4449L231.13 83.3424L224.026 87.4449V95.6441Z" fill="#EBEBEB"/>
<path d="M245.99 100.445C245.932 100.446 245.874 100.432 245.824 100.404L238.4 96.1176C238.35 96.0892 238.308 96.0479 238.279 95.998C238.25 95.948 238.234 95.8912 238.234 95.8334V87.2553C238.234 87.1974 238.249 87.1404 238.278 87.0903C238.307 87.0403 238.349 86.9991 238.4 86.9712L245.824 82.6792C245.874 82.6501 245.931 82.6348 245.99 82.6348C246.048 82.6348 246.105 82.6501 246.155 82.6792L253.579 86.9712C253.63 86.9991 253.672 87.0403 253.701 87.0903C253.73 87.1404 253.746 87.1974 253.745 87.2553V95.8334C253.745 95.8912 253.73 95.948 253.7 95.998C253.671 96.0479 253.629 96.0892 253.579 96.1176L246.179 100.404C246.122 100.436 246.055 100.451 245.99 100.445ZM238.886 95.644L245.99 99.7406L253.094 95.644V87.4448L245.99 83.3422L238.886 87.4448V95.644Z" fill="#EBEBEB"/>
<path d="M245.99 83.2952C245.946 83.2952 245.904 83.2866 245.864 83.2699C245.824 83.2531 245.788 83.2286 245.757 83.1977C245.727 83.1669 245.703 83.1303 245.687 83.0901C245.671 83.0499 245.663 83.0069 245.664 82.9637V77.8725C245.664 77.7861 245.698 77.7033 245.759 77.6422C245.821 77.5812 245.903 77.5469 245.99 77.5469C246.076 77.5469 246.159 77.5812 246.22 77.6422C246.281 77.7033 246.315 77.7861 246.315 77.8725V82.9637C246.316 83.0069 246.308 83.0499 246.292 83.0901C246.276 83.1303 246.252 83.1669 246.222 83.1977C246.192 83.2286 246.156 83.2531 246.116 83.2699C246.076 83.2866 246.033 83.2952 245.99 83.2952Z" fill="#EBEBEB"/>
<path d="M253.418 87.5809C253.359 87.5822 253.3 87.5668 253.249 87.5365C253.198 87.5061 253.156 87.4621 253.128 87.4093C253.088 87.3329 253.079 87.2437 253.103 87.1608C253.128 87.0779 253.183 87.0077 253.259 86.9653L257.58 84.5973C257.618 84.5765 257.659 84.5633 257.702 84.5586C257.745 84.5539 257.788 84.5577 257.829 84.5698C257.871 84.5819 257.909 84.6021 257.943 84.6292C257.976 84.6562 258.004 84.6897 258.024 84.7275C258.045 84.7652 258.058 84.8066 258.063 84.8493C258.068 84.8921 258.064 84.9354 258.052 84.9767C258.04 85.018 258.019 85.0564 257.992 85.0899C257.965 85.1233 257.932 85.1511 257.894 85.1715L253.572 87.5395C253.526 87.5677 253.473 87.5821 253.418 87.5809Z" fill="#EBEBEB"/>
<path d="M225.056 95.1889C224.969 95.1873 224.886 95.1517 224.825 95.0897C224.765 95.0277 224.73 94.9443 224.73 94.8574V88.3217C224.73 88.2353 224.765 88.1525 224.826 88.0915C224.887 88.0304 224.97 87.9961 225.056 87.9961C225.142 87.9961 225.225 88.0304 225.286 88.0915C225.347 88.1525 225.382 88.2353 225.382 88.3217V94.8692C225.38 94.9545 225.345 95.0358 225.284 95.0956C225.223 95.1554 225.141 95.1889 225.056 95.1889Z" fill="#EBEBEB"/>
<path d="M240.39 95.1889C240.347 95.1889 240.304 95.1803 240.264 95.1636C240.224 95.1468 240.188 95.1223 240.158 95.0914C240.127 95.0606 240.104 95.024 240.088 94.9838C240.072 94.9436 240.064 94.9006 240.065 94.8574V88.3217C240.065 88.2353 240.099 88.1525 240.16 88.0915C240.221 88.0304 240.304 87.9961 240.39 87.9961C240.476 87.9961 240.559 88.0304 240.62 88.0915C240.681 88.1525 240.716 88.2353 240.716 88.3217V94.8692C240.714 94.9545 240.679 95.0358 240.618 95.0956C240.557 95.1554 240.475 95.1889 240.39 95.1889Z" fill="#EBEBEB"/>
<path d="M237.05 88.2974C236.991 88.2991 236.933 88.2826 236.884 88.25L231.224 84.9585C231.15 84.9152 231.096 84.8441 231.073 84.7609C231.051 84.6777 231.063 84.5891 231.106 84.5145C231.127 84.4762 231.155 84.4426 231.19 84.4157C231.224 84.3889 231.263 84.3693 231.305 84.3582C231.348 84.3471 231.391 84.3447 231.435 84.3513C231.478 84.3578 231.519 84.373 231.556 84.3961L237.215 87.6876C237.29 87.7309 237.344 87.8019 237.366 87.8851C237.388 87.9684 237.377 88.057 237.334 88.1316C237.305 88.1816 237.264 88.2231 237.214 88.2522C237.164 88.2813 237.107 88.2968 237.05 88.2974Z" fill="#EBEBEB"/>
<path d="M251.81 88.2966C251.751 88.2984 251.693 88.2818 251.644 88.2492L245.984 84.9577C245.947 84.9369 245.914 84.9087 245.888 84.8748C245.861 84.841 245.842 84.8022 245.831 84.7608C245.82 84.7194 245.817 84.6762 245.823 84.6337C245.829 84.5913 245.844 84.5505 245.866 84.5137C245.887 84.4763 245.915 84.4434 245.949 84.4171C245.983 84.3907 246.022 84.3715 246.063 84.3604C246.104 84.3494 246.148 84.3468 246.19 84.3528C246.232 84.3588 246.273 84.3732 246.31 84.3953L251.97 87.6868C252.025 87.7251 252.067 87.7795 252.09 87.8426C252.113 87.9057 252.116 87.9743 252.098 88.0391C252.081 88.104 252.044 88.1618 251.992 88.2047C251.94 88.2476 251.877 88.2735 251.81 88.2788V88.2966Z" fill="#EBEBEB"/>
<path d="M207.978 81.6382C207.92 81.6386 207.863 81.6244 207.812 81.5968L200.388 77.3107C200.339 77.2814 200.298 77.2399 200.269 77.1902C200.24 77.1405 200.224 77.0841 200.223 77.0266V68.4485C200.223 68.3908 200.239 68.3342 200.268 68.2844C200.297 68.2346 200.338 68.1932 200.388 68.1643L207.812 63.8723C207.863 63.8458 207.92 63.832 207.978 63.832C208.036 63.832 208.092 63.8458 208.144 63.8723L215.573 68.1643C215.622 68.1935 215.663 68.2351 215.691 68.285C215.719 68.3348 215.734 68.3912 215.733 68.4485V77.0266C215.733 77.0837 215.718 77.1399 215.69 77.1896C215.662 77.2394 215.622 77.2811 215.573 77.3107L208.144 81.5731C208.095 81.6098 208.038 81.6324 207.978 81.6382ZM200.874 76.8371L207.978 80.9338L215.082 76.8371V68.6379L207.978 64.5354L200.874 68.6379V76.8371Z" fill="#EBEBEB"/>
<path d="M207.978 64.4865C207.891 64.4849 207.808 64.4493 207.747 64.3873C207.686 64.3253 207.652 64.2419 207.652 64.155V59.0756C207.652 58.9892 207.687 58.9064 207.748 58.8454C207.809 58.7843 207.892 58.75 207.978 58.75C208.062 58.7531 208.142 58.7887 208.201 58.8495C208.259 58.9102 208.292 58.9913 208.292 59.0756V64.1668C208.29 64.2501 208.257 64.3297 208.199 64.3892C208.14 64.4486 208.061 64.4835 207.978 64.4865Z" fill="#EBEBEB"/>
<path d="M222.091 63.3382C222.005 63.3382 221.922 63.3039 221.861 63.2428C221.8 63.1817 221.766 63.0989 221.766 63.0126V57.9214C221.765 57.8784 221.773 57.8357 221.789 57.7958C221.805 57.7559 221.829 57.7197 221.859 57.6893C221.89 57.6589 221.926 57.635 221.966 57.6189C222.006 57.6028 222.048 57.595 222.091 57.5958C222.178 57.5958 222.26 57.6301 222.322 57.6911C222.383 57.7522 222.417 57.835 222.417 57.9214V63.0126C222.417 63.0989 222.383 63.1817 222.322 63.2428C222.26 63.3039 222.178 63.3382 222.091 63.3382Z" fill="#EBEBEB"/>
<path d="M215.395 68.7724C215.335 68.7736 215.277 68.7582 215.226 68.7279C215.174 68.6975 215.133 68.6535 215.105 68.6007C215.066 68.524 215.058 68.4354 215.082 68.3528C215.106 68.2703 215.161 68.2002 215.235 68.1567L219.557 65.7887C219.594 65.7679 219.636 65.7547 219.679 65.75C219.721 65.7453 219.765 65.7491 219.806 65.7612C219.847 65.7733 219.886 65.7935 219.919 65.8206C219.953 65.8476 219.98 65.8811 220.001 65.9189C220.022 65.9566 220.035 65.998 220.039 66.0408C220.044 66.0835 220.04 66.1268 220.028 66.1681C220.016 66.2094 219.996 66.2478 219.969 66.2813C219.942 66.3147 219.908 66.3425 219.871 66.3629L215.549 68.7309C215.503 68.7591 215.449 68.7735 215.395 68.7724Z" fill="#EBEBEB"/>
<path d="M228.68 68.7724C228.625 68.7735 228.572 68.7591 228.526 68.7309L224.204 66.3629C224.166 66.3425 224.133 66.3147 224.106 66.2813C224.079 66.2478 224.058 66.2094 224.046 66.1681C224.034 66.1268 224.03 66.0835 224.035 66.0408C224.04 65.998 224.053 65.9566 224.074 65.9189C224.094 65.8811 224.122 65.8476 224.155 65.8206C224.189 65.7935 224.227 65.7733 224.269 65.7612C224.31 65.7491 224.353 65.7453 224.396 65.75C224.439 65.7547 224.48 65.7679 224.518 65.7887L228.839 68.1567C228.915 68.1991 228.97 68.2693 228.995 68.3522C229.019 68.4351 229.01 68.5243 228.97 68.6007C228.942 68.6535 228.9 68.6975 228.849 68.7279C228.798 68.7582 228.739 68.7736 228.68 68.7724Z" fill="#EBEBEB"/>
<path d="M213.986 76.3921C213.899 76.3906 213.816 76.355 213.755 76.293C213.694 76.231 213.66 76.1475 213.66 76.0606V69.5131C213.66 69.4267 213.694 69.3439 213.756 69.2829C213.817 69.2218 213.899 69.1875 213.986 69.1875C214.072 69.1875 214.155 69.2218 214.216 69.2829C214.277 69.3439 214.311 69.4267 214.311 69.5131V76.0606C214.312 76.1039 214.304 76.1469 214.288 76.187C214.272 76.2272 214.248 76.2638 214.218 76.2947C214.188 76.3256 214.152 76.3501 214.112 76.3668C214.072 76.3835 214.029 76.3921 213.986 76.3921Z" fill="#EBEBEB"/>
<path d="M202.205 69.49C202.148 69.4901 202.092 69.4754 202.042 69.4474C201.992 69.4194 201.951 69.379 201.921 69.3301C201.899 69.2929 201.884 69.2517 201.878 69.2088C201.872 69.1659 201.875 69.1222 201.886 69.0803C201.897 69.0384 201.916 68.9991 201.942 68.9648C201.969 68.9304 202.002 68.9017 202.039 68.8802L207.699 65.5887C207.777 65.5455 207.87 65.5353 207.956 65.5603C208.042 65.5853 208.115 65.6434 208.158 65.7219C208.201 65.8004 208.211 65.8928 208.186 65.9789C208.161 66.0649 208.103 66.1375 208.025 66.1807L202.371 69.4485C202.32 69.4761 202.263 69.4903 202.205 69.49Z" fill="#EBEBEB"/>
<path d="M165.609 49.83C165.553 49.8281 165.498 49.814 165.449 49.7886L158.019 45.4966C157.969 45.4677 157.928 45.4263 157.899 45.3765C157.87 45.3267 157.854 45.2701 157.854 45.2124V36.6343C157.855 36.5768 157.87 36.5204 157.899 36.4707C157.928 36.4209 157.97 36.3795 158.019 36.3502L165.449 32.0641C165.498 32.0349 165.554 32.0195 165.612 32.0195C165.669 32.0195 165.725 32.0349 165.774 32.0641L173.204 36.3502C173.253 36.3798 173.293 36.4215 173.321 36.4712C173.349 36.521 173.364 36.5772 173.364 36.6343V45.2124C173.365 45.2696 173.35 45.3261 173.322 45.3759C173.294 45.4258 173.253 45.4674 173.204 45.4966L165.774 49.7886C165.723 49.8141 165.666 49.8282 165.609 49.83ZM158.505 45.023L165.609 49.1255L172.713 45.023V36.8238L165.609 32.7271L158.505 36.8238V45.023Z" fill="#EBEBEB"/>
<path d="M173.038 36.9661C172.979 36.9648 172.921 36.9484 172.87 36.9183C172.819 36.8882 172.777 36.8456 172.748 36.7944C172.709 36.7177 172.7 36.6291 172.725 36.5466C172.749 36.4641 172.804 36.3939 172.878 36.3504L177.199 33.9824C177.276 33.9401 177.367 33.9301 177.451 33.9545C177.536 33.9789 177.607 34.0358 177.649 34.1127C177.688 34.1893 177.696 34.278 177.672 34.3605C177.648 34.443 177.593 34.5132 177.519 34.5567L173.197 36.9247C173.148 36.9494 173.093 36.9635 173.038 36.9661Z" fill="#EBEBEB"/>
<path d="M159.835 44.5777C159.792 44.5785 159.75 44.5706 159.71 44.5545C159.67 44.5385 159.634 44.5145 159.603 44.4841C159.573 44.4537 159.549 44.4175 159.533 44.3776C159.517 44.3378 159.509 44.2951 159.51 44.2521V37.7046C159.509 37.6616 159.517 37.6189 159.533 37.579C159.549 37.5391 159.573 37.5029 159.603 37.4725C159.634 37.4421 159.67 37.4182 159.71 37.4021C159.75 37.386 159.792 37.3782 159.835 37.379C159.922 37.379 160.005 37.4133 160.066 37.4743C160.127 37.5354 160.161 37.6182 160.161 37.7046V44.2758C160.155 44.3579 160.118 44.4348 160.058 44.4908C159.997 44.5469 159.918 44.5779 159.835 44.5777Z" fill="#EBEBEB"/>
<path d="M171.588 37.6812C171.531 37.6801 171.476 37.6637 171.428 37.6338L165.768 34.3423C165.73 34.3214 165.697 34.293 165.67 34.2587C165.643 34.2244 165.623 34.185 165.612 34.1429C165.601 34.1007 165.599 34.0568 165.605 34.0137C165.612 33.9706 165.627 33.9293 165.65 33.8923C165.693 33.8179 165.764 33.7637 165.848 33.7415C165.931 33.7193 166.019 33.731 166.094 33.7739L171.754 37.0655C171.828 37.1099 171.883 37.182 171.905 37.2662C171.927 37.3504 171.915 37.4399 171.872 37.5154C171.844 37.5658 171.802 37.6077 171.752 37.6368C171.702 37.6659 171.646 37.6812 171.588 37.6812Z" fill="#EBEBEB"/>
<path d="M165.929 48.2066C165.862 48.2012 165.798 48.1753 165.746 48.1324C165.695 48.0895 165.658 48.0317 165.64 47.9669C165.623 47.9021 165.626 47.8334 165.649 47.7703C165.672 47.7073 165.714 47.6529 165.769 47.6146L171.428 44.3231C171.465 44.301 171.506 44.2865 171.548 44.2805C171.591 44.2745 171.634 44.2771 171.675 44.2881C171.717 44.2992 171.756 44.3184 171.789 44.3448C171.823 44.3711 171.851 44.404 171.872 44.4415C171.916 44.517 171.927 44.6065 171.905 44.6907C171.883 44.7748 171.829 44.8469 171.754 44.8914L166.094 48.1829C166.042 48.2051 165.985 48.2133 165.929 48.2066Z" fill="#EBEBEB"/>
<path d="M247.21 57.205C247.152 57.2038 247.095 57.1875 247.045 57.1577L239.615 52.8716C239.566 52.8424 239.525 52.8008 239.497 52.7509C239.469 52.7011 239.454 52.6446 239.455 52.5874V44.0093C239.454 43.9521 239.469 43.8957 239.497 43.8458C239.525 43.7959 239.566 43.7543 239.615 43.7252L247.045 39.4391C247.094 39.4099 247.15 39.3945 247.207 39.3945C247.265 39.3945 247.321 39.4099 247.37 39.4391L254.8 43.7252C254.85 43.754 254.891 43.7954 254.92 43.8452C254.949 43.8951 254.965 43.9516 254.965 44.0093V52.5637C254.965 52.6214 254.949 52.678 254.92 52.7278C254.891 52.7777 254.85 52.819 254.8 52.8479L247.364 57.1577C247.318 57.1866 247.265 57.2029 247.21 57.205ZM240.106 52.398L247.21 56.5005L254.314 52.398V44.1988L247.21 40.1021L240.106 44.1988V52.398Z" fill="#EBEBEB"/>
<path d="M254.632 44.3349C254.566 44.3286 254.503 44.3019 254.452 44.2586C254.401 44.2153 254.365 44.1574 254.348 44.0928C254.332 44.0282 254.335 43.9599 254.358 43.8974C254.382 43.8348 254.423 43.7809 254.478 43.7429L258.8 41.3749C258.879 41.3333 258.97 41.3246 259.055 41.3507C259.14 41.3768 259.211 41.4356 259.253 41.5141C259.295 41.5926 259.303 41.6844 259.277 41.7693C259.251 41.8542 259.192 41.9253 259.114 41.9669L254.792 44.3349C254.74 44.3465 254.685 44.3465 254.632 44.3349Z" fill="#EBEBEB"/>
<path d="M241.443 51.9731C241.356 51.9731 241.274 51.9388 241.213 51.8778C241.151 51.8167 241.117 51.7339 241.117 51.6475V45.0822C241.128 45.0027 241.167 44.9297 241.228 44.8769C241.288 44.824 241.365 44.7949 241.446 44.7949C241.526 44.7949 241.604 44.824 241.664 44.8769C241.724 44.9297 241.764 45.0027 241.774 45.0822V51.6298C241.776 51.6743 241.768 51.7187 241.753 51.7603C241.737 51.8019 241.712 51.8398 241.681 51.8719C241.651 51.9039 241.613 51.9294 241.572 51.9468C241.531 51.9642 241.487 51.9731 241.443 51.9731Z" fill="#EBEBEB"/>
<path d="M253.188 45.0522C253.13 45.0534 253.073 45.0391 253.022 45.0108L247.363 41.7192C247.324 41.6975 247.29 41.6683 247.262 41.6333C247.235 41.5983 247.214 41.5582 247.202 41.5153C247.19 41.4725 247.187 41.4276 247.192 41.3834C247.197 41.3391 247.211 41.2963 247.233 41.2575C247.254 41.2186 247.284 41.1844 247.319 41.1568C247.354 41.1292 247.394 41.1088 247.437 41.0967C247.48 41.0846 247.524 41.0811 247.569 41.0863C247.613 41.0916 247.656 41.1055 247.694 41.1272L253.354 44.4188C253.428 44.4642 253.481 44.5363 253.503 44.6201C253.525 44.7038 253.514 44.7928 253.472 44.8687C253.446 44.9224 253.406 44.9679 253.356 45.0002C253.306 45.0326 253.248 45.0506 253.188 45.0522Z" fill="#EBEBEB"/>
<path d="M247.53 55.583C247.462 55.5788 247.398 55.5537 247.345 55.5112C247.293 55.4687 247.255 55.4109 247.237 55.3459C247.218 55.2808 247.221 55.2117 247.244 55.1482C247.267 55.0846 247.309 55.0297 247.364 54.991L253.023 51.6995C253.06 51.6777 253.101 51.6635 253.144 51.6575C253.186 51.6515 253.229 51.6539 253.271 51.6647C253.312 51.6754 253.351 51.6942 253.386 51.72C253.42 51.7457 253.449 51.778 253.47 51.815C253.492 51.8519 253.506 51.8927 253.512 51.9352C253.518 51.9776 253.516 52.0208 253.505 52.0623C253.495 52.1038 253.476 52.1428 253.45 52.1771C253.424 52.2113 253.392 52.2401 253.355 52.2619L247.695 55.5238C247.646 55.5576 247.589 55.578 247.53 55.583Z" fill="#EBEBEB"/>
<path d="M164.167 64.1942L38.0918 80.3672L60.1506 252.325L186.226 236.152L164.167 64.1942Z" fill="#EBEBEB"/>
<path d="M54.5799 253.037L60.1523 252.322L38.0935 80.3641L32.5211 81.079L54.5799 253.037Z" fill="#DBDBDB"/>
<path d="M164.169 64.1923L38.0938 80.3652L40.2955 97.5288L166.371 81.3558L164.169 64.1923Z" fill="#DBDBDB"/>
<path d="M38.0861 80.3633L32.5137 81.0781L34.7154 98.2416L40.2878 97.5268L38.0861 80.3633Z" fill="#A6A6A6"/>
<path d="M35.2858 98.1694L34.9922 98.207L54.8493 253.002L55.1429 252.964L35.2858 98.1694Z" fill="#C7C7C7"/>
<path d="M35.9635 98.0834L35.6699 98.1211L55.5278 252.922L55.8214 252.884L35.9635 98.0834Z" fill="#C7C7C7"/>
<path d="M36.6393 97.9936L36.3457 98.0312L56.2028 252.826L56.4964 252.788L36.6393 97.9936Z" fill="#C7C7C7"/>
<path d="M37.4942 97.5982L37.2012 97.6367L57.4894 252.139L57.7824 252.101L37.4942 97.5982Z" fill="#C7C7C7"/>
<path d="M38.1641 97.5103L37.8711 97.5488L58.1601 252.057L58.4531 252.019L38.1641 97.5103Z" fill="#C7C7C7"/>
<path d="M38.6608 97.7319L38.3672 97.7695L58.225 252.57L58.5186 252.532L38.6608 97.7319Z" fill="#C7C7C7"/>
<path d="M39.3366 97.6459L39.043 97.6836L58.9001 252.478L59.1937 252.441L39.3366 97.6459Z" fill="#C7C7C7"/>
<path d="M40.0143 97.5619L39.7207 97.5996L59.5786 252.4L59.8722 252.362L40.0143 97.5619Z" fill="#C7C7C7"/>
<path d="M62.5905 150.109L108.146 144.127L108.022 143.178L62.4658 149.16L62.5905 150.109Z" fill="#C7C7C7"/>
<path d="M63.4379 154.574L109.08 148.719L108.958 147.768L63.3159 153.622L63.4379 154.574Z" fill="#C7C7C7"/>
<path d="M62.1395 144.503L160.781 131.85L160.659 130.898L62.0175 143.552L62.1395 144.503Z" fill="#C7C7C7"/>
<path d="M60.8524 134.441L159.494 121.787L159.372 120.836L60.7303 133.49L60.8524 134.441Z" fill="#C7C7C7"/>
<path d="M60.2098 129.404L158.852 116.75L158.73 115.799L60.0878 128.453L60.2098 129.404Z" fill="#C7C7C7"/>
<path d="M58.9168 119.343L157.559 106.689L157.437 105.738L58.7948 118.392L58.9168 119.343Z" fill="#C7C7C7"/>
<path d="M58.2664 114.306L156.908 101.652L156.786 100.701L58.1444 113.355L58.2664 114.306Z" fill="#C7C7C7"/>
<path d="M64.0746 159.607L109.717 153.752L109.595 152.801L63.9526 158.656L64.0746 159.607Z" fill="#C7C7C7"/>
<path d="M64.7192 164.636L110.361 158.781L110.239 157.83L64.5971 163.685L64.7192 164.636Z" fill="#C7C7C7"/>
<path d="M65.3676 169.673L111.01 163.818L110.888 162.867L65.2456 168.722L65.3676 169.673Z" fill="#C7C7C7"/>
<path d="M66.0121 174.71L111.654 168.855L111.532 167.904L65.8901 173.759L66.0121 174.71Z" fill="#C7C7C7"/>
<path d="M66.6625 179.746L112.305 173.891L112.183 172.939L66.5405 178.794L66.6625 179.746Z" fill="#C7C7C7"/>
<path d="M67.3051 184.771L112.947 178.916L112.825 177.965L67.1831 183.82L67.3051 184.771Z" fill="#C7C7C7"/>
<path d="M67.9535 189.808L113.596 183.953L113.474 183.002L67.8315 188.857L67.9535 189.808Z" fill="#C7C7C7"/>
<path d="M68.5981 194.845L114.24 188.99L114.118 188.039L68.4761 193.894L68.5981 194.845Z" fill="#C7C7C7"/>
<path d="M69.891 204.906L115.533 199.051L115.411 198.1L69.769 203.955L69.891 204.906Z" fill="#C7C7C7"/>
<path d="M70.5336 209.943L116.176 204.088L116.054 203.137L70.4116 208.992L70.5336 209.943Z" fill="#C7C7C7"/>
<path d="M115.79 142.734L161.432 136.879L161.31 135.928L115.667 141.783L115.79 142.734Z" fill="#C7C7C7"/>
<path d="M116.432 147.771L162.074 141.916L161.952 140.965L116.31 146.82L116.432 147.771Z" fill="#C7C7C7"/>
<path d="M117.082 152.808L162.725 146.953L162.603 146.002L116.96 151.857L117.082 152.808Z" fill="#C7C7C7"/>
<path d="M117.727 157.845L163.369 151.99L163.247 151.039L117.605 156.894L117.727 157.845Z" fill="#C7C7C7"/>
<path d="M118.375 162.875L164.018 157.02L163.896 156.068L118.253 161.923L118.375 162.875Z" fill="#C7C7C7"/>
<path d="M119.657 172.943L165.299 167.088L165.177 166.137L119.535 171.992L119.657 172.943Z" fill="#C7C7C7"/>
<path d="M120.307 177.974L165.949 172.119L165.827 171.168L120.185 177.023L120.307 177.974Z" fill="#C7C7C7"/>
<path d="M120.95 183.011L166.592 177.156L166.47 176.205L120.828 182.06L120.95 183.011Z" fill="#C7C7C7"/>
<path d="M121.598 188.041L167.24 182.186L167.118 181.234L121.476 187.089L121.598 188.041Z" fill="#C7C7C7"/>
<path d="M122.243 193.072L167.885 187.217L167.763 186.266L122.121 192.121L122.243 193.072Z" fill="#C7C7C7"/>
<path d="M122.893 198.109L168.535 192.254L168.413 191.303L122.771 197.158L122.893 198.109Z" fill="#C7C7C7"/>
<path d="M123.536 203.146L169.178 197.291L169.056 196.34L123.414 202.195L123.536 203.146Z" fill="#C7C7C7"/>
<path opacity="0.1" d="M54.5968 85.7159C54.6718 86.2967 54.5728 86.8868 54.3123 87.4113C54.0518 87.9358 53.6416 88.3713 53.1335 88.6626C52.6254 88.9539 52.0424 89.088 51.4581 89.0478C50.8738 89.0076 50.3146 88.795 49.8512 88.4369C49.3878 88.0788 49.041 87.5912 48.8548 87.036C48.6686 86.4807 48.6513 85.8827 48.805 85.3176C48.9588 84.7525 49.2768 84.2457 49.7187 83.8613C50.1606 83.477 50.7066 83.2324 51.2875 83.1585C52.0654 83.0595 52.8507 83.2732 53.4712 83.7527C54.0916 84.2321 54.4965 84.9382 54.5968 85.7159Z" fill="black"/>
<path d="M53.4358 85.8398C53.4774 86.1865 53.4159 86.5377 53.259 86.8496C53.1021 87.1614 52.8568 87.4202 52.5537 87.5934C52.2505 87.7666 51.9031 87.8466 51.5547 87.8235C51.2064 87.8003 50.8726 87.675 50.595 87.4632C50.3175 87.2514 50.1085 86.9625 49.9943 86.6326C49.88 86.3027 49.8655 85.9465 49.9526 85.6084C50.0397 85.2703 50.2245 84.9654 50.4839 84.7317C50.7433 84.4981 51.0659 84.3461 51.4112 84.2947C51.6461 84.2598 51.8856 84.2723 52.1155 84.3315C52.3454 84.3908 52.5612 84.4955 52.7499 84.6396C52.9387 84.7836 53.0967 84.9641 53.2145 85.1702C53.3323 85.3764 53.4076 85.6041 53.4358 85.8398Z" fill="#263238"/>
<path opacity="0.1" d="M69.9054 83.7276C69.9804 84.3084 69.8814 84.8985 69.6209 85.423C69.3604 85.9476 68.9502 86.383 68.4421 86.6743C67.934 86.9657 67.351 87.0997 66.7667 87.0595C66.1824 87.0193 65.6232 86.8067 65.1598 86.4486C64.6964 86.0905 64.3496 85.6029 64.1634 85.0477C63.9772 84.4924 63.9598 83.8944 64.1136 83.3293C64.2674 82.7642 64.5854 82.2574 65.0273 81.873C65.4692 81.4887 66.0152 81.2441 66.5961 81.1702C67.374 81.0712 68.1593 81.2849 68.7798 81.7644C69.4002 82.2439 69.805 82.9499 69.9054 83.7276Z" fill="black"/>
<path d="M68.744 83.8756C68.7864 84.2233 68.725 84.5758 68.5676 84.8886C68.4102 85.2015 68.1638 85.4609 67.8593 85.6341C67.5549 85.8073 67.206 85.8866 66.8566 85.8621C66.5072 85.8375 66.1729 85.7102 65.8956 85.4961C65.6184 85.2821 65.4106 84.9908 65.2985 84.659C65.1864 84.3271 65.1749 83.9695 65.2655 83.6312C65.3561 83.2928 65.5447 82.9888 65.8076 82.7574C66.0705 82.5259 66.396 82.3774 66.7431 82.3305C66.9761 82.299 67.2132 82.314 67.4403 82.3749C67.6675 82.4357 67.8804 82.541 68.0665 82.6848C68.2527 82.8285 68.4084 83.0078 68.5247 83.2122C68.641 83.4166 68.7156 83.6421 68.744 83.8756Z" fill="#263238"/>
<path opacity="0.1" d="M85.214 81.7686C85.289 82.3495 85.19 82.9395 84.9295 83.464C84.669 83.9886 84.2587 84.4241 83.7507 84.7154C83.2426 85.0067 82.6595 85.1407 82.0753 85.1005C81.491 85.0604 80.9318 84.8477 80.4684 84.4896C80.005 84.1315 79.6582 83.644 79.472 83.0887C79.2858 82.5334 79.2684 81.9354 79.4222 81.3703C79.576 80.8052 79.894 80.2984 80.3359 79.9141C80.7778 79.5297 81.3238 79.2851 81.9047 79.2112C82.6826 79.1122 83.4679 79.3259 84.0884 79.8054C84.7088 80.2849 85.1136 80.991 85.214 81.7686Z" fill="black"/>
<path d="M84.0593 81.9154C84.1003 82.2628 84.0378 82.6145 83.8797 82.9265C83.7216 83.2385 83.4749 83.4968 83.1705 83.6691C82.8662 83.8415 82.5177 83.9201 82.1688 83.8951C81.82 83.8702 81.4862 83.7428 81.2095 83.5289C80.9327 83.315 80.7253 83.0242 80.6132 82.6928C80.5011 82.3615 80.4893 82.0045 80.5794 81.6665C80.6694 81.3285 80.8572 81.0247 81.1193 80.793C81.3813 80.5614 81.7059 80.4123 82.0524 80.3644C82.2864 80.332 82.5244 80.3467 82.7527 80.4075C82.9809 80.4683 83.1947 80.574 83.3816 80.7184C83.5685 80.8629 83.7246 81.0431 83.841 81.2486C83.9574 81.4542 84.0316 81.6809 84.0593 81.9154Z" fill="#263238"/>
<path opacity="0.1" d="M100.548 79.796C100.623 80.3768 100.524 80.9668 100.263 81.4914C100.003 82.0159 99.5927 82.4514 99.0847 82.7427C98.5766 83.034 97.9935 83.1681 97.4092 83.1279C96.825 83.0877 96.2657 82.8751 95.8023 82.517C95.3389 82.1589 94.9922 81.6713 94.806 81.116C94.6197 80.5608 94.6024 79.9628 94.7562 79.3976C94.91 78.8325 95.2279 78.3257 95.6698 77.9414C96.1118 77.5571 96.6577 77.3125 97.2387 77.2385C98.0166 77.1396 98.8019 77.3533 99.4223 77.8327C100.043 78.3122 100.448 79.0183 100.548 79.796Z" fill="black"/>
<path d="M99.4167 79.9447C99.4577 80.2921 99.3952 80.6438 99.2371 80.9558C99.079 81.2678 98.8323 81.5261 98.528 81.6984C98.2236 81.8708 97.8751 81.9494 97.5263 81.9244C97.1774 81.8995 96.8436 81.7721 96.5669 81.5582C96.2902 81.3443 96.0827 81.0535 95.9706 80.7221C95.8585 80.3908 95.8468 80.0338 95.9368 79.6958C96.0268 79.3578 96.2146 79.054 96.4767 78.8223C96.7387 78.5907 97.0634 78.4416 97.4098 78.3937C97.6438 78.3613 97.8819 78.376 98.1101 78.4368C98.3383 78.4976 98.5521 78.6033 98.739 78.7477C98.9259 78.8922 99.0821 79.0724 99.1984 79.2779C99.3148 79.4835 99.389 79.7102 99.4167 79.9447Z" fill="#263238"/>
<path opacity="0.1" d="M115.939 77.8253C116.014 78.4061 115.915 78.9961 115.654 79.5207C115.394 80.0452 114.983 80.4807 114.475 80.772C113.967 81.0633 113.384 81.1974 112.8 81.1572C112.216 81.117 111.656 80.9044 111.193 80.5463C110.73 80.1881 110.383 79.7006 110.197 79.1453C110.01 78.5901 109.993 77.992 110.147 77.4269C110.301 76.8618 110.619 76.355 111.06 75.9707C111.502 75.5864 112.048 75.3418 112.629 75.2678C113.407 75.1689 114.193 75.3826 114.813 75.862C115.433 76.3415 115.838 77.0476 115.939 77.8253Z" fill="black"/>
<path d="M114.756 77.9721C114.798 78.3195 114.737 78.6717 114.579 78.9843C114.422 79.297 114.176 79.5562 113.872 79.7294C113.568 79.9026 113.219 79.9821 112.87 79.9579C112.521 79.9337 112.187 79.8069 111.909 79.5934C111.632 79.3799 111.424 79.0892 111.311 78.7579C111.199 78.4265 111.186 78.0693 111.276 77.731C111.366 77.3927 111.553 77.0884 111.816 76.8564C112.078 76.6244 112.402 76.475 112.749 76.427C112.982 76.3946 113.22 76.4091 113.448 76.4695C113.676 76.5299 113.889 76.6351 114.076 76.7789C114.263 76.9227 114.419 77.1023 114.536 77.3072C114.653 77.512 114.727 77.7381 114.756 77.9721Z" fill="#263238"/>
<path opacity="0.1" d="M131.212 75.8663C131.287 76.4471 131.188 77.0371 130.928 77.5617C130.667 78.0862 130.257 78.5217 129.749 78.813C129.241 79.1043 128.658 79.2384 128.073 79.1982C127.489 79.158 126.93 78.9454 126.466 78.5873C126.003 78.2292 125.656 77.7416 125.47 77.1864C125.284 76.6311 125.266 76.0331 125.42 75.468C125.574 74.9028 125.892 74.396 126.334 74.0117C126.776 73.6274 127.322 73.3828 127.903 73.3088C128.681 73.2099 129.466 73.4236 130.086 73.9031C130.707 74.3825 131.112 75.0886 131.212 75.8663Z" fill="black"/>
<path d="M130.059 76.0131C130.1 76.3604 130.038 76.7121 129.88 77.0241C129.722 77.3361 129.475 77.5945 129.171 77.7668C128.866 77.9391 128.518 78.0177 128.169 77.9928C127.82 77.9678 127.486 77.8404 127.209 77.6265C126.933 77.4127 126.725 77.1218 126.613 76.7905C126.501 76.4592 126.489 76.1022 126.579 75.7642C126.669 75.4262 126.857 75.1223 127.119 74.8907C127.381 74.659 127.706 74.5099 128.052 74.462C128.286 74.4297 128.524 74.4444 128.753 74.5052C128.981 74.5659 129.195 74.6716 129.382 74.8161C129.568 74.9605 129.725 75.1408 129.841 75.3463C129.957 75.5518 130.032 75.7785 130.059 76.0131Z" fill="#263238"/>
<path opacity="0.1" d="M146.54 73.876C146.615 74.4569 146.516 75.0469 146.256 75.5715C145.995 76.096 145.585 76.5315 145.077 76.8228C144.569 77.1141 143.986 77.2481 143.401 77.208C142.817 77.1678 142.258 76.9552 141.795 76.597C141.331 76.2389 140.984 75.7514 140.798 75.1961C140.612 74.6409 140.595 74.0428 140.748 73.4777C140.902 72.9126 141.22 72.4058 141.662 72.0215C142.104 71.6371 142.65 71.3925 143.231 71.3186C144.009 71.2196 144.794 71.4333 145.415 71.9128C146.035 72.3923 146.44 73.0984 146.54 73.876Z" fill="black"/>
<path d="M145.379 74.0474C145.421 74.395 145.358 74.7471 145.2 75.0593C145.042 75.3716 144.795 75.6301 144.49 75.8024C144.185 75.9747 143.837 76.0531 143.487 76.0278C143.138 76.0025 142.804 75.8746 142.528 75.6601C142.251 75.4457 142.044 75.1543 141.932 74.8225C141.821 74.4907 141.81 74.1333 141.901 73.7953C141.992 73.4572 142.18 73.1536 142.443 72.9225C142.706 72.6914 143.032 72.5432 143.379 72.4964C143.612 72.4649 143.849 72.4802 144.077 72.5414C144.305 72.6026 144.518 72.7084 144.704 72.8528C144.89 72.9971 145.046 73.1771 145.162 73.3822C145.278 73.5873 145.352 73.8134 145.379 74.0474Z" fill="#263238"/>
<path opacity="0.1" d="M161.913 71.9288C161.988 72.5096 161.889 73.0996 161.629 73.6242C161.368 74.1487 160.958 74.5842 160.45 74.8755C159.942 75.1668 159.359 75.3009 158.774 75.2607C158.19 75.2205 157.631 75.0079 157.168 74.6498C156.704 74.2917 156.357 73.8041 156.171 73.2489C155.985 72.6936 155.968 72.0956 156.121 71.5305C156.275 70.9653 156.593 70.4586 157.035 70.0742C157.477 69.6899 158.023 69.4453 158.604 69.3713C159.382 69.2724 160.167 69.4861 160.788 69.9656C161.408 70.445 161.813 71.1511 161.913 71.9288Z" fill="black"/>
<path d="M160.755 72.1002C160.796 72.4478 160.733 72.7998 160.575 73.1121C160.417 73.4243 160.17 73.6828 159.865 73.8551C159.56 74.0274 159.212 74.1059 158.862 74.0806C158.513 74.0552 158.179 73.9273 157.903 73.7129C157.626 73.4984 157.419 73.207 157.307 72.8752C157.196 72.5434 157.185 72.1861 157.276 71.848C157.367 71.51 157.555 71.2063 157.818 70.9752C158.081 70.7441 158.407 70.5959 158.754 70.5491C158.987 70.5176 159.225 70.5329 159.452 70.5941C159.68 70.6553 159.893 70.7612 160.079 70.9055C160.265 71.0499 160.421 71.2299 160.537 71.435C160.653 71.6401 160.727 71.8662 160.755 72.1002Z" fill="#263238"/>
<path d="M52.3054 79.6836C52.4948 81.1458 52.9447 85.9351 52.9447 85.9351C53.1579 87.5927 50.5767 87.9183 50.3814 86.2666C50.186 84.615 49.7894 81.6786 49.446 78.991C48.9724 75.3206 47.2083 74.2017 45.6158 74.4089C43.6326 74.6635 42.7623 77.2031 43.082 79.7369L40.5068 80.0684C39.7727 74.3556 42.2177 71.7804 45.0297 71.443C49.3039 70.8747 51.5121 73.4913 52.3054 79.6836Z" fill="#A6A6A6"/>
<path d="M67.6313 77.7178C67.8208 79.18 68.2707 83.9693 68.2707 83.9693C68.4838 85.6269 65.9027 85.9525 65.7073 84.3008C65.512 82.6491 65.1153 79.7128 64.772 77.0192C64.2984 73.3547 62.5342 72.2359 60.9417 72.4431C58.9585 72.6976 58.0883 75.2373 58.408 77.7711L55.8328 78.1026C55.0987 72.3898 57.5496 69.8146 60.3556 69.4712C64.6299 68.9088 66.838 71.5077 67.6313 77.7178Z" fill="#A6A6A6"/>
<path d="M82.9594 75.7468C83.1489 77.2149 83.5988 82.0042 83.5988 82.0042C83.8119 83.6618 81.2308 83.9815 81.0354 82.3357C80.8401 80.69 80.4435 77.7477 80.1001 75.0541C79.6324 71.3896 77.8623 70.2708 76.2699 70.478C74.2867 70.7325 73.4164 73.2722 73.7361 75.806L71.1609 76.1375C70.4268 70.4247 72.8777 67.8495 75.6838 67.5061C79.9639 66.9437 82.1958 69.5544 82.9594 75.7468Z" fill="#A6A6A6"/>
<path d="M98.2856 73.7826C98.4751 75.2507 98.925 80.04 98.925 80.04C99.1381 81.6976 96.557 82.0173 96.3616 80.3656C96.1663 78.7139 95.7696 75.7835 95.4263 73.0899C94.9586 69.4254 93.1885 68.3066 91.596 68.5078C89.6128 68.7624 88.7426 71.3021 89.0682 73.8358L86.4871 74.1674C85.753 68.4486 88.2039 65.8794 91.0099 65.536C95.2901 64.9973 97.4923 67.5902 98.2856 73.7826Z" fill="#A6A6A6"/>
<path d="M113.618 71.817C113.801 73.2852 114.251 78.0744 114.251 78.0744C114.464 79.732 111.883 80.0517 111.688 78.4C111.492 76.7484 111.096 73.818 110.752 71.1244C110.285 67.4599 108.515 66.341 106.922 66.5423C104.939 66.7968 104.069 69.3365 104.394 71.8703L101.813 72.1959C101.079 66.4831 103.53 63.9079 106.336 63.5704C110.61 63.008 112.819 65.6247 113.618 71.817Z" fill="#A6A6A6"/>
<path d="M128.963 69.8516C129.147 71.3197 129.597 76.109 129.597 76.109C129.81 77.7607 127.229 78.0863 127.034 76.4346C126.838 74.7829 126.442 71.8466 126.098 69.1589C125.63 65.4945 123.86 64.3756 122.274 64.5769C120.285 64.8314 119.414 67.3711 119.74 69.9049L117.159 70.2364C116.425 64.5236 118.876 61.9484 121.682 61.6109C125.944 61.0426 128.146 63.6593 128.963 69.8516Z" fill="#A6A6A6"/>
<path d="M144.272 67.8848C144.456 69.347 144.905 74.1363 144.905 74.1363C145.119 75.7939 142.537 76.1195 142.342 74.4678C142.147 72.8161 141.75 69.8798 141.407 67.1921C140.939 63.5217 139.169 62.4088 137.582 62.6101C135.599 62.8646 134.723 65.4043 135.049 67.9381L132.468 68.2696C131.733 62.5568 134.184 59.9816 136.99 59.6441C141.271 59.0758 143.479 61.6925 144.272 67.8848Z" fill="#A6A6A6"/>
<path d="M159.6 65.9199C159.79 67.3822 160.234 72.1715 160.234 72.1715C160.447 73.8291 157.866 74.1547 157.67 72.503C157.475 70.8513 157.078 67.915 156.735 65.2273C156.267 61.5569 154.497 60.438 152.911 60.6452C150.927 60.8998 150.051 63.4395 150.377 65.9732L147.796 66.3047C147.062 60.5919 149.512 58.0167 152.319 57.6793C156.599 57.111 158.807 59.7276 159.6 65.9199Z" fill="#A6A6A6"/>
<path d="M149.535 244.744H44.2832V255.886H149.535V244.744Z" fill="#FFC727"/>
<path opacity="0.6" d="M149.535 244.744H44.2832V255.886H149.535V244.744Z" fill="white"/>
<path d="M129.686 255.887H139.969V244.745H129.686V255.887Z" fill="#FFC727"/>
<path d="M121.575 255.887H125.867V244.745H121.575V255.887Z" fill="#FFC727"/>
<path d="M53.6545 255.887H63.9375V244.745H53.6545V255.887Z" fill="#FFC727"/>
<path d="M154.378 272.102H46.125V280.005H154.378V272.102Z" fill="#455A64"/>
<path d="M74.6761 272.102H70.2598V280.005H74.6761V272.102Z" fill="#FFC727"/>
<path d="M67.348 272.102H62.9316V280.005H67.348V272.102Z" fill="#FFC727"/>
<path d="M143.586 272.102H139.17V280.005H143.586V272.102Z" fill="#FFC727"/>
<path d="M136.256 272.102H131.84V280.005H136.256V272.102Z" fill="#FFC727"/>
<path d="M114.417 232.953H48.8945V244.752H114.417V232.953Z" fill="#455A64"/>
<path d="M153.337 232.953H114.342V244.752H153.337V232.953Z" fill="#37474F"/>
<path d="M112.967 234.178H48.8945V243.525H112.967V234.178Z" fill="white"/>
<path d="M53.0391 241.601C58.0355 241.669 63.03 241.716 68.0226 241.744L83.0061 241.785L97.9837 241.744C102.98 241.72 107.975 241.672 112.967 241.601C107.971 241.534 102.976 241.489 97.9837 241.465L83.0061 241.424L68.0226 241.465C63.0261 241.489 58.0316 241.534 53.0391 241.601Z" fill="#DBDBDB"/>
<path d="M53.0391 239.771C58.0355 239.835 63.03 239.88 68.0226 239.908L83.0061 239.949L97.9837 239.908C102.98 239.884 107.975 239.839 112.967 239.771C107.971 239.7 102.976 239.653 97.9837 239.629L83.0061 239.588L68.0226 239.629C63.0261 239.633 58.0316 239.681 53.0391 239.771Z" fill="#DBDBDB"/>
<path d="M53.0391 237.937C58.0355 238.005 63.03 238.05 68.0226 238.074L83.0061 238.115L97.9837 238.074C102.98 238.05 107.975 238.005 112.967 237.937C107.971 237.866 102.976 237.819 97.9837 237.795L83.0061 237.754L68.0226 237.795C63.0261 237.839 58.0316 237.886 53.0391 237.937Z" fill="#DBDBDB"/>
<path d="M53.0391 236.084C58.0355 236.151 63.03 236.196 68.0226 236.22L83.0061 236.262L97.9837 236.22C102.98 236.196 107.975 236.151 112.967 236.084C107.971 236.021 102.976 235.973 97.9837 235.942L83.0061 235.9L68.0226 235.948C63.0261 235.983 58.0316 236.029 53.0391 236.084Z" fill="#DBDBDB"/>
<path d="M107.793 253.855L103.329 249.143L98.8652 253.855V241.642L99.8184 239.771H108.746L107.793 241.642V253.855Z" fill="#FFC727"/>
<path d="M106.094 272.102H169.178V255.887H106.094V272.102Z" fill="#37474F"/>
<path d="M36.2201 272.102H106.088V255.887H36.2201V272.102Z" fill="#263238"/>
<path d="M108.012 270.42H169.178V257.574H108.012V270.42Z" fill="white"/>
<path d="M165.217 260.215C160.449 260.148 155.682 260.102 150.914 260.079L136.617 260.037L122.314 260.079C117.547 260.102 112.779 260.148 108.012 260.215C112.775 260.282 117.543 260.327 122.314 260.351L136.617 260.392L150.914 260.351C155.685 260.327 160.453 260.282 165.217 260.215Z" fill="#DBDBDB"/>
<path d="M165.217 262.725C160.449 262.661 155.682 262.614 150.914 262.582L136.617 262.541L122.314 262.582C117.547 262.606 112.779 262.653 108.012 262.725C112.775 262.792 117.543 262.837 122.314 262.861L136.617 262.902L150.914 262.861C155.685 262.845 160.453 262.8 165.217 262.725Z" fill="#DBDBDB"/>
<path d="M165.217 265.258C160.449 265.187 155.682 265.139 150.914 265.115L136.617 265.092L122.314 265.133C117.547 265.157 112.779 265.204 108.012 265.275C112.775 265.342 117.543 265.388 122.314 265.411L136.617 265.453L150.914 265.411C155.685 265.376 160.453 265.325 165.217 265.258Z" fill="#DBDBDB"/>
<path d="M165.217 267.773C160.449 267.71 155.682 267.665 150.914 267.637L136.617 267.596L122.314 267.637C117.547 267.661 112.779 267.706 108.012 267.773C112.775 267.844 117.543 267.892 122.314 267.915L136.617 267.957L150.914 267.915C155.685 267.892 160.453 267.844 165.217 267.773Z" fill="#DBDBDB"/>
<path d="M73.9545 232.953H133.711V220.64H73.9545V232.953Z" fill="#FFC727"/>
<path d="M39.8914 232.953H73.9551V220.64H39.8914V232.953Z" fill="#FFC727"/>
<path opacity="0.2" d="M39.8914 232.953H72.4336V220.64H39.8914V232.953Z" fill="black"/>
<path d="M73.9545 231.674H133.711V221.912H73.9545V231.674Z" fill="white"/>
<path d="M129.84 223.924C125.187 223.853 120.53 223.805 115.869 223.782L101.897 223.734L87.9263 223.782C83.2732 223.805 78.6161 223.853 73.9551 223.924C78.6121 223.995 83.2692 224.042 87.9263 224.066L101.897 224.113L115.869 224.066C120.53 224.042 125.187 223.995 129.84 223.924Z" fill="#DBDBDB"/>
<path d="M129.84 225.836C125.187 225.769 120.53 225.721 115.869 225.694L101.897 225.652L87.9263 225.694C83.2732 225.717 78.6161 225.765 73.9551 225.836C78.6121 225.907 83.2692 225.956 87.9263 225.984L101.897 226.025L115.869 225.984C120.53 225.956 125.187 225.907 129.84 225.836Z" fill="#DBDBDB"/>
<path d="M129.84 227.754C125.187 227.683 120.53 227.634 115.869 227.606L101.897 227.564L87.9263 227.606C83.2732 227.634 78.6161 227.683 73.9551 227.754C78.6121 227.825 83.2692 227.872 87.9263 227.896L101.897 227.943L115.869 227.896C120.53 227.872 125.187 227.825 129.84 227.754Z" fill="#DBDBDB"/>
<path d="M129.84 229.666C125.187 229.599 120.53 229.551 115.869 229.524L101.897 229.482L87.9263 229.524C83.2732 229.548 78.6161 229.595 73.9551 229.666C78.6121 229.737 83.2692 229.786 87.9263 229.814L101.897 229.855L115.869 229.814C120.53 229.786 125.187 229.737 129.84 229.666Z" fill="#DBDBDB"/>
<path d="M84.5454 237.019L87.4343 233.97L90.3233 237.019V229.122L89.7076 227.908H83.9297L84.5454 229.122V237.019Z" fill="#455A64"/>
<path d="M214.805 58.271V205.087H134.719V205.359C134.72 210.772 132.604 215.969 128.823 219.842C125.041 223.714 119.895 225.952 114.484 226.079H113.768C113.064 226.084 112.36 226.046 111.661 225.967L107.801 225.174C106.843 224.867 105.909 224.491 105.006 224.049C104.555 223.848 104.117 223.621 103.692 223.368C103.462 223.249 103.242 223.11 103.035 222.954C102.433 222.602 101.857 222.206 101.312 221.77C101.216 221.703 101.125 221.63 101.04 221.551C100.62 221.253 100.224 220.922 99.856 220.562C99.6666 220.396 99.4772 220.207 99.264 220.017C96.8774 217.667 95.1169 214.757 94.1432 211.552C94.1237 211.485 94.0958 211.422 94.0604 211.362C93.9242 210.871 93.788 210.35 93.6815 209.829C93.5139 209.173 93.403 208.503 93.35 207.828C93.2967 207.526 93.2967 207.236 93.2671 206.928C93.2556 206.828 93.2556 206.726 93.2671 206.626C93.2671 206.241 93.1842 205.886 93.1842 205.501V58.4841C93.1842 52.6766 89.129 37.7227 71.1914 37.7227H194.239C196.939 37.7203 199.612 38.2501 202.108 39.2817C204.603 40.3133 206.87 41.8265 208.78 43.7348C210.69 45.6432 212.205 47.9092 213.239 50.4034C214.273 52.8976 214.805 55.571 214.805 58.271Z" fill="white"/>
<path d="M214.804 58.2711C214.846 58.3599 214.911 205.129 214.94 205.223C214.97 205.318 134.778 205.259 134.748 205.3L134.961 205.087C134.963 207.311 134.64 209.522 134.002 211.652C132.989 214.843 131.232 217.746 128.876 220.124C126.52 222.502 123.632 224.285 120.451 225.328C117.606 226.218 114.609 226.522 111.642 226.221L107.753 225.428C106.658 225.091 105.596 224.655 104.58 224.126C101.265 222.5 98.4456 220.019 96.4119 216.938C94.3782 213.857 93.2045 210.289 93.0121 206.603C92.8759 205.206 92.9411 202.701 92.9292 201.275C92.9292 197.723 92.9292 187.884 92.9292 184.189C92.9588 146.769 93.0121 96.3663 93.0417 58.9045C93.0417 51.4157 88.9451 43.7849 82.1785 40.3217C78.7719 38.6618 75.0213 37.8302 71.2324 37.8945V37.5866C101.087 37.6577 165.804 37.5866 194.96 37.7346C205.871 38.001 214.858 47.3546 214.786 58.2711H214.804ZM214.804 58.2711C214.852 47.3961 205.889 38.0247 194.972 37.7938C166.106 37.7169 100.844 37.8885 71.2443 37.8767V37.5866C75.083 37.512 78.8848 38.3479 82.3383 40.0257C89.2174 43.5303 93.3673 51.2737 93.4147 58.8868C93.4561 96.3663 93.4975 146.734 93.5271 184.172C93.5271 187.872 93.5271 197.669 93.5271 201.257C93.5627 202.654 93.4443 205.194 93.6041 206.585C93.6583 207.579 93.783 208.568 93.9771 209.545C94.6011 212.561 95.8992 215.396 97.7743 217.839C99.6494 220.282 102.053 222.27 104.805 223.652C105.782 224.164 106.802 224.59 107.854 224.925L111.713 225.724C114.603 226.043 117.528 225.744 120.294 224.848C123.06 223.953 125.604 222.48 127.759 220.527C129.913 218.575 131.629 216.187 132.792 213.523C133.955 210.858 134.539 207.977 134.505 205.069V204.856H134.719L214.775 204.933C214.573 205.821 214.775 58.0461 214.775 58.2533L214.804 58.2711Z" fill="#263238"/>
<path d="M158.275 50.1367L201.248 50.1367V48.9586L158.275 48.9586V50.1367Z" fill="#DBDBDB"/>
<path d="M108.369 81.2754H151.342V80.0973H108.369V81.2754Z" fill="#DBDBDB"/>
<path d="M108.369 87.5098H151.342V86.3317H108.369V87.5098Z" fill="#DBDBDB"/>
<path d="M108.369 93.7383H151.342V92.5602H108.369V93.7383Z" fill="#DBDBDB"/>
<path d="M108.369 99.9648H151.342V98.7868H108.369V99.9648Z" fill="#DBDBDB"/>
<path d="M108.369 106.193H151.342V105.015H108.369V106.193Z" fill="#DBDBDB"/>
<path d="M108.369 112.422H151.342V111.244H108.369V112.422Z" fill="#DBDBDB"/>
<path d="M108.369 118.643H151.342V117.464H108.369V118.643Z" fill="#DBDBDB"/>
<path d="M108.369 124.871H151.342V123.693H108.369V124.871Z" fill="#DBDBDB"/>
<path d="M108.369 131.1H151.342V129.922H108.369V131.1Z" fill="#DBDBDB"/>
<path d="M108.369 137.332H151.342V136.154H108.369V137.332Z" fill="#DBDBDB"/>
<path d="M108.369 149.789H151.342V148.611H108.369V149.789Z" fill="#DBDBDB"/>
<path d="M108.369 156.016H151.342V154.838H108.369V156.016Z" fill="#DBDBDB"/>
<path d="M108.369 162.244H151.342V161.066H108.369V162.244Z" fill="#DBDBDB"/>
<path d="M108.369 168.473H151.342V167.295H108.369V168.473Z" fill="#DBDBDB"/>
<path d="M108.369 180.928H151.342V179.75H108.369V180.928Z" fill="#DBDBDB"/>
<path d="M108.369 187.156H151.342V185.978H108.369V187.156Z" fill="#DBDBDB"/>
<path d="M108.369 193.389H151.342V192.211H108.369V193.389Z" fill="#DBDBDB"/>
<path d="M158.275 56.3652L201.248 56.3652V55.1872L158.275 55.1872V56.3652Z" fill="#DBDBDB"/>
<path d="M158.275 62.5918L201.248 62.5918V61.4137L158.275 61.4137V62.5918Z" fill="#DBDBDB"/>
<path d="M158.275 68.8203H201.248V67.6422H158.275V68.8203Z" fill="#DBDBDB"/>
<path d="M158.275 75.0488H201.248V73.8707H158.275V75.0488Z" fill="#DBDBDB"/>
<path d="M158.275 81.2754H201.248V80.0973H158.275V81.2754Z" fill="#DBDBDB"/>
<path d="M158.275 87.5098H201.248V86.3317H158.275V87.5098Z" fill="#DBDBDB"/>
<path d="M158.275 93.7383H201.248V92.5602H158.275V93.7383Z" fill="#DBDBDB"/>
<path d="M158.275 99.9648H201.248V98.7868H158.275V99.9648Z" fill="#DBDBDB"/>
<path d="M158.275 106.193H201.248V105.015H158.275V106.193Z" fill="#DBDBDB"/>
<path d="M158.275 118.643H201.248V117.464H158.275V118.643Z" fill="#DBDBDB"/>
<path d="M158.275 124.871H201.248V123.693H158.275V124.871Z" fill="#DBDBDB"/>
<path d="M158.275 131.1H201.248V129.922H158.275V131.1Z" fill="#DBDBDB"/>
<path d="M158.275 137.332H201.248V136.154H158.275V137.332Z" fill="#DBDBDB"/>
<path d="M158.275 143.561H201.248V142.382H158.275V143.561Z" fill="#DBDBDB"/>
<path d="M158.275 149.789H201.248V148.611H158.275V149.789Z" fill="#DBDBDB"/>
<path d="M158.275 156.016H201.248V154.838H158.275V156.016Z" fill="#DBDBDB"/>
<path d="M158.275 162.244H201.248V161.066H158.275V162.244Z" fill="#DBDBDB"/>
<path d="M108.369 50.0845L129.859 50.0313C137.022 50.0313 144.179 50.0312 151.342 50.0845C144.179 50.1319 137.022 50.1201 129.859 50.1378L108.369 50.0845Z" fill="#DBDBDB"/>
<path d="M108.369 51.688L129.859 51.6348C137.022 51.6348 144.179 51.6348 151.342 51.688C144.179 51.7354 137.022 51.7236 129.859 51.7413L108.369 51.688Z" fill="#DBDBDB"/>
<path d="M108.369 53.2915L129.859 53.2441C137.022 53.2441 144.179 53.2441 151.342 53.2915C144.179 53.3389 137.022 53.327 129.859 53.3448L108.369 53.2915Z" fill="#DBDBDB"/>
<path d="M108.369 54.897L129.859 54.8496C137.022 54.8496 144.179 54.8496 151.342 54.897C144.179 54.9443 137.022 54.9325 129.859 54.9502L108.369 54.897Z" fill="#DBDBDB"/>
<path d="M108.369 56.5064L129.859 56.4531C137.022 56.4531 144.179 56.4531 151.342 56.5064C144.179 56.5478 137.022 56.5064 129.859 56.5538L108.369 56.5064Z" fill="#DBDBDB"/>
<path d="M108.369 58.1119L129.859 58.0586C137.022 58.0586 144.179 58.0586 151.342 58.1119C144.179 58.1533 137.022 58.1119 129.859 58.1652L108.369 58.1119Z" fill="#DBDBDB"/>
<path d="M108.369 59.7154L129.859 59.6621C137.022 59.6621 144.179 59.6621 151.342 59.7154C144.179 59.7568 137.022 59.7509 129.859 59.7687L108.369 59.7154Z" fill="#DBDBDB"/>
<path d="M108.369 61.3209L129.859 61.2676C137.022 61.2676 144.179 61.2676 151.342 61.3209C144.179 61.3682 137.022 61.3564 129.859 61.3741L108.369 61.3209Z" fill="#DBDBDB"/>
<path d="M108.369 62.9244L129.859 62.8711C137.022 62.8711 144.179 62.8711 151.342 62.9244C144.179 62.9717 137.022 62.9599 129.859 62.9776L108.369 62.9244Z" fill="#DBDBDB"/>
<path d="M108.369 64.5279L129.859 64.4746C137.022 64.4746 144.179 64.4746 151.342 64.5279C144.179 64.5752 137.022 64.5634 129.859 64.5812L108.369 64.5279Z" fill="#DBDBDB"/>
<path d="M108.369 66.1334L129.859 66.0801C137.022 66.0801 144.179 66.0801 151.342 66.1334C144.179 66.1807 137.022 66.1689 129.859 66.1866L108.369 66.1334Z" fill="#DBDBDB"/>
<path d="M108.369 67.7368L129.859 67.6895C137.022 67.6895 144.179 67.6894 151.342 67.7368C144.179 67.7842 137.022 67.7723 129.859 67.7901L108.369 67.7368Z" fill="#DBDBDB"/>
<path d="M108.369 69.3482L129.859 69.2949C137.022 69.2949 144.179 69.2949 151.342 69.3482C144.179 69.3896 137.022 69.3778 129.859 69.3956L108.369 69.3482Z" fill="#DBDBDB"/>
<path d="M108.369 70.9517L129.859 70.8984C137.022 70.8984 144.179 70.8984 151.342 70.9517C144.179 70.9932 137.022 70.9517 129.859 70.9991L108.369 70.9517Z" fill="#DBDBDB"/>
<path d="M108.369 72.5552L129.859 72.502C137.022 72.502 144.179 72.502 151.342 72.5552C144.179 72.5967 137.022 72.5552 129.859 72.6085L108.369 72.5552Z" fill="#DBDBDB"/>
<path d="M116.172 61.3203H112.916V74.4272H116.172V61.3203Z" fill="#FFC727"/>
<path d="M122.215 55.7734H118.959V74.4214H122.215V55.7734Z" fill="#263238"/>
<path d="M128.26 59.7695H125.004V74.4275H128.26V59.7695Z" fill="#DBDBDB"/>
<path d="M134.305 54.8965H131.049V74.4206H134.305V54.8965Z" fill="#FFC727"/>
<path d="M140.354 57.5195H137.098V74.427H140.354V57.5195Z" fill="#263238"/>
<path d="M146.399 67.0977H143.143V74.4266H146.399V67.0977Z" fill="#DBDBDB"/>
<path d="M109.535 48.959L109.624 55.323L109.689 61.6929C109.731 65.9375 109.742 70.1822 109.748 74.4268L109.535 74.2315H119.99H130.439L140.894 74.2907L151.342 74.4091L140.894 74.5215L130.439 74.5867H119.99H109.334V74.3913C109.334 70.1467 109.334 65.902 109.399 61.6574L109.458 55.2875L109.535 48.959Z" fill="#DBDBDB"/>
<path d="M116.172 75.7715H112.916V76.0438H116.172V75.7715Z" fill="#DBDBDB"/>
<path d="M122.215 75.7715H118.959V76.0438H122.215V75.7715Z" fill="#DBDBDB"/>
<path d="M128.26 75.7715H125.004V76.0438H128.26V75.7715Z" fill="#DBDBDB"/>
<path d="M134.305 75.7715H131.049V76.0438H134.305V75.7715Z" fill="#DBDBDB"/>
<path d="M140.354 75.7715H137.098V76.0438H140.354V75.7715Z" fill="#DBDBDB"/>
<path d="M146.399 75.7715H143.143V76.0438H146.399V75.7715Z" fill="#DBDBDB"/>
<path d="M180.339 177.031C180.338 179.069 179.739 181.061 178.615 182.76C177.49 184.459 175.891 185.789 174.016 186.586L169.961 177.031H180.339Z" fill="#FFC727"/>
<path d="M168.627 176.321L172.683 185.87C172.363 186 172.043 186.119 171.73 186.219C169.721 186.835 167.575 186.835 165.567 186.219C163.963 185.716 162.505 184.832 161.317 183.642C160.129 182.452 159.247 180.993 158.747 179.388C158.123 177.383 158.123 175.236 158.747 173.231C159.246 171.627 160.127 170.168 161.315 168.98C162.503 167.792 163.962 166.91 165.567 166.411C167.574 165.787 169.723 165.787 171.73 166.411C173.334 166.91 174.794 167.792 175.983 168.979C177.172 170.167 178.055 171.626 178.555 173.231C178.862 174.228 179.02 175.266 179.023 176.309L168.627 176.321Z" fill="#FFC727"/>
<path d="M168.628 176.322L172.683 185.871C172.363 186.001 172.043 186.12 171.73 186.22C169.642 186.87 167.403 186.844 165.332 186.146C163.26 185.448 161.462 184.114 160.193 182.333C158.925 180.553 158.251 178.417 158.268 176.231C158.285 174.045 158.991 171.921 160.287 170.16C161.583 168.399 163.402 167.093 165.484 166.427C167.566 165.761 169.805 165.769 171.882 166.451C173.959 167.133 175.768 168.453 177.05 170.224C178.332 171.994 179.023 174.124 179.023 176.31L168.628 176.322Z" fill="#DBDBDB"/>
<path d="M168.628 176.321L161.879 184.183C160.562 183.05 159.551 181.604 158.938 179.978C158.326 178.352 158.132 176.598 158.375 174.878C158.618 173.157 159.289 171.526 160.327 170.132C161.364 168.739 162.736 167.629 164.315 166.904C165.894 166.179 167.63 165.863 169.363 165.984C171.096 166.106 172.771 166.66 174.233 167.598C175.696 168.536 176.9 169.826 177.733 171.35C178.567 172.874 179.005 174.584 179.005 176.321H168.628Z" fill="#455A64"/>
<path d="M185.701 190.062H177.869L168.166 180.365L168.308 180.223L177.952 189.866H185.701V190.062Z" fill="#263238"/>
<path d="M168.783 179.744H167.693V180.833H168.783V179.744Z" fill="#263238"/>
<path d="M185.702 182.556H176.875L172.684 178.371L172.826 178.229L176.958 182.361H185.702V182.556Z" fill="#263238"/>
<path d="M173.298 177.754H172.209V178.843H173.298V177.754Z" fill="#263238"/>
<path d="M185.701 175.133H172.352V175.334H185.701V175.133Z" fill="#263238"/>
<path d="M172.749 174.688H171.66V175.777H172.749V174.688Z" fill="#263238"/>
<path d="M198.435 174.137H188.738V175.037H198.435V174.137Z" fill="#EBEBEB"/>
<path d="M201.324 176.02H188.738V176.919H201.324V176.02Z" fill="#EBEBEB"/>
<path d="M195.463 177.902H188.738V178.802H195.463V177.902Z" fill="#EBEBEB"/>
<path d="M186.796 174.137H184.605V176.327H186.796V174.137Z" fill="#455A64"/>
<path d="M199.613 181.426H188.738V182.326H199.613V181.426Z" fill="#EBEBEB"/>
<path d="M197.808 183.307H188.738V184.206H197.808V183.307Z" fill="#EBEBEB"/>
<path d="M201.324 185.195H188.738V186.095H201.324V185.195Z" fill="#EBEBEB"/>
<path d="M186.796 181.426H184.605V183.616H186.796V181.426Z" fill="#FFC727"/>
<path d="M199.613 188.713H188.738V189.613H199.613V188.713Z" fill="#EBEBEB"/>
<path d="M197.808 190.602H188.738V191.501H197.808V190.602Z" fill="#EBEBEB"/>
<path d="M201.324 192.484H188.738V193.384H201.324V192.484Z" fill="#EBEBEB"/>
<path d="M186.796 188.713H184.605V190.903H186.796V188.713Z" fill="#DBDBDB"/>
<path d="M72.7243 37.7285C78.2233 37.7364 83.4943 39.9267 87.3794 43.8185C91.2645 47.7102 93.4458 52.985 93.4443 58.484V67.4232H51.9688V58.484C51.968 55.7582 52.5043 53.0589 53.5471 50.5403C54.5899 48.0218 56.1187 45.7334 58.0462 43.8059C59.9736 41.8784 62.262 40.3496 64.7806 39.3069C67.2991 38.2641 69.9984 37.7277 72.7243 37.7285Z" fill="#DBDBDB"/>
<path d="M245.032 205.088V205.36C245.034 210.772 242.917 215.97 239.136 219.842C235.355 223.715 230.208 225.953 224.798 226.08H114.484C119.895 225.953 125.041 223.715 128.823 219.842C132.604 215.97 134.72 210.772 134.719 205.36V205.088H245.032Z" fill="#DBDBDB"/>
<path d="M32.793 280.012C106.923 279.645 190.076 279.645 264.206 280.012C190.076 280.373 106.923 280.373 32.793 280.012Z" fill="#263238"/>
<path d="M178.284 279.952C179.734 280.42 221.008 279.881 222.565 278.863C223.157 278.49 223.436 272.469 223.554 265.188V264.957C223.584 263.459 223.607 261.914 223.607 260.345C223.607 260.132 223.607 259.913 223.607 259.7L221.606 238.287L193.995 238.565L196.719 259.777L196.754 260.617L196.92 265.004V265.46C196.92 265.46 181.232 272.73 179.639 274.032C178.047 275.334 176.833 279.49 178.284 279.952Z" fill="#EB9481"/>
<path d="M178.284 279.952C179.734 280.419 221.008 279.88 222.565 278.862C223.157 278.489 223.436 272.469 223.554 265.187V264.956C223.584 263.458 223.607 261.913 223.607 260.344C223.607 260.131 223.607 259.912 223.607 259.699L196.719 259.776L196.754 260.617L196.92 265.004V265.459C196.92 265.459 181.232 272.729 179.639 274.032C178.047 275.334 176.833 279.49 178.284 279.952Z" fill="#EBEBEB"/>
<path d="M178.278 279.946C179.024 280.189 190.236 280.166 201.2 279.946C203.402 279.905 205.593 279.852 207.712 279.798C215.532 279.585 221.991 279.26 222.589 278.869C223.187 278.478 223.453 272.641 223.572 265.496C223.572 265.395 223.572 265.294 223.572 265.194C223.572 265.093 223.572 265.034 223.572 264.957H223.536L196.938 265.01V265.466C196.938 265.466 181.232 272.73 179.639 274.032C178.047 275.335 176.833 279.491 178.278 279.946Z" fill="#A6A6A6"/>
<path d="M178.727 278.347C185.683 278.081 213.761 277.684 220.658 277.957C220.712 277.957 220.717 277.998 220.658 278.004C213.767 278.413 185.689 278.596 178.733 278.46C178.585 278.454 178.585 278.347 178.727 278.347Z" fill="#263238"/>
<path d="M193.96 265.123C196.695 264.572 200.046 264.951 202.165 266.899C202.248 266.976 202.165 267.088 202.053 267.064C199.425 266.254 196.718 265.726 193.978 265.49C193.929 265.492 193.881 265.475 193.845 265.442C193.809 265.41 193.788 265.364 193.785 265.315C193.783 265.266 193.8 265.219 193.833 265.183C193.866 265.147 193.911 265.125 193.96 265.123Z" fill="#263238"/>
<path d="M191.999 266.336C194.728 265.791 198.085 266.17 200.204 268.112C200.287 268.183 200.204 268.301 200.086 268.272C197.461 267.46 194.755 266.934 192.017 266.703C191.968 266.705 191.921 266.688 191.884 266.656C191.848 266.623 191.827 266.577 191.824 266.528C191.822 266.48 191.839 266.432 191.872 266.396C191.905 266.36 191.95 266.338 191.999 266.336Z" fill="#263238"/>
<path d="M190.041 267.554C192.77 267.004 196.127 267.383 198.24 269.33C198.323 269.407 198.24 269.52 198.128 269.496C195.5 268.684 192.793 268.156 190.053 267.921C190.004 267.923 189.957 267.905 189.921 267.872C189.886 267.838 189.865 267.792 189.863 267.744C189.862 267.695 189.88 267.648 189.913 267.612C189.946 267.577 189.992 267.556 190.041 267.554Z" fill="#263238"/>
<path opacity="0.2" d="M201.188 279.941C203.39 279.899 205.58 279.846 207.7 279.793C215.52 279.579 221.979 279.254 222.576 278.863C223.174 278.472 223.441 272.635 223.559 265.49C223.559 265.389 223.559 265.289 223.559 265.188C223.559 265.087 223.559 265.028 223.559 264.951H223.524C219.883 267.509 207.042 276.057 201.188 279.941Z" fill="black"/>
<path d="M195.113 265.092H224.867C224.867 265.092 218.882 195.662 219.113 194.454C219.415 192.897 221.167 185.87 223.505 176.694C224.234 173.823 225.027 170.745 225.873 167.548C228.093 158.911 230.538 149.468 232.664 141.257C235.861 128.949 238.353 119.389 238.353 119.389H213.098C213.098 119.389 210.138 128.701 206.462 140.807C200.435 160.491 192.378 187.575 191.585 194.158C190.294 204.791 195.113 265.092 195.113 265.092Z" fill="#263238"/>
<path d="M196.451 260.026C200.992 259.931 199.689 259.895 204.23 259.854C206.45 259.854 221.055 259.706 223.127 260.049C223.136 260.053 223.144 260.059 223.149 260.067C223.155 260.075 223.158 260.084 223.158 260.094C223.158 260.103 223.155 260.113 223.149 260.121C223.144 260.129 223.136 260.135 223.127 260.138C221.049 260.482 206.45 260.357 204.23 260.334C199.689 260.292 200.992 260.257 196.451 260.162C196.436 260.157 196.424 260.148 196.414 260.136C196.405 260.124 196.4 260.109 196.4 260.094C196.4 260.078 196.405 260.064 196.414 260.051C196.424 260.039 196.436 260.03 196.451 260.026Z" fill="#37474F"/>
<path d="M213.496 190.216C214.467 185.918 215.923 181.709 217.19 177.488C219.771 168.916 222.364 160.349 224.969 151.789C226.271 147.507 227.577 143.229 228.888 138.955C229.557 136.794 230.22 134.633 230.895 132.478C231.569 130.323 232.309 128.275 232.907 126.15C233.15 125.285 233.28 125.759 232.973 126.86C232.345 129.074 231.723 131.294 231.078 133.508C229.799 137.885 228.511 142.262 227.212 146.639C224.639 155.357 222.04 164.057 219.416 172.74C218.105 177.105 216.793 181.466 215.479 185.823C214.815 187.896 214.279 190.007 213.875 192.146C213.523 194.385 213.433 196.658 213.608 198.918C213.892 203.465 214.419 208.005 214.84 212.534C215.26 217.063 215.686 221.627 216.106 226.15C216.943 235.196 217.772 244.246 218.593 253.299C218.699 254.44 218.798 255.586 218.889 256.739C218.918 257.124 218.646 257.171 218.605 256.804C217.628 247.853 216.562 238.801 215.728 229.838C214.893 220.876 214.052 212.007 213.218 203.086C213.01 200.848 212.773 198.604 212.768 196.355C212.782 194.288 213.026 192.229 213.496 190.216Z" fill="#37474F"/>
<path d="M215.988 119.389C217.764 132.922 221.068 158.289 223.501 176.694C229.184 154.394 238.301 119.389 238.301 119.389H215.988Z" fill="#37474F"/>
<path d="M209.772 280.349C211.222 280.822 252.496 280.438 254.059 279.425C254.651 279.046 254.953 273.032 255.095 265.75C255.095 265.673 255.095 265.596 255.095 265.519C255.131 264.021 255.154 262.476 255.16 260.908C255.16 260.694 255.16 260.481 255.16 260.262C255.255 249.754 254.497 238.85 254.497 238.85L227.52 239.027L228.272 260.239L228.301 261.079L228.449 265.472V265.922C228.449 265.922 212.714 273.138 211.115 274.435C209.517 275.731 208.327 279.893 209.772 280.349Z" fill="#EB9481"/>
<path d="M209.772 280.348C211.222 280.822 252.496 280.437 254.059 279.425C254.651 279.046 254.953 273.031 255.095 265.75C255.095 265.673 255.095 265.596 255.095 265.519C255.131 264.021 255.154 262.476 255.16 260.907C255.16 260.694 255.16 260.481 255.16 260.262H228.272L228.301 261.102L228.449 265.495V265.945C228.449 265.945 212.714 273.161 211.115 274.458C209.517 275.754 208.327 279.892 209.772 280.348Z" fill="#EBEBEB"/>
<path d="M209.772 280.348C211.222 280.821 252.497 280.436 254.06 279.424C254.652 279.045 254.954 273.031 255.096 265.749C255.096 265.672 255.096 265.595 255.096 265.518L228.456 265.471V265.921C228.456 265.921 212.72 273.137 211.122 274.434C209.523 275.73 208.328 279.892 209.772 280.348Z" fill="#A6A6A6"/>
<path d="M210.227 278.743C217.183 278.506 245.262 278.216 252.153 278.506C252.212 278.506 252.212 278.548 252.153 278.554C245.268 278.938 217.183 279.004 210.227 278.856C210.067 278.856 210.067 278.749 210.227 278.743Z" fill="#263238"/>
<path d="M225.508 265.579C228.237 265.04 231.593 265.431 233.701 267.355C233.784 267.432 233.701 267.544 233.588 267.515C230.963 266.696 228.258 266.16 225.519 265.916C225.48 265.91 225.443 265.891 225.417 265.861C225.39 265.831 225.375 265.792 225.373 265.752C225.372 265.712 225.384 265.673 225.409 265.641C225.434 265.609 225.468 265.587 225.508 265.579Z" fill="#263238"/>
<path d="M223.541 266.786C226.27 266.247 229.627 266.638 231.734 268.562C231.817 268.639 231.734 268.751 231.622 268.727C228.997 267.907 226.292 267.369 223.553 267.123C223.513 267.117 223.477 267.098 223.45 267.068C223.423 267.038 223.408 266.999 223.406 266.959C223.405 266.919 223.418 266.88 223.442 266.848C223.467 266.816 223.502 266.794 223.541 266.786Z" fill="#263238"/>
<path d="M221.576 267.994C224.305 267.461 227.661 267.846 229.769 269.77C229.852 269.841 229.769 269.96 229.656 269.93C227.032 269.108 224.327 268.572 221.587 268.332C221.551 268.321 221.52 268.3 221.497 268.27C221.474 268.241 221.46 268.205 221.459 268.167C221.458 268.13 221.468 268.093 221.489 268.062C221.51 268.031 221.54 268.007 221.576 267.994Z" fill="#263238"/>
<path d="M213.916 119.389C213.916 119.389 214.508 131.442 217.255 140.991C217.474 141.778 217.717 142.56 217.977 143.3C220.505 144.321 222.935 145.571 225.235 147.035C225.235 147.035 225.525 156.732 225.827 167.548C226.153 179.637 226.484 193.122 226.419 195.964C226.164 206.661 227.757 265.512 227.757 265.512L257.475 265.63C257.475 265.63 252.1 199.918 252.147 195.993C252.201 189.695 250.703 161.841 249.548 141.529C249.139 134.094 248.211 126.695 246.772 119.389H213.916Z" fill="#263238"/>
<path d="M228.762 260.249C233.303 260.172 231.995 260.13 236.535 260.107C238.761 260.107 253.36 260.03 255.438 260.379C255.479 260.379 255.479 260.462 255.438 260.474C253.36 260.805 238.755 260.616 236.535 260.586C231.995 260.521 233.297 260.492 228.762 260.379C228.745 260.379 228.729 260.372 228.716 260.36C228.704 260.348 228.697 260.331 228.697 260.314C228.697 260.297 228.704 260.28 228.716 260.268C228.729 260.256 228.745 260.249 228.762 260.249Z" fill="#37474F"/>
<path d="M245.748 123.698C246.293 140.274 246.873 156.85 247.613 173.426C248.353 190.002 252.266 249.587 253.267 258.834C253.267 258.893 253.178 258.917 253.166 258.834C251.005 242.382 249.798 218.039 248.732 201.487C247.666 184.935 246.956 168.335 246.364 151.759C246.05 142.382 245.802 133.004 245.523 123.627C245.535 123.556 245.742 123.568 245.748 123.698Z" fill="#37474F"/>
<path d="M216.741 142.585C219.696 143.82 222.539 145.309 225.236 147.037C225.259 147.048 225.276 147.069 225.284 147.093C225.291 147.118 225.289 147.144 225.277 147.167C225.266 147.19 225.245 147.207 225.221 147.214C225.196 147.222 225.17 147.22 225.147 147.208C222.282 145.817 219.351 144.479 216.569 142.928C216.523 142.905 216.489 142.865 216.473 142.817C216.457 142.769 216.46 142.716 216.483 142.671C216.506 142.625 216.546 142.59 216.594 142.574C216.642 142.558 216.695 142.562 216.741 142.585Z" fill="#37474F"/>
<path d="M216.579 132.36C216.774 133.413 217.029 134.461 217.26 135.509C217.491 136.557 217.633 137.498 217.893 138.469C218.102 139.412 218.582 140.274 219.273 140.95C219.657 141.311 220.084 141.63 220.498 141.956C220.717 142.134 220.96 142.305 221.191 142.489C221.191 142.347 221.137 142.205 221.108 142.063C221.037 141.66 220.972 141.257 220.907 140.879C220.753 139.985 220.611 139.103 220.474 138.203C220.208 136.427 219.959 134.68 219.598 132.946C219.598 132.932 219.604 132.918 219.614 132.908C219.624 132.898 219.637 132.892 219.651 132.892C219.666 132.892 219.679 132.898 219.689 132.908C219.699 132.918 219.705 132.932 219.705 132.946C220.143 134.668 220.622 136.368 221.001 138.102C221.191 138.955 221.854 143.152 221.883 143.43C221.913 143.708 221.943 144.022 221.954 144.354C221.993 144.666 221.993 144.982 221.954 145.295C221.949 145.309 221.939 145.321 221.926 145.329C221.913 145.338 221.899 145.342 221.883 145.342C221.868 145.342 221.853 145.338 221.841 145.329C221.828 145.321 221.818 145.309 221.812 145.295C221.684 145.004 221.595 144.697 221.546 144.383C221.469 144.081 221.398 143.791 221.345 143.472C221.345 143.365 221.309 143.252 221.297 143.14C220.883 142.885 220.498 142.548 220.113 142.276C219.728 142.003 219.267 141.684 218.876 141.346C218.145 140.728 217.619 139.902 217.366 138.978C217.114 137.988 216.949 136.978 216.875 135.959C216.739 134.775 216.644 133.591 216.472 132.407C216.455 132.312 216.579 132.289 216.579 132.36Z" fill="#37474F"/>
<path d="M226.319 87.3325C224.164 94.3891 218.327 109.006 212.703 111.012C206.031 113.422 187.182 101.765 180.842 95.2594C178.539 92.8914 188.538 82.6498 191.219 83.9581C193.901 85.2664 209.181 96.5499 210.063 96.0349C211.554 95.1646 214.704 91.6422 220.292 85.888C225.881 80.1338 227.355 83.9403 226.319 87.3325Z" fill="#EB9481"/>
<path d="M186.625 98.6517C188.549 98.9122 195.292 88.4575 194.321 86.717C192.784 83.4606 191.937 79.9212 191.835 76.3215C191.876 73.03 192.314 68.146 190.544 68.0335C187.963 67.8973 186.667 74.0068 186.14 77.5588C184.601 76.3748 183.18 75.469 182.132 75.2618C178.722 74.5632 173.678 89.4047 175.946 92.1279C178.136 94.7741 184.707 98.3853 186.625 98.6517Z" fill="#EB9481"/>
<path d="M181.585 87.9333L184.689 88.9902L189.333 75.3497L186.228 74.2928L181.585 87.9333Z" fill="#C7C7C7"/>
<path d="M177.584 97.0828L182.279 98.6812L186.393 86.5867L181.704 84.9883L177.584 97.0828Z" fill="#263238"/>
<path d="M187.181 77.4292C187.453 79.2052 185.186 78.5185 185.186 78.5185C185.186 78.5185 188.205 80.2945 187.773 82.2717C187.341 84.249 184.641 83.2071 184.446 83.142C184.606 83.2367 187.335 84.9594 186.702 86.8775C186.068 88.7956 183.481 87.4695 183.315 87.3629C183.44 87.4991 185.014 89.3521 184.197 90.7018C182.794 93.0165 178.645 88.3871 176.454 88.3634C176.454 88.3634 175.986 92.0693 175.945 92.17C175.945 92.17 171.908 87.8484 172.109 84.8943C172.131 84.4626 172.3 84.0515 172.587 83.7286C172.874 83.4057 173.263 83.1904 173.689 83.1183C173.689 83.1183 172.233 81.8692 172.683 80.3418C172.92 79.5604 174.382 79.2407 174.382 79.2407C174.07 78.942 173.845 78.5634 173.732 78.1459C173.619 77.7285 173.623 77.2882 173.743 76.8727C174.128 75.8071 175.519 75.6532 175.519 75.6532C175.519 75.6532 174.927 74.1436 175.655 73.1845C177.176 71.2191 186.589 73.5753 187.181 77.4292Z" fill="#EB9481"/>
<path d="M175.732 75.5689C175.696 75.5689 175.696 75.5156 175.732 75.5156C179.149 75.524 182.483 76.5707 185.293 78.5171C185.375 78.5822 185.293 78.7539 185.204 78.7006C182.216 77.2011 179.025 76.1461 175.732 75.5689Z" fill="#263238"/>
<path d="M174.341 79.2041C174.299 79.2041 174.341 79.1331 174.341 79.139C178.106 79.1802 181.732 80.5708 184.559 83.0581C184.659 83.1469 184.653 83.3245 184.559 83.2297C182.546 81.6254 177.437 79.6955 174.341 79.2041Z" fill="#263238"/>
<path d="M183.428 87.5865C180.64 85.183 177.36 83.9161 173.802 83.0992C173.755 83.0992 173.802 83.0222 173.802 83.0222C175.649 82.9512 177.863 83.7089 179.533 84.443C181.097 85.096 182.462 86.1471 183.493 87.4918C183.576 87.5451 183.511 87.6398 183.428 87.5865Z" fill="#263238"/>
<path d="M185.245 78.4766C185.351 78.5535 185.12 78.6186 185.245 78.7015C185.671 79.039 188.092 81.2945 187.577 82.3601C187.163 83.2066 185.736 83.2422 185.179 83.0409L183.788 82.5318L184.919 83.4967C185.427 83.917 185.861 84.4193 186.204 84.9826C186.383 85.2376 186.505 85.5281 186.563 85.8345C186.62 86.141 186.61 86.4562 186.535 86.7586C186.464 87.0332 186.302 87.2754 186.075 87.4454C185.848 87.6154 185.569 87.7031 185.286 87.694C184.653 87.6501 184.042 87.4464 183.51 87.102L181.994 86.214L183.131 87.546C183.448 87.9151 183.716 88.3229 183.93 88.7596C184.152 89.1665 184.247 89.6304 184.203 90.0916C184.17 90.2982 184.08 90.4915 183.943 90.6495C183.806 90.8075 183.627 90.9239 183.427 90.9855C182.965 91.0692 182.488 91.0178 182.054 90.8375C181.096 90.4685 180.169 90.023 179.283 89.5055C178.833 89.2569 178.377 89.0082 177.91 88.7833C177.456 88.531 176.953 88.3796 176.436 88.3393C176.94 88.4406 177.419 88.6419 177.845 88.9313C178.289 89.1858 178.721 89.4641 179.153 89.7423C180.011 90.3325 180.922 90.84 181.876 91.2578C182.392 91.4884 182.963 91.5664 183.522 91.4828C183.825 91.4072 184.099 91.2439 184.309 91.0133C184.52 90.7826 184.658 90.495 184.706 90.1863C184.775 89.6173 184.674 89.0405 184.416 88.5287C184.185 88.0377 183.893 87.5781 183.545 87.1612L183.167 87.6052C183.796 88.0179 184.523 88.2587 185.274 88.3038C185.691 88.3171 186.1 88.183 186.429 87.9249C186.746 87.6668 186.978 87.3177 187.092 86.9244C187.183 86.547 187.193 86.1546 187.122 85.7729C187.05 85.3913 186.899 85.0291 186.677 84.7103C186.29 84.0978 185.804 83.5537 185.239 83.1001L184.978 83.55C185.689 83.7868 187.293 83.923 188.098 82.6798C188.903 80.8919 185.831 78.814 185.245 78.4766Z" fill="#263238"/>
<path d="M185.203 78.4938C185.575 78.5339 185.95 78.5159 186.316 78.4405C186.463 78.4142 186.6 78.3493 186.713 78.2526C186.827 78.1558 186.912 78.0307 186.961 77.8899C187.026 77.5665 186.995 77.2312 186.873 76.925C186.749 76.5627 186.607 76.207 186.446 75.8594C186.769 76.1032 187.037 76.4117 187.234 76.7651C187.469 77.1474 187.545 77.6061 187.447 78.0439C187.368 78.2797 187.219 78.4861 187.021 78.6359C186.826 78.7627 186.601 78.8343 186.369 78.8431C185.953 78.8534 185.545 78.7311 185.203 78.4938Z" fill="#263238"/>
<path d="M195.966 85.877L183.848 100.985C183.848 100.985 203.656 115.477 213.187 111.836C215.383 110.996 222.843 101.743 226.62 88.3279C227.703 84.4858 226.401 77.5772 219.072 85.8356C211.743 94.094 210.156 95.4438 209.825 95.4615C209.493 95.4793 195.966 85.877 195.966 85.877Z" fill="#EBEBEB"/>
<path d="M188.353 102.665C189.135 101.427 190.1 100.297 190.999 99.1127C191.899 97.9287 192.775 96.8453 193.681 95.7205C195.499 93.4532 197.275 91.1207 199.24 88.9717C199.249 88.9599 199.262 88.9521 199.276 88.9499C199.29 88.9476 199.305 88.9512 199.317 88.9599C199.329 88.9685 199.337 88.9815 199.339 88.9959C199.341 89.0103 199.337 89.0251 199.329 89.0368C197.724 91.4936 195.86 93.7728 194.042 96.0994C193.131 97.2479 192.203 98.3885 191.26 99.5212C190.379 100.639 189.436 101.706 188.436 102.718C188.389 102.789 188.324 102.718 188.353 102.665Z" fill="#263238"/>
<path opacity="0.1" d="M226.645 88.3274C222.868 101.742 215.397 110.995 213.212 111.836C211.028 112.676 207.884 112.57 204.504 111.646C210.424 102.678 219.896 88.3452 224.318 81.9812C226.982 81.5727 227.367 85.7167 226.645 88.3274Z" fill="black"/>
<path d="M209.516 129.661L249.399 131.975C249.399 131.975 244.663 96.8639 231.989 83.3249C230.42 81.6554 226.536 81.6377 223.902 82.65C222.961 83.0111 219.574 87.4866 218.248 91.6662C216.922 95.8457 209.428 129.525 209.516 129.661Z" fill="#FFC727"/>
<path d="M225.289 91.938L224.324 89.0312L221.684 91.0559L221.956 93.1693L224.04 93.708L225.289 91.938Z" fill="#263238"/>
<path d="M224.039 93.7086L222.021 117.608L218.238 124.741L216.184 116.441L221.956 93.1699L224.039 93.7086Z" fill="#263238"/>
<path d="M230.467 82.4668C229.13 89.8431 228.249 97.2947 227.827 104.779C226.643 133.308 228.828 183.93 229.603 187.618C230.059 189.731 254.609 185.931 254.609 185.931C254.609 185.931 252.371 127.482 244.202 104.548C236.648 83.2838 230.467 82.4668 230.467 82.4668Z" fill="#EBEBEB"/>
<path d="M248.939 146.283C246.155 146.668 243.349 146.887 240.539 146.94C236.608 146.94 232.707 146.556 231.582 146.544C231.481 146.544 231.428 146.869 231.499 146.881C234.476 147.245 237.469 147.458 240.468 147.52C243.212 147.5 245.95 147.241 248.649 146.745C248.649 147.574 248.649 148.225 248.649 149.06C245.879 149.592 240.533 150.522 231.896 149.409C231.896 149.06 231.896 147.207 231.842 146.698C231.842 146.621 231.511 146.609 231.499 146.727C231.428 147.224 231.227 151.682 231.221 152.588C231.221 154.814 231.351 161.119 231.907 162.338C233.168 165.103 238.544 165.109 240.036 165.121C241.527 165.132 246.329 165.28 248.128 163.522C249.087 162.581 249.312 157.478 249.152 152.961C249.069 150.8 249.064 146.325 248.939 146.283ZM240.45 164.552C235.714 164.552 233.618 163.564 232.884 162.569C232.032 161.385 231.961 159.396 231.896 157.17C231.842 155.424 231.896 149.942 231.896 149.835C234.666 150.398 241.989 151.155 248.637 149.61C248.637 152.203 248.637 154.281 248.637 156.88C248.637 158.757 248.519 161.912 247.566 163.007C246.773 163.925 243.89 164.546 240.45 164.552Z" fill="#DBDBDB"/>
<path d="M223.203 82.6855C223.203 82.6855 216.981 104.732 216.301 108.142C215.62 111.551 210.381 182.177 209.132 184.705C208.717 185.557 193.994 180.348 193.994 180.348C193.994 180.348 216.194 95.1886 217.929 91.1156C220.575 84.9115 223.203 82.6855 223.203 82.6855Z" fill="#EBEBEB"/>
<path d="M234.577 85.9474C244.67 96.4199 253.201 112.179 252.094 120.787C250.993 129.294 248.151 128.056 247.322 127.891C242.237 126.843 233.937 102.695 231.563 92.5601C229.391 83.3071 232.078 83.3485 234.577 85.9474Z" fill="#EBEBEB"/>
<path d="M241.445 120.307C241.001 119.158 240.539 118.016 240.107 116.855L238.787 113.398C237.916 111.089 237.011 108.786 236.2 106.466C235.389 104.145 234.501 101.836 233.684 99.5097C233.269 98.3494 232.875 97.1831 232.5 96.011C232.097 94.827 231.748 93.643 231.387 92.459C231.876 94.8855 232.501 97.2829 233.257 99.6399C233.986 102.008 234.814 104.329 235.625 106.655C236.436 108.982 237.401 111.273 238.349 113.552C239.296 115.831 240.296 118.11 241.445 120.307Z" fill="#263238"/>
<path d="M232.155 95.491C231.998 95.0856 231.816 94.6902 231.61 94.307C231.51 94.1117 231.409 93.9163 231.296 93.715C231.195 93.5105 231.08 93.3127 230.953 93.123C230.995 93.5733 231.128 94.0103 231.344 94.4077C231.546 94.8151 231.821 95.1822 232.155 95.491Z" fill="#263238"/>
<path d="M223.849 92.3143L199.525 98.2168L207.209 129.882L231.533 123.979L223.849 92.3143Z" fill="#FFC727"/>
<path opacity="0.4" d="M223.849 92.3143L199.525 98.2168L207.209 129.882L231.533 123.979L223.849 92.3143Z" fill="black"/>
<path d="M217.163 92.1968L205.631 94.9824L206.475 98.4754L218.007 95.6898L217.163 92.1968Z" fill="#C7C7C7"/>
<path d="M214.55 92.8387L213.129 93.1762L212.739 91.5659L209.287 92.4006L209.678 94.0109L208.257 94.3542L207.547 91.4179L213.858 89.8965L214.55 92.8387Z" fill="#C7C7C7"/>
<path d="M248.902 127.813C245.125 128.636 240.135 126.037 227.081 117.986C225.275 116.867 229.715 102.002 231.705 103.103C234.209 104.477 243.639 110.349 244.273 110.87C249.63 115.227 251.465 127.257 248.902 127.813Z" fill="#EB9481"/>
<path d="M236.454 107.124C236.454 107.124 232.559 102.459 229.747 100.648C226.779 98.8399 223.417 97.7794 219.949 97.5573C216.208 97.3028 206.978 99.2682 207.079 102.027C207.174 104.519 216.504 102.027 216.504 102.027C216.504 102.027 206.576 102.992 207.239 105.976C207.902 108.959 218.57 105.461 218.57 105.461C218.57 105.461 208.387 106.68 209.559 109.646C210.442 111.89 220.286 109.267 220.286 109.267C220.286 109.267 211.537 110.374 212.348 112.718C213.248 115.311 222.483 113.458 222.483 113.458C225.549 119.077 229.427 120.426 232.215 121.119C232.896 121.273 236.454 107.124 236.454 107.124Z" fill="#EB9481"/>
<path d="M219.918 101.463C218.734 101.534 217.55 101.599 216.402 101.771C215.254 101.942 214.087 102.161 212.945 102.446C211.45 102.788 209.999 103.296 208.617 103.961C211.157 102.955 215.301 102.262 216.461 102.09C217.622 101.919 218.77 101.682 219.924 101.498L219.918 101.463Z" fill="#263238"/>
<path d="M220.629 105.643C219.137 105.797 217.669 105.898 216.165 106.117C214.661 106.336 213.306 106.679 211.844 106.999C211.731 106.999 211.784 107.076 211.897 107.052C213.371 106.792 214.75 106.661 216.218 106.419C217.687 106.176 219.178 105.868 220.635 105.679C220.658 105.673 220.647 105.637 220.629 105.643Z" fill="#263238"/>
<path d="M221.908 109.119C219.615 109.304 217.348 109.722 215.141 110.368C215.029 110.398 215.106 110.457 215.218 110.439C217.462 109.978 219.214 109.605 221.914 109.202C221.908 109.196 221.908 109.119 221.908 109.119Z" fill="#263238"/>
<path d="M236.305 105.158L232.812 123.273C232.812 123.273 246.819 130.91 249.578 127.613C251.845 124.895 249.241 115.335 245.671 111.688C244.185 110.167 236.305 105.158 236.305 105.158Z" fill="#EBEBEB"/>
<path d="M236.188 105.762L236.336 105.17H236.288C237.596 106.082 238.917 106.982 240.213 107.906C241.51 108.829 242.812 109.747 244.061 110.729C244.685 111.205 245.278 111.719 245.837 112.269C246.376 112.839 246.866 113.455 247.299 114.11C248.166 115.441 248.816 116.902 249.223 118.437C248.973 116.844 248.418 115.315 247.589 113.932C247.173 113.234 246.683 112.583 246.127 111.99C245.562 111.413 244.959 110.875 244.322 110.38C243.055 109.397 241.74 108.486 240.408 107.604C239.076 106.722 237.703 105.899 236.306 105.117H236.27V105.159L236.188 105.762Z" fill="#263238"/>
<path d="M239.509 109.336C239.278 110.23 239.118 111.148 238.917 112.054C238.715 112.959 238.573 113.871 238.419 114.783C238.106 116.6 237.798 118.424 237.519 120.253C237.442 120.75 237.366 121.253 237.3 121.751C237.235 122.248 237.223 122.834 237.146 123.367C237.149 123.373 237.154 123.378 237.16 123.382C237.165 123.386 237.172 123.388 237.179 123.388C237.186 123.388 237.193 123.386 237.199 123.382C237.204 123.378 237.209 123.373 237.212 123.367C237.294 122.923 237.442 122.485 237.537 122.041C237.632 121.597 237.721 121.117 237.81 120.655C237.975 119.744 238.135 118.838 238.295 117.926C238.609 116.109 238.887 114.285 239.171 112.45C239.319 111.42 239.491 110.378 239.58 109.342C239.603 109.289 239.52 109.277 239.509 109.336Z" fill="#263238"/>
<path d="M233.157 121.656C233.098 122.207 233.021 122.746 232.95 123.29L232.896 123.178C237.307 125.273 241.776 127.736 246.654 128.387C247.352 128.462 248.058 128.4 248.732 128.204C248.078 128.508 247.364 128.661 246.643 128.654C241.622 128.446 236.999 125.919 232.79 123.361L232.725 123.314C232.867 122.763 233.003 122.207 233.157 121.656Z" fill="#263238"/>
<path d="M224.744 89.2984C226.928 89.7661 230.581 86.3384 231.996 83.6389C232.091 83.4554 231.765 81.5136 231.481 79.1397C231.315 77.7012 231.161 76.0909 231.131 74.6168C231.131 74.3149 221.914 77.0736 221.914 77.0736C222.482 78.9098 222.824 80.8083 222.932 82.7272C222.932 82.9255 222.916 83.1234 222.885 83.3192C222.882 83.3527 222.882 83.3864 222.885 83.4199C222.707 84.592 222.636 88.8485 224.744 89.2984Z" fill="#EB9481"/>
<path d="M231.25 76.8664C228.029 81.9162 223.826 81.6024 222.855 81.49C222.666 79.9935 222.349 78.516 221.908 77.0736C221.908 77.0736 231.12 74.3149 231.126 74.6168C231.149 75.345 231.191 76.1087 231.25 76.8664Z" fill="#263238"/>
<path d="M233.339 63.2214C234.097 66.5721 231.664 75.9139 229.195 77.8497C225.59 80.6617 220.037 80.5433 217.74 76.2868C215.508 72.1428 218.895 60.0423 221.641 58.3196C225.661 55.7622 232.221 58.2486 233.339 63.2214Z" fill="#EB9481"/>
<path d="M223.642 68.8027C223.642 68.8027 223.683 68.8501 223.677 68.8738C223.494 69.4658 223.393 70.2413 223.908 70.5965C223.908 70.5965 223.908 70.6379 223.908 70.632C223.227 70.3538 223.369 69.3651 223.642 68.8027Z" fill="#263238"/>
<path d="M224.371 68.287C225.407 68.4705 224.963 70.5247 224.01 70.353C223.057 70.1814 223.507 68.139 224.371 68.287Z" fill="#263238"/>
<path d="M219.942 67.873C219.942 67.873 219.889 67.873 219.883 67.9204C219.765 68.5598 219.528 69.2761 218.906 69.359C218.906 69.359 218.906 69.3945 218.906 69.4004C219.628 69.4478 219.936 68.5006 219.942 67.873Z" fill="#263238"/>
<path d="M219.54 67.0919C218.533 66.7959 218.018 68.8265 218.948 69.0988C219.877 69.3711 220.363 67.3642 219.54 67.0919Z" fill="#263238"/>
<path d="M225.311 67.6255C225.036 67.5439 224.765 67.447 224.5 67.3354C224.2 67.2731 223.928 67.1152 223.725 66.8855C223.677 66.7996 223.659 66.7005 223.672 66.6032C223.686 66.5059 223.732 66.4158 223.802 66.3468C223.96 66.2314 224.145 66.1602 224.34 66.1404C224.534 66.1206 224.731 66.153 224.909 66.2343C225.294 66.3488 225.624 66.5991 225.838 66.9388C225.882 67.0193 225.901 67.1107 225.894 67.202C225.887 67.2934 225.854 67.3807 225.798 67.4533C225.742 67.526 225.666 67.581 225.58 67.6115C225.494 67.6421 225.4 67.6469 225.311 67.6255Z" fill="#A6A6A6"/>
<path d="M218.841 65.9562C219.123 66.0165 219.408 66.0619 219.694 66.0924C219.984 66.1903 220.298 66.1903 220.588 66.0924C220.671 66.0415 220.734 65.9644 220.769 65.8733C220.803 65.7822 220.806 65.6822 220.777 65.5892C220.695 65.4115 220.567 65.2593 220.405 65.1488C220.243 65.0383 220.055 64.9736 219.86 64.9617C219.458 64.8635 219.033 64.925 218.676 65.1334C218.608 65.1878 218.557 65.2596 218.528 65.341C218.499 65.4223 218.492 65.5102 218.509 65.595C218.526 65.6798 218.566 65.7583 218.625 65.822C218.683 65.8856 218.758 65.9321 218.841 65.9562Z" fill="#A6A6A6"/>
<path d="M223.146 74.604C222.962 74.7165 222.767 74.8941 222.554 74.8586C222.319 74.8059 222.099 74.7029 221.909 74.5566C221.909 74.5566 221.861 74.5566 221.873 74.5566C221.937 74.7014 222.039 74.8261 222.169 74.9178C222.298 75.0095 222.449 75.0647 222.607 75.0776C222.739 75.0669 222.865 75.0181 222.97 74.9372C223.076 74.8563 223.155 74.7468 223.199 74.6218C223.217 74.6099 223.175 74.5862 223.146 74.604Z" fill="#263238"/>
<path d="M222.885 72.557C222.669 72.7733 222.411 72.9431 222.127 73.0561C221.843 73.1691 221.539 73.2229 221.233 73.2141C220.966 73.2069 220.701 73.161 220.446 73.078C220.397 73.0683 220.349 73.0523 220.304 73.0306C220.257 73.0181 220.211 73.0002 220.168 72.9773C220.136 72.9644 220.109 72.941 220.092 72.9109C220.074 72.8808 220.068 72.8458 220.073 72.8116C220.07 72.7899 220.07 72.7681 220.073 72.7464V72.6932C220.162 72.2018 220.369 71.4677 220.369 71.4677C220.174 71.521 219.185 71.7341 219.238 71.4677C219.769 69.2741 220.521 67.1398 221.482 65.0978C221.488 65.0829 221.499 65.0708 221.513 65.0641C221.528 65.0574 221.544 65.0568 221.559 65.0623C221.574 65.0678 221.586 65.079 221.593 65.0934C221.599 65.1078 221.6 65.1243 221.595 65.1392C221.121 67.1698 220.286 69.0997 219.777 71.1362C220.132 71.0544 220.497 71.0225 220.86 71.0415C220.926 71.077 220.44 72.4564 220.416 72.6813C220.806 72.804 221.216 72.8478 221.623 72.8102C222.029 72.7726 222.424 72.6543 222.784 72.4623C222.891 72.4623 222.932 72.5156 222.885 72.557Z" fill="#263238"/>
<path d="M220.789 72.8943C220.982 73.3022 221.278 73.653 221.647 73.9125C221.852 74.0479 222.095 74.1162 222.34 74.1079C222.873 74.1079 222.985 73.6165 222.979 73.1962C222.973 72.9742 222.941 72.7538 222.885 72.5391C222.242 72.8789 221.508 73.0034 220.789 72.8943Z" fill="#263238"/>
<path d="M221.646 73.9128C221.852 74.0482 222.094 74.1165 222.339 74.1081C222.872 74.1081 222.984 73.6168 222.978 73.1965C222.708 73.1486 222.43 73.1932 222.188 73.3232C221.946 73.4532 221.756 73.6609 221.646 73.9128Z" fill="#FF9ABB"/>
<path d="M231.451 72.403C229.794 71.8643 230.54 67.5486 230.54 67.5486C230.54 67.5486 228.568 66.3646 228.604 62.3331C228.604 62.3331 226.455 65.9265 219.552 63.7894C219.563 62.4993 219.977 61.2448 220.736 60.2019C219.818 61.2929 218.99 62.4571 218.262 63.6828C218.262 63.6828 217.67 57.5083 223.027 56.3479C225.17 55.8862 228.172 56.6084 232.363 59.7223C232.363 59.7223 233.748 57.1235 234.216 57.5793C234.684 58.0351 233.186 60.4327 233.186 60.4327C233.186 60.4327 235.323 60.1723 235.589 60.6577C235.856 61.1431 233.772 61.2497 233.772 61.2497C234.623 61.7342 235.27 62.5088 235.596 63.4318C235.923 64.3548 235.905 65.3644 235.548 66.2758C234.459 69.4489 232.274 72.6931 231.451 72.403Z" fill="#A6A6A6"/>
<path d="M233.221 61.083C234.119 61.2143 234.939 61.6696 235.524 62.3632C236.11 63.0568 236.421 63.9406 236.4 64.8481C236.3 65.8963 235.964 66.9082 235.418 67.8081C234.856 68.7571 234.178 69.6322 233.399 70.4129C233.357 70.4603 233.292 70.3833 233.334 70.3419C234.025 69.6013 234.598 68.7587 235.033 67.8436C235.494 66.9923 235.818 66.0731 235.992 65.1204C236.113 64.2309 235.892 63.3286 235.375 62.5949C234.858 61.8613 234.082 61.3507 233.203 61.1659C233.156 61.1718 233.156 61.0712 233.221 61.083Z" fill="#A6A6A6"/>
<path d="M227.236 56.1165C228.39 56.6068 229.475 57.2456 230.463 58.0168C231.432 58.7079 232.277 59.5586 232.961 60.5328C232.997 60.5861 232.931 60.6453 232.89 60.598C231.291 58.9703 229.409 57.6464 227.337 56.6908C225.449 55.7613 223.092 55.3351 221.287 56.6908C221.287 56.6908 221.222 56.6908 221.245 56.6434C222.915 55.1693 225.312 55.3173 227.236 56.1165Z" fill="#A6A6A6"/>
<path d="M217.764 70.9162C216.728 70.6262 216.236 69.1402 216.669 67.5537C217.101 65.9671 218.297 64.9489 219.333 65.233C220.369 65.5172 220.86 67.009 220.428 68.5956C219.996 70.1822 218.824 71.1886 217.764 70.9162ZM219.232 65.5882C218.403 65.3633 217.456 66.2809 217.053 67.6366C216.651 68.9922 217.053 70.2828 217.87 70.5078C218.687 70.7327 219.646 69.821 220.049 68.4654C220.452 67.1097 220.079 65.831 219.256 65.5882H219.232Z" fill="#37474F"/>
<path d="M224.157 72.6922C223.574 72.5753 223.04 72.2853 222.624 71.8602C222.208 71.4351 221.929 70.8946 221.825 70.3091C221.721 69.7236 221.795 69.1202 222.039 68.5776C222.283 68.0351 222.684 67.5785 223.191 67.2674C223.698 66.9563 224.287 66.8051 224.881 66.8335C225.475 66.8619 226.046 67.0686 226.521 67.4266C226.996 67.7847 227.352 68.2775 227.543 68.8408C227.734 69.4041 227.75 70.0118 227.591 70.5847C227.412 71.318 226.951 71.9511 226.308 72.3459C225.665 72.7407 224.892 72.8652 224.157 72.6922ZM225.619 67.3642C225.136 67.1887 224.611 67.163 224.112 67.2906C223.614 67.4182 223.166 67.6931 222.826 68.0795C222.486 68.4658 222.271 68.9456 222.208 69.4561C222.145 69.9667 222.238 70.4843 222.474 70.9414C222.71 71.3985 223.078 71.7738 223.531 72.0183C223.984 72.2628 224.499 72.3651 225.011 72.3119C225.523 72.2586 226.006 72.0523 226.399 71.7199C226.792 71.3875 227.075 70.9444 227.212 70.4486C227.409 69.8284 227.352 69.1553 227.053 68.577C226.755 67.9988 226.239 67.5626 225.619 67.3642Z" fill="#37474F"/>
<path d="M222.499 68.8678C221.215 67.9798 220.439 68.2758 220.433 68.2758L220.285 67.9087C220.321 67.9087 221.244 67.5239 222.724 68.5481L222.499 68.8678Z" fill="#37474F"/>
<path d="M227.473 70.254L227.502 69.8633C227.763 69.8633 231.818 70.0705 232.457 70.2126C233.097 70.3546 234.441 71.6511 234.589 71.7991L234.34 72.101C233.784 71.5117 233.139 71.0142 232.428 70.627C231.877 70.4908 229.657 70.4494 227.473 70.254Z" fill="#37474F"/>
<path d="M229.977 71.7325C229.977 71.7325 232.398 68.8791 233.718 69.773C235.038 70.6669 233.008 74.9412 231.321 75.397C231.108 75.4693 230.883 75.4981 230.66 75.4815C230.436 75.4649 230.218 75.4034 230.018 75.3006C229.819 75.1979 229.642 75.0559 229.499 74.8833C229.355 74.7106 229.248 74.5109 229.184 74.2959L229.977 71.7325Z" fill="#EB9481"/>
<path d="M233.103 70.9824V71.0298C231.919 71.385 231.215 72.3855 230.694 73.4451C230.771 73.3368 230.87 73.2464 230.985 73.1802C231.1 73.1141 231.229 73.0737 231.361 73.0619C231.493 73.05 231.626 73.0671 231.751 73.1118C231.876 73.1565 231.99 73.2278 232.085 73.3208C232.115 73.3208 232.085 73.3919 232.05 73.38C231.855 73.2972 231.64 73.2767 231.433 73.3212C231.226 73.3657 231.038 73.4731 230.895 73.6287C230.657 73.8913 230.449 74.1792 230.274 74.4871C230.208 74.5818 230.031 74.4871 230.078 74.3983C230.197 72.9123 231.529 70.9824 233.103 70.9824Z" fill="#263238"/>
<path d="M222.933 82.8927L224.46 88.1734L231.973 82.6855L233.097 85.2607C233.097 85.2607 225.543 93.9868 225.573 93.5487L224.14 89.0969L220.725 91.5182L222.063 84.3313L222.933 82.8927Z" fill="#FFC727"/>
<path d="M221.144 87.9252C221.41 86.7412 221.641 85.5572 221.961 84.3732C221.961 84.3317 222.044 84.3258 222.044 84.3732C222.121 85.5572 221.091 90.0682 220.925 91.1634C221.067 91.0569 224.068 89.05 224.092 89.0914C224.435 89.8196 225.495 93.0578 225.554 93.3479C226.738 91.9626 231.753 86.5399 233.114 85.2612C233.15 85.2257 233.215 85.2612 233.179 85.3145C232.084 86.8063 225.596 93.9813 225.525 93.9458C224.943 92.4069 224.445 90.8378 224.033 89.2453C223.506 89.7012 220.433 92.0159 220.451 91.8383C220.611 90.5223 220.842 89.216 221.144 87.9252Z" fill="#263238"/>
<path d="M191.017 73.581C190.571 73.5588 190.129 73.4934 189.696 73.3857L189.389 73.3028L189.116 73.2199L188.927 73.1607L186.162 72.1484C186.413 72.2433 186.671 72.3224 186.932 72.3852C187.152 72.4386 187.376 72.4801 187.601 72.5095C187.808 72.5095 188.027 72.5628 188.252 72.5746C193.722 72.8884 199.151 67.3058 200.37 60.1426C201.311 54.5956 199.488 49.7175 196.096 47.6218C195.674 47.3609 195.225 47.1446 194.758 46.9766L197.529 47.977C197.647 48.0185 197.759 48.0658 197.878 48.1191L198.174 48.2494L198.31 48.3204L198.529 48.4329L198.653 48.5039C200.779 49.7294 202.318 52.0263 202.987 54.8975C203.022 55.0455 203.052 55.1935 203.081 55.3415C203.448 57.2532 203.458 59.216 203.111 61.1313C201.915 68.3122 196.487 73.877 191.017 73.581Z" fill="#37474F"/>
<path d="M178.84 58.8929C177.597 66.2041 180.462 72.5089 185.423 74.3323L188.188 75.3387C183.227 73.5627 180.368 67.2105 181.605 59.8993C183.044 51.4633 189.413 44.9158 195.813 45.2769C196.334 45.3077 196.851 45.3849 197.358 45.5078C197.661 45.5777 197.96 45.6667 198.252 45.7742L195.487 44.7737C194.704 44.4877 193.882 44.3201 193.048 44.2764C186.643 43.9094 180.273 50.4628 178.84 58.8929Z" fill="#37474F"/>
<path d="M204.852 61.2142C206.102 53.8794 203.213 47.5272 198.228 45.7571L197.891 45.6446H197.796C197.66 45.6032 197.523 45.5677 197.381 45.5381C197.133 45.4789 196.884 45.4256 196.63 45.3901C196.375 45.3546 196.109 45.325 195.842 45.3072C189.425 44.9461 183.055 51.4995 181.634 59.9296C181.201 62.3508 181.253 64.8341 181.788 67.2349C181.863 67.5704 181.952 67.9019 182.055 68.2294C182.155 68.555 182.262 68.8688 182.386 69.1826C182.498 69.489 182.627 69.7894 182.771 70.0824C182.836 70.2304 182.907 70.3725 182.984 70.5205C183.201 70.9292 183.442 71.3246 183.706 71.7045C183.878 71.959 184.061 72.2018 184.251 72.4386C185.076 73.4842 186.118 74.3386 187.306 74.9427C187.39 74.989 187.477 75.0305 187.566 75.067L187.998 75.2565H188.034C188.386 75.3984 188.748 75.5132 189.117 75.5998C189.624 75.7203 190.142 75.7955 190.662 75.8248C197.044 76.2037 203.426 69.6562 204.852 61.2142ZM191.017 73.5811C190.572 73.5589 190.13 73.4934 189.697 73.3858L189.389 73.3029L189.117 73.22C188.586 73.0438 188.077 72.8053 187.602 72.5096C184.203 70.4198 182.38 65.5418 183.321 59.9947C184.541 52.8078 189.975 47.2253 195.446 47.5627C195.665 47.5627 195.884 47.5982 196.097 47.6278C196.32 47.6573 196.541 47.6988 196.76 47.7522C197.02 47.8158 197.277 47.8928 197.529 47.983C197.648 48.0245 197.76 48.0718 197.879 48.1251L198.175 48.2554L198.311 48.3264L198.53 48.4389L198.654 48.5099C200.779 49.7354 202.319 52.0323 202.988 54.9035C203.023 55.0515 203.053 55.1995 203.082 55.3475C203.449 57.2592 203.459 59.222 203.112 61.1373C201.916 68.3123 196.487 73.8771 191.017 73.5811Z" fill="#455A64"/>
<path opacity="0.4" d="M188.252 72.5734C188.027 72.5734 187.808 72.5379 187.601 72.5083C184.203 70.4185 182.38 65.5404 183.321 59.9934C184.54 52.8065 189.975 47.224 195.445 47.5614C195.664 47.5614 195.883 47.5969 196.096 47.6265C199.488 49.7222 201.312 54.6003 200.37 60.1473C199.151 67.3046 193.722 72.8872 188.252 72.5734Z" fill="white"/>
<g opacity="0.3">
<path d="M199.844 52.5632L184.523 55.9435C184.882 55.0941 185.308 54.2746 185.796 53.4927L198.95 50.5859C199.313 51.2141 199.612 51.8764 199.844 52.5632Z" fill="#EBEBEB"/>
<path d="M197.174 48.4199L188.43 50.3498C190.502 48.4732 192.97 47.3898 195.445 47.5438C195.664 47.5438 195.883 47.5793 196.096 47.6089C196.479 47.846 196.84 48.1175 197.174 48.4199Z" fill="#EBEBEB"/>
<path d="M200.293 54.1141L183.854 57.7431C183.972 57.3524 184.108 56.9616 184.25 56.5591L200.033 53.0781C200.134 53.4274 200.222 53.7471 200.293 54.1141Z" fill="#EBEBEB"/>
<path d="M196.753 68.1992C196.368 68.6753 195.953 69.1262 195.51 69.549L186.387 71.5618C186.087 71.289 185.81 70.992 185.559 70.6738L196.753 68.1992Z" fill="#EBEBEB"/>
<path d="M199.181 64.1618L183.836 67.5481C183.362 66.1675 183.106 64.7214 183.078 63.262L200.471 59.4199C200.441 59.6508 200.406 59.8817 200.37 60.1185C200.133 61.5081 199.734 62.8651 199.181 64.1618Z" fill="#EBEBEB"/>
</g>
<path d="M264.206 50.9488C264.206 53.2114 263.578 55.4295 262.391 57.3558C261.204 59.282 259.505 60.8407 257.484 61.858C255.463 62.8753 253.199 63.3111 250.945 63.1169C248.691 62.9227 246.535 62.1061 244.718 60.7582L238.732 62.2856L241.225 56.709C240.349 55.0718 239.858 53.2565 239.789 51.4011C239.72 49.5457 240.075 47.6989 240.827 46.0013C241.579 44.3036 242.708 42.7998 244.128 41.6041C245.549 40.4083 247.223 39.5522 249.024 39.1008C250.825 38.6494 252.705 38.6146 254.522 38.999C256.338 39.3834 258.043 40.1769 259.507 41.3192C260.971 42.4615 262.155 43.9225 262.969 45.5911C263.783 47.2597 264.206 49.0921 264.206 50.9488Z" fill="white"/>
<path d="M264.207 50.9494C264.319 57.9883 257.932 63.8727 250.928 63.2571C248.641 63.0842 246.447 62.2764 244.594 60.9246L244.772 60.9601L238.798 62.5348L238.277 62.671L238.496 62.1796L240.965 56.5971V56.8457C239.623 54.3244 239.189 51.4177 239.738 48.6146C240.287 45.8114 241.784 43.2827 243.978 41.4537C252 34.8351 264.195 40.5657 264.195 50.9612L264.207 50.9494ZM264.207 50.9494C264.242 43.1468 256.606 37.1972 249.064 39.2692C241.652 41.1044 237.816 49.8838 241.474 56.5793L241.545 56.7036L241.486 56.8279L238.97 62.3868L238.668 62.0316L244.665 60.5516H244.766L244.843 60.6108C252.775 66.6196 264.16 60.9009 264.207 50.9731V50.9494Z" fill="#263238"/>
<path d="M250.017 58.2192L244.541 52.6781L246.382 50.8607L249.579 54.0989L256.221 43.6797L258.4 45.0709L250.017 58.2192Z" fill="#FFC727"/>
</svg>
