<svg width="1120" height="298" viewBox="0 0 1120 298" fill="none" xmlns="http://www.w3.org/2000/svg">
<g opacity="0.36">
<path fill-rule="evenodd" clip-rule="evenodd" d="M536.869 14.7178L497.811 124.53L458.563 14.7178H435.811L485.297 146.759H510.324L560 14.7178H536.869ZM457.154 16.7178H438.696L486.683 144.759H508.94L557.111 16.7178H538.28L497.815 130.486L457.154 16.7178Z" fill="#4A51F8"/>
<path fill-rule="evenodd" clip-rule="evenodd" d="M351.057 114.651C350.678 119.084 348.592 122.82 344.8 125.86C340.882 128.773 336.015 130.23 330.201 130.23C324.134 130.23 319.457 129.09 316.17 126.81C312.757 124.404 311.051 121.364 311.051 117.691C311.051 113.764 312.947 110.851 316.739 108.951C320.405 107.052 326.282 104.962 334.372 102.682C342.209 100.529 348.592 98.4388 353.522 96.4123C358.452 94.3857 362.749 91.2826 366.415 87.1029C369.954 82.9232 371.724 77.4136 371.724 70.574C371.724 65.0011 370.08 59.9347 366.794 55.375C363.508 50.6887 358.831 47.0156 352.763 44.3558C346.57 41.696 339.491 40.3661 331.528 40.3661C319.646 40.3661 310.103 43.4059 302.898 49.4854C296.044 55.0509 292.173 62.5537 291.285 71.9938C291.223 72.6511 291.176 73.3177 291.143 73.9938H312.757C313.137 69.3074 315.033 65.571 318.446 62.7845C321.858 59.9981 326.472 58.6048 332.286 58.6048C337.975 58.6048 342.335 59.6814 345.369 61.8346C348.403 63.9878 349.919 66.8376 349.919 70.384C349.919 73.1705 348.908 75.5137 346.886 77.4136C344.863 79.3134 342.399 80.8333 339.491 81.9732C336.584 82.9865 332.286 84.3164 326.598 85.963C319.014 87.9895 312.821 90.0794 308.017 92.2326C303.088 94.2591 298.853 97.2989 295.314 101.352C291.775 105.405 289.942 110.788 289.816 117.501C289.816 123.454 291.459 128.773 294.745 133.46C298.032 138.146 302.709 141.819 308.776 144.479C314.717 147.139 321.732 148.469 329.822 148.469C338.038 148.469 345.432 147.012 352.005 144.099C358.452 141.059 363.571 137.006 367.363 131.94C370.752 127.299 372.727 122.203 373.29 116.651C373.356 115.991 373.403 115.324 373.43 114.651H351.057ZM333.83 100.757C325.722 103.042 319.686 105.174 315.83 107.17C313.693 108.243 311.975 109.661 310.797 111.47C309.611 113.292 309.051 115.392 309.051 117.691C309.051 122.111 311.158 125.723 315.018 128.445L315.024 128.449L315.03 128.454C318.784 131.057 323.924 132.23 330.201 132.23C336.361 132.23 341.668 130.681 345.993 127.465L346.023 127.444L346.051 127.421C349.71 124.488 352 120.884 352.8 116.651H371.279C370.726 121.763 368.891 126.453 365.754 130.751C362.187 135.514 357.348 139.365 351.173 142.28C344.895 145.059 337.789 146.469 329.822 146.469C321.947 146.469 315.222 145.174 309.593 142.654L309.586 142.65L309.579 142.647C303.793 140.111 299.428 136.653 296.383 132.311C293.346 127.981 291.819 123.072 291.816 117.521C291.938 111.167 293.665 106.281 296.821 102.667C300.158 98.8456 304.138 95.9898 308.778 94.0823L308.807 94.0704L308.836 94.0576C313.506 91.9637 319.589 89.9061 327.115 87.8952L327.135 87.8898L327.155 87.8841C332.852 86.2349 337.191 84.8931 340.15 83.8618L340.186 83.8492L340.221 83.8352C343.336 82.614 346.026 80.9658 348.255 78.8712C350.682 76.5915 351.919 73.72 351.919 70.384C351.919 66.153 350.058 62.7102 346.527 60.2037C343.019 57.7139 338.184 56.6048 332.286 56.6048C326.159 56.6048 321.051 58.0755 317.181 61.2353C313.782 64.0098 311.724 67.6328 310.991 71.9938H293.294C294.169 63.124 297.809 56.1944 304.159 51.0381L304.174 51.0262L304.188 51.014C310.946 45.3114 319.992 42.3661 331.528 42.3661C339.265 42.3661 346.065 43.6573 351.967 46.1903C357.749 48.7263 362.113 52.1831 365.157 56.5234L365.164 56.534L365.172 56.5445C368.215 60.7668 369.724 65.4247 369.724 70.574C369.724 77.054 368.056 82.0631 364.9 85.7972C361.431 89.7486 357.388 92.6605 352.761 94.5625C347.935 96.5466 341.637 98.6117 333.842 100.753L333.83 100.757Z" fill="#4A51F8"/>
<path fill-rule="evenodd" clip-rule="evenodd" d="M47.5901 59.1748C39.5004 59.1748 33.1172 61.7079 28.4404 66.7743C23.7635 71.7139 21.425 78.8701 21.425 88.2428V146.759H0V85.013C0 75.5137 1.83282 67.4076 5.49847 60.6947C9.16412 53.9818 14.2834 48.9155 20.8563 45.4957C27.3027 42.0759 34.634 40.3661 42.8501 40.3661C49.0437 40.3661 54.9214 41.5693 60.4831 43.9758C64.9416 45.9498 68.7621 48.563 71.9448 51.8154C72.6421 52.528 73.3088 53.2712 73.9448 54.0451V42.0759H95.5594V146.759H73.9448V88.2428C73.9448 78.8701 71.6064 71.7139 66.9296 66.7743C62.1263 61.7079 55.6798 59.1748 47.5901 59.1748ZM21.7935 47.2625L21.7864 47.2662L21.7794 47.2699C15.5706 50.5003 10.7357 55.2769 7.25385 61.6532C3.78308 68.0092 2 75.7688 2 85.013V144.759H19.425V88.2428C19.425 78.5604 21.8417 70.8413 26.9783 65.4095C32.0992 59.8667 39.0519 57.1748 47.5901 57.1748C56.1336 57.1748 63.1393 59.8694 68.381 65.3982L68.3819 65.3992C73.5252 70.8315 75.9448 78.5543 75.9448 88.2428V144.759H93.5594V44.0759H75.9448V59.6285L72.3997 55.315C69.0733 51.2676 64.8469 48.0965 59.6811 45.808C54.3781 43.5147 48.7738 42.3661 42.8501 42.3661C34.9191 42.3661 27.9166 44.0143 21.7935 47.2625Z" fill="#4A51F8"/>
<path fill-rule="evenodd" clip-rule="evenodd" d="M171.153 131.66C165.26 131.66 159.747 130.248 154.646 127.425C149.361 124.571 145.122 120.302 141.923 114.692C138.681 109.006 137.11 102.187 137.11 94.3224C137.11 86.4779 138.61 79.7273 141.721 74.166C144.79 68.5537 148.902 64.2757 154.068 61.4149C159.172 58.5886 164.688 57.1748 170.584 57.1748C176.48 57.1748 181.997 58.5886 187.1 61.4149L187.11 61.4204L187.12 61.426C192.166 64.2959 196.15 68.5844 199.087 74.2002C202.058 79.7536 203.489 86.4913 203.489 94.3224C203.489 105.923 200.559 115.207 194.432 121.892L194.417 121.908L194.403 121.923C188.195 128.413 180.398 131.66 171.153 131.66ZM201.489 94.3224C201.489 105.595 198.645 114.334 192.957 120.541C187.143 126.62 179.875 129.66 171.153 129.66C165.591 129.66 160.409 128.33 155.606 125.67C150.676 123.01 146.694 119.021 143.661 113.701C140.627 108.381 139.11 101.922 139.11 94.3224C139.11 86.7229 140.564 80.3267 143.471 75.1337C146.378 69.8141 150.233 65.8243 155.037 63.1645C159.84 60.5047 165.022 59.1748 170.584 59.1748C176.146 59.1748 181.328 60.5047 186.131 63.1645C190.808 65.8243 194.537 69.8141 197.318 75.1337C200.099 80.3267 201.489 86.7229 201.489 94.3224Z" fill="#4A51F8"/>
<path fill-rule="evenodd" clip-rule="evenodd" d="M216.657 122.82C212.107 130.927 205.85 137.26 197.887 141.819C189.923 146.252 181.012 148.469 171.153 148.469C161.167 148.469 152.066 146.252 143.85 141.819C135.508 137.26 128.935 130.863 124.132 122.631C119.328 114.398 116.927 104.962 116.927 94.3224C116.927 83.6831 119.265 74.2471 123.942 66.0143C128.619 57.7815 135.002 51.4486 143.092 47.0156C151.181 42.5826 160.219 40.3661 170.205 40.3661C180.191 40.3661 189.228 42.5826 197.318 47.0156C205.408 51.4486 211.791 57.7815 216.468 66.0143C221.145 74.2471 223.483 83.6831 223.483 94.3224C223.483 105.088 221.208 114.588 216.657 122.82ZM171.153 146.469C180.696 146.469 189.264 144.328 196.904 140.078C204.541 135.702 210.535 129.637 214.909 121.85C219.272 113.955 221.483 104.798 221.483 94.3224C221.483 83.9858 219.214 74.898 214.729 67.0022C210.23 59.083 204.112 53.0194 196.357 48.7695C188.586 44.5111 179.883 42.3661 170.205 42.3661C160.527 42.3661 151.824 44.5111 144.053 48.7695C136.297 53.0194 130.18 59.083 125.681 67.0022C121.196 74.898 118.927 83.9858 118.927 94.3224C118.927 104.65 121.254 113.73 125.859 121.623C130.478 129.54 136.784 135.677 144.804 140.061C152.707 144.325 161.477 146.469 171.153 146.469Z" fill="#4A51F8"/>
<path fill-rule="evenodd" clip-rule="evenodd" d="M406.738 28.2069C410.656 28.2069 413.943 26.877 416.597 24.2171C419.252 21.5573 420.579 18.2642 420.579 14.3378C420.579 10.4114 419.252 7.1183 416.597 4.45849C413.943 1.79866 410.656 0.46875 406.738 0.46875C402.946 0.46875 399.723 1.79866 397.068 4.45849C394.414 7.1183 393.087 10.4114 393.087 14.3378C393.087 18.2642 394.414 21.5573 397.068 24.2171C399.723 26.877 402.946 28.2069 406.738 28.2069ZM406.738 26.2069C410.151 26.2069 412.92 25.0707 415.182 22.8044C417.443 20.5378 418.579 17.761 418.579 14.3378C418.579 10.9147 417.443 8.13778 415.182 5.87126C412.92 3.60495 410.151 2.46875 406.738 2.46875C403.471 2.46875 400.759 3.59123 398.484 5.87126C396.222 8.13779 395.087 10.9147 395.087 14.3378C395.087 17.761 396.222 20.5378 398.484 22.8044C400.759 25.0844 403.471 26.2069 406.738 26.2069Z" fill="#4A51F8"/>
<path fill-rule="evenodd" clip-rule="evenodd" d="M396.12 42.0759V146.759H417.735V42.0759H396.12ZM398.12 44.0759V144.759H415.735V44.0759H398.12Z" fill="#4A51F8"/>
<path fill-rule="evenodd" clip-rule="evenodd" d="M255.464 28.2069C259.382 28.2069 262.668 26.877 265.323 24.2171C267.977 21.5573 269.305 18.2642 269.305 14.3378C269.305 10.4114 267.977 7.1183 265.323 4.45849C262.668 1.79866 259.382 0.46875 255.464 0.46875C251.672 0.46875 248.448 1.79866 245.794 4.45849C243.139 7.1183 241.812 10.4114 241.812 14.3378C241.812 18.2642 243.139 21.5573 245.794 24.2171C248.448 26.877 251.672 28.2069 255.464 28.2069ZM255.464 26.2069C258.876 26.2069 261.646 25.0707 263.907 22.8044C266.169 20.5378 267.305 17.761 267.305 14.3378C267.305 10.9147 266.169 8.13778 263.907 5.87126C261.646 3.60495 258.876 2.46875 255.464 2.46875C252.197 2.46875 249.485 3.59123 247.21 5.87126C244.948 8.13778 243.812 10.9147 243.812 14.3378C243.812 17.761 244.948 20.5378 247.21 22.8044C249.485 25.0844 252.197 26.2069 255.464 26.2069Z" fill="#4A51F8"/>
<path fill-rule="evenodd" clip-rule="evenodd" d="M244.846 42.0759V146.759H266.461V42.0759H244.846ZM246.846 44.0759V144.759H264.461V44.0759H246.846Z" fill="#4A51F8"/>
<path fill-rule="evenodd" clip-rule="evenodd" d="M583.131 163.718L622.189 273.53L661.437 163.718H684.189L634.703 295.759H609.676L560 163.718H583.131ZM662.846 165.718H681.304L633.317 293.759H611.06L562.889 165.718H581.72L622.185 279.486L662.846 165.718Z" fill="#4A51F8"/>
<path fill-rule="evenodd" clip-rule="evenodd" d="M768.943 263.651C769.322 268.084 771.408 271.82 775.2 274.86C779.118 277.773 783.985 279.23 789.799 279.23C795.866 279.23 800.543 278.09 803.83 275.81C807.243 273.404 808.949 270.364 808.949 266.691C808.949 262.764 807.053 259.851 803.261 257.951C799.595 256.052 793.718 253.962 785.628 251.682C777.791 249.529 771.408 247.439 766.478 245.412C761.548 243.386 757.251 240.283 753.585 236.103C750.046 231.923 748.276 226.414 748.276 219.574C748.276 214.001 749.92 208.935 753.206 204.375C756.492 199.689 761.169 196.016 767.237 193.356C773.43 190.696 780.509 189.366 788.472 189.366C800.354 189.366 809.897 192.406 817.102 198.485C823.956 204.051 827.827 211.554 828.715 220.994C828.777 221.651 828.824 222.318 828.857 222.994H807.243C806.863 218.307 804.967 214.571 801.554 211.785C798.142 208.998 793.528 207.605 787.714 207.605C782.025 207.605 777.665 208.681 774.631 210.835C771.597 212.988 770.081 215.838 770.081 219.384C770.081 222.171 771.092 224.514 773.114 226.414C775.137 228.313 777.601 229.833 780.509 230.973C783.416 231.987 787.714 233.316 793.402 234.963C800.986 236.99 807.179 239.079 811.983 241.233C816.912 243.259 821.147 246.299 824.686 250.352C828.225 254.405 830.058 259.788 830.184 266.501C830.184 272.454 828.541 277.773 825.255 282.46C821.968 287.146 817.291 290.819 811.224 293.479C805.283 296.139 798.268 297.469 790.178 297.469C781.962 297.469 774.568 296.012 767.995 293.099C761.548 290.059 756.429 286.006 752.637 280.94C749.248 276.299 747.273 271.203 746.71 265.651C746.644 264.991 746.597 264.324 746.57 263.651H768.943ZM786.17 249.757C794.278 252.042 800.314 254.173 804.17 256.17C806.307 257.243 808.025 258.661 809.203 260.47C810.389 262.292 810.949 264.392 810.949 266.691C810.949 271.111 808.842 274.723 804.982 277.445L804.976 277.449L804.97 277.454C801.216 280.057 796.076 281.23 789.799 281.23C783.639 281.23 778.332 279.681 774.007 276.465L773.977 276.444L773.949 276.421C770.29 273.488 768 269.884 767.2 265.651H748.721C749.274 270.763 751.109 275.453 754.246 279.751C757.813 284.514 762.652 288.365 768.827 291.28C775.105 294.059 782.211 295.469 790.178 295.469C798.053 295.469 804.778 294.174 810.407 291.654L810.414 291.65L810.421 291.647C816.207 289.111 820.572 285.653 823.617 281.311C826.654 276.981 828.181 272.072 828.184 266.521C828.062 260.167 826.335 255.281 823.179 251.667C819.842 247.846 815.862 244.99 811.222 243.082L811.193 243.07L811.164 243.058C806.494 240.964 800.411 238.906 792.885 236.895L792.865 236.89L792.845 236.884C787.148 235.235 782.809 233.893 779.85 232.862L779.814 232.849L779.779 232.835C776.664 231.614 773.974 229.966 771.745 227.871C769.318 225.592 768.081 222.72 768.081 219.384C768.081 215.153 769.942 211.71 773.473 209.204C776.981 206.714 781.816 205.605 787.714 205.605C793.841 205.605 798.949 207.076 802.819 210.235C806.218 213.01 808.276 216.633 809.009 220.994H826.706C825.831 212.124 822.191 205.194 815.841 200.038L815.826 200.026L815.812 200.014C809.054 194.311 800.008 191.366 788.472 191.366C780.735 191.366 773.935 192.657 768.033 195.19C762.251 197.726 757.887 201.183 754.843 205.523L754.836 205.534L754.828 205.544C751.785 209.767 750.276 214.425 750.276 219.574C750.276 226.054 751.944 231.063 755.1 234.797C758.569 238.749 762.612 241.66 767.239 243.562C772.065 245.547 778.363 247.612 786.158 249.753L786.17 249.757Z" fill="#4A51F8"/>
<path fill-rule="evenodd" clip-rule="evenodd" d="M1072.41 208.175C1080.5 208.175 1086.88 210.708 1091.56 215.774C1096.24 220.714 1098.57 227.87 1098.57 237.243V295.759H1120V234.013C1120 224.514 1118.17 216.408 1114.5 209.695C1110.84 202.982 1105.72 197.915 1099.14 194.496C1092.7 191.076 1085.37 189.366 1077.15 189.366C1070.96 189.366 1065.08 190.569 1059.52 192.976C1055.06 194.95 1051.24 197.563 1048.06 200.815C1047.36 201.528 1046.69 202.271 1046.06 203.045V191.076H1024.44V295.759H1046.06V237.243C1046.06 227.87 1048.39 220.714 1053.07 215.774C1057.87 210.708 1064.32 208.175 1072.41 208.175ZM1098.21 196.262L1098.21 196.266L1098.22 196.27C1104.43 199.5 1109.26 204.277 1112.75 210.653C1116.22 217.009 1118 224.769 1118 234.013V293.759H1100.57V237.243C1100.57 227.56 1098.16 219.841 1093.02 214.409C1087.9 208.867 1080.95 206.175 1072.41 206.175C1063.87 206.175 1056.86 208.869 1051.62 214.398L1051.62 214.399C1046.47 219.832 1044.06 227.554 1044.06 237.243V293.759H1026.44V193.076H1044.06V208.629L1047.6 204.315C1050.93 200.268 1055.15 197.096 1060.32 194.808C1065.62 192.515 1071.23 191.366 1077.15 191.366C1085.08 191.366 1092.08 193.014 1098.21 196.262Z" fill="#4A51F8"/>
<path fill-rule="evenodd" clip-rule="evenodd" d="M948.847 280.66C954.74 280.66 960.253 279.248 965.354 276.425C970.639 273.571 974.878 269.302 978.077 263.692C981.319 258.006 982.89 251.187 982.89 243.322C982.89 235.478 981.39 228.727 978.279 223.166C975.21 217.554 971.098 213.276 965.932 210.415C960.828 207.589 955.312 206.175 949.416 206.175C943.52 206.175 938.003 207.589 932.9 210.415L932.89 210.42L932.88 210.426C927.833 213.296 923.85 217.584 920.913 223.2C917.942 228.754 916.511 235.491 916.511 243.322C916.511 254.923 919.441 264.207 925.568 270.892L925.583 270.908L925.597 270.923C931.805 277.413 939.602 280.66 948.847 280.66ZM918.511 243.322C918.511 254.595 921.355 263.334 927.043 269.541C932.857 275.62 940.125 278.66 948.847 278.66C954.409 278.66 959.591 277.33 964.394 274.67C969.324 272.01 973.306 268.021 976.339 262.701C979.373 257.381 980.89 250.922 980.89 243.322C980.89 235.723 979.436 229.327 976.529 224.134C973.622 218.814 969.767 214.824 964.963 212.165C960.16 209.505 954.978 208.175 949.416 208.175C943.854 208.175 938.672 209.505 933.869 212.165C929.192 214.824 925.463 218.814 922.682 224.134C919.901 229.327 918.511 235.723 918.511 243.322Z" fill="#4A51F8"/>
<path fill-rule="evenodd" clip-rule="evenodd" d="M903.343 271.82C907.893 279.927 914.15 286.26 922.113 290.819C930.077 295.252 938.988 297.469 948.847 297.469C958.833 297.469 967.934 295.252 976.15 290.819C984.492 286.26 991.065 279.863 995.868 271.63C1000.67 263.398 1003.07 253.962 1003.07 243.322C1003.07 232.683 1000.73 223.247 996.058 215.014C991.381 206.782 984.998 200.449 976.908 196.016C968.818 191.583 959.781 189.366 949.795 189.366C939.809 189.366 930.772 191.583 922.682 196.016C914.592 200.449 908.209 206.782 903.532 215.014C898.855 223.247 896.517 232.683 896.517 243.322C896.517 254.088 898.792 263.588 903.343 271.82ZM948.847 295.469C939.304 295.469 930.736 293.328 923.096 289.078C915.459 284.702 909.465 278.637 905.091 270.85C900.728 262.955 898.517 253.798 898.517 243.322C898.517 232.986 900.786 223.898 905.271 216.002C909.77 208.083 915.888 202.019 923.643 197.77C931.414 193.511 940.117 191.366 949.795 191.366C959.473 191.366 968.176 193.511 975.947 197.77C983.703 202.019 989.82 208.083 994.319 216.002C998.804 223.898 1001.07 232.986 1001.07 243.322C1001.07 253.65 998.746 262.73 994.141 270.623C989.521 278.54 983.216 284.677 975.196 289.061C967.293 293.325 958.523 295.469 948.847 295.469Z" fill="#4A51F8"/>
<path fill-rule="evenodd" clip-rule="evenodd" d="M713.262 177.207C709.344 177.207 706.057 175.877 703.403 173.217C700.748 170.557 699.421 167.264 699.421 163.338C699.421 159.411 700.748 156.118 703.403 153.458C706.057 150.799 709.344 149.469 713.262 149.469C717.054 149.469 720.277 150.799 722.932 153.458C725.586 156.118 726.913 159.411 726.913 163.338C726.913 167.264 725.586 170.557 722.932 173.217C720.277 175.877 717.054 177.207 713.262 177.207ZM713.262 175.207C709.849 175.207 707.08 174.071 704.818 171.804C702.557 169.538 701.421 166.761 701.421 163.338C701.421 159.915 702.557 157.138 704.818 154.871C707.08 152.605 709.849 151.469 713.262 151.469C716.529 151.469 719.241 152.591 721.516 154.871C723.778 157.138 724.913 159.915 724.913 163.338C724.913 166.761 723.778 169.538 721.516 171.804C719.241 174.084 716.529 175.207 713.262 175.207Z" fill="#4A51F8"/>
<path fill-rule="evenodd" clip-rule="evenodd" d="M723.88 191.076V295.759H702.265V191.076H723.88ZM721.88 193.076V293.759H704.265V193.076H721.88Z" fill="#4A51F8"/>
<path fill-rule="evenodd" clip-rule="evenodd" d="M864.536 177.207C860.618 177.207 857.332 175.877 854.677 173.217C852.023 170.557 850.695 167.264 850.695 163.338C850.695 159.411 852.023 156.118 854.677 153.458C857.332 150.799 860.618 149.469 864.536 149.469C868.328 149.469 871.552 150.799 874.206 153.458C876.861 156.118 878.188 159.411 878.188 163.338C878.188 167.264 876.861 170.557 874.206 173.217C871.552 175.877 868.328 177.207 864.536 177.207ZM864.536 175.207C861.124 175.207 858.354 174.071 856.093 171.804C853.831 169.538 852.695 166.761 852.695 163.338C852.695 159.915 853.831 157.138 856.093 154.871C858.354 152.605 861.124 151.469 864.536 151.469C867.803 151.469 870.515 152.591 872.79 154.871C875.052 157.138 876.188 159.915 876.188 163.338C876.188 166.761 875.052 169.538 872.79 171.804C870.515 174.084 867.803 175.207 864.536 175.207Z" fill="#4A51F8"/>
<path fill-rule="evenodd" clip-rule="evenodd" d="M875.154 191.076V295.759H853.539V191.076H875.154ZM873.154 193.076V293.759H855.539V193.076H873.154Z" fill="#4A51F8"/>
<path fill-rule="evenodd" clip-rule="evenodd" d="M535.951 163.718H559L509.502 295.759H484.564L435.254 163.718H457.925L497.033 273.53L535.951 163.718ZM456.514 165.718L497.037 279.505L537.364 165.718H556.114L508.116 293.759H485.952L438.136 165.718H456.514Z" fill="#4A51F8"/>
<path fill-rule="evenodd" clip-rule="evenodd" d="M344.569 274.86C348.347 271.82 350.425 268.084 350.803 263.651H373.096C373.07 264.324 373.023 264.991 372.956 265.651C372.396 271.203 370.428 276.299 367.051 280.94C363.272 286.006 358.171 290.059 351.748 293.099C345.199 296.012 337.83 297.469 329.644 297.469C321.583 297.469 314.593 296.139 308.673 293.479C302.627 290.819 297.967 287.146 294.693 282.46C291.418 277.773 289.781 272.454 289.781 266.501C289.906 259.788 291.733 254.405 295.259 250.352C298.786 246.299 303.005 243.259 307.917 241.233C312.703 239.079 318.875 236.99 326.432 234.963C332.1 233.316 336.382 231.987 339.279 230.973C342.176 229.833 344.632 228.313 346.647 226.414C348.662 224.514 349.67 222.171 349.67 219.384C349.67 215.838 348.158 212.988 345.136 210.835C342.113 208.681 337.767 207.605 332.1 207.605C326.306 207.605 321.709 208.998 318.308 211.785C314.908 214.571 313.018 218.307 312.64 222.994H291.103C291.136 222.318 291.183 221.651 291.245 220.994C292.13 211.554 295.987 204.051 302.816 198.485C309.996 192.406 319.505 189.366 331.344 189.366C339.279 189.366 346.332 190.696 352.504 193.356C358.549 196.016 363.209 199.689 366.484 204.375C369.759 208.935 371.396 214.001 371.396 219.574C371.396 226.414 369.633 231.923 366.106 236.103C362.454 240.283 358.171 243.386 353.259 245.412C348.347 247.439 341.987 249.529 334.178 251.682C326.117 253.962 320.26 256.052 316.608 257.951C312.829 259.851 310.94 262.764 310.94 266.691C310.94 270.364 312.64 273.404 316.041 275.81C319.316 278.09 323.976 279.23 330.022 279.23C335.815 279.23 340.664 277.773 344.569 274.86ZM364.589 234.8C367.733 231.066 369.396 226.056 369.396 219.574C369.396 214.423 367.892 209.764 364.86 205.542L364.852 205.531L364.845 205.521C361.812 201.181 357.465 197.725 351.705 195.19C345.826 192.657 339.052 191.366 331.344 191.366C319.852 191.366 310.841 194.311 304.109 200.012L304.094 200.024L304.08 200.036C297.753 205.192 294.126 212.122 293.254 220.994H310.873C311.604 216.635 313.654 213.013 317.041 210.238C320.899 207.076 325.992 205.605 332.1 205.605C337.978 205.605 342.798 206.714 346.296 209.206C349.817 211.713 351.67 215.156 351.67 219.384C351.67 222.718 350.438 225.588 348.019 227.869C345.797 229.964 343.116 231.613 340.011 232.834L339.975 232.848L339.939 232.861C336.991 233.892 332.667 235.234 326.99 236.884L326.97 236.889L326.95 236.895C319.452 238.906 313.391 240.963 308.738 243.056L308.709 243.069L308.68 243.081C304.058 244.988 300.093 247.843 296.768 251.665C293.624 255.279 291.903 260.165 291.781 266.52C291.784 272.073 293.306 276.983 296.332 281.314C299.366 285.656 303.715 289.113 309.478 291.648L309.486 291.651L309.493 291.655C315.1 294.174 321.799 295.469 329.644 295.469C337.581 295.469 344.659 294.059 350.913 291.281C357.065 288.367 361.886 284.516 365.441 279.753C368.566 275.454 370.395 270.764 370.946 265.651H352.547C351.75 269.882 349.469 273.485 345.822 276.419L345.794 276.441L345.765 276.463C341.453 279.68 336.162 281.23 330.022 281.23C323.765 281.23 318.641 280.057 314.898 277.452L314.892 277.447L314.886 277.443C311.038 274.72 308.94 271.107 308.94 266.691C308.94 264.393 309.498 262.295 310.679 260.473C311.853 258.663 313.566 257.245 315.698 256.171C319.54 254.174 325.556 252.042 333.634 249.757L333.646 249.754C341.413 247.612 347.688 245.547 352.497 243.563C357.105 241.662 361.133 238.751 364.589 234.8Z" fill="#4A51F8"/>
<path fill-rule="evenodd" clip-rule="evenodd" d="M29.3387 215.774C33.9989 210.708 40.3593 208.175 48.4201 208.175C56.4809 208.175 62.9044 210.708 67.6905 215.774C72.3506 220.714 74.6807 227.87 74.6807 237.243V295.759H96.2182V191.076H74.6807V203.045C74.0448 202.269 73.3781 201.523 72.6807 200.808C69.5108 197.559 65.7063 194.948 61.2671 192.976C55.7253 190.569 49.8686 189.366 43.697 189.366C35.5103 189.366 28.2052 191.076 21.7817 194.496C15.2324 197.915 10.1314 202.982 6.47882 209.695C2.82629 216.408 1 224.514 1 234.013V295.759H22.3485V237.243C22.3485 227.87 24.6786 220.714 29.3387 215.774ZM22.7145 196.265L22.7216 196.261C28.8212 193.014 35.7965 191.366 43.697 191.366C49.5976 191.366 55.1801 192.514 60.4627 194.807C65.6085 197.095 69.8191 200.265 73.1334 204.312L76.6807 208.644V193.076H94.2182V293.759H76.6807V237.243C76.6807 227.556 74.2704 219.834 69.1453 214.402L69.1443 214.401C63.9203 208.871 56.937 206.175 48.4201 206.175C39.9092 206.175 32.979 208.868 27.8755 214.411C22.7562 219.843 20.3485 227.561 20.3485 237.243V293.759H3V234.013C3 224.768 4.77692 217.007 8.2356 210.651C11.7053 204.274 16.5226 199.498 22.7075 196.269L22.7145 196.265Z" fill="#4A51F8"/>
<path fill-rule="evenodd" clip-rule="evenodd" d="M396.65 153.458C394.005 156.118 392.683 159.411 392.683 163.338C392.683 167.264 394.005 170.557 396.65 173.217C399.295 175.877 402.507 177.207 406.285 177.207C410.19 177.207 413.464 175.877 416.109 173.217C418.754 170.557 420.077 167.264 420.077 163.338C420.077 159.411 418.754 156.118 416.109 153.458C413.464 150.799 410.19 149.469 406.285 149.469C402.507 149.469 399.295 150.799 396.65 153.458ZM414.691 171.807C412.438 174.072 409.682 175.207 406.285 175.207C403.035 175.207 400.335 174.086 398.068 171.807C395.815 169.541 394.683 166.763 394.683 163.338C394.683 159.912 395.815 157.135 398.068 154.869C400.335 152.59 403.035 151.469 406.285 151.469C409.682 151.469 412.438 152.603 414.691 154.869C416.945 157.135 418.077 159.912 418.077 163.338C418.077 166.763 416.945 169.541 414.691 171.807Z" fill="#4A51F8"/>
<path fill-rule="evenodd" clip-rule="evenodd" d="M155.087 276.423C160.172 279.247 165.667 280.66 171.542 280.66C180.758 280.66 188.53 277.411 194.716 270.92L194.73 270.905L194.745 270.889C200.85 264.204 203.77 254.921 203.77 243.322C203.77 235.492 202.343 228.755 199.383 223.201C196.456 217.587 192.488 213.298 187.458 210.428L187.448 210.422L187.438 210.416C182.351 207.589 176.852 206.175 170.975 206.175C165.097 206.175 159.598 207.589 154.511 210.416C149.362 213.278 145.264 217.558 142.206 223.17C139.107 228.73 137.613 235.48 137.613 243.322C137.613 251.185 139.178 258.004 142.409 263.689C145.596 269.298 149.819 273.568 155.087 276.423ZM193.268 269.541C198.936 263.334 201.77 254.595 201.77 243.322C201.77 235.723 200.384 229.327 197.613 224.134C194.842 218.814 191.127 214.824 186.467 212.165C181.681 209.505 176.517 208.175 170.975 208.175C165.433 208.175 160.269 209.505 155.483 212.165C150.697 214.824 146.855 218.814 143.959 224.134C141.062 229.327 139.613 235.723 139.613 243.322C139.613 250.922 141.125 257.381 144.148 262.701C147.17 268.021 151.138 272.01 156.05 274.67C160.836 277.33 166 278.66 171.542 278.66C180.232 278.66 187.474 275.62 193.268 269.541Z" fill="#4A51F8"/>
<path fill-rule="evenodd" clip-rule="evenodd" d="M198.18 290.819C206.115 286.26 212.349 279.927 216.884 271.82C221.418 263.588 223.685 254.088 223.685 243.322C223.685 232.683 221.355 223.247 216.695 215.014C212.035 206.782 205.674 200.449 197.613 196.016C189.552 191.583 180.547 189.366 170.597 189.366C160.647 189.366 151.642 191.583 143.581 196.016C135.52 200.449 129.159 206.782 124.499 215.014C119.839 223.247 117.509 232.683 117.509 243.322C117.509 253.962 119.902 263.398 124.688 271.63C129.474 279.863 136.024 286.26 144.336 290.819C152.523 295.252 161.592 297.469 171.542 297.469C181.366 297.469 190.245 295.252 198.18 290.819ZM197.194 289.079C189.584 293.328 181.048 295.469 171.542 295.469C161.903 295.469 153.167 293.325 145.294 289.063C137.304 284.679 131.02 278.543 126.417 270.625C121.829 262.732 119.509 253.651 119.509 243.322C119.509 232.985 121.77 223.896 126.24 216C130.723 208.08 136.818 202.017 144.545 197.768C152.286 193.511 160.956 191.366 170.597 191.366C180.238 191.366 188.908 193.511 196.649 197.768C204.376 202.017 210.471 208.08 214.954 216C219.424 223.896 221.685 232.985 221.685 243.322C221.685 253.798 219.482 262.954 215.135 270.849C210.777 278.638 204.804 284.704 197.194 289.079Z" fill="#4A51F8"/>
<path fill-rule="evenodd" clip-rule="evenodd" d="M395.705 191.076H417.243V295.759H395.705V191.076ZM397.705 293.759V193.076H415.243V293.759H397.705Z" fill="#4A51F8"/>
<path fill-rule="evenodd" clip-rule="evenodd" d="M265.375 173.217C262.73 175.877 259.456 177.207 255.551 177.207C251.773 177.207 248.561 175.877 245.916 173.217C243.271 170.557 241.949 167.264 241.949 163.338C241.949 159.411 243.271 156.118 245.916 153.458C248.561 150.799 251.773 149.469 255.551 149.469C259.456 149.469 262.73 150.799 265.375 153.458C268.02 156.118 269.343 159.411 269.343 163.338C269.343 167.264 268.02 170.557 265.375 173.217ZM263.957 171.807C261.704 174.072 258.948 175.207 255.551 175.207C252.301 175.207 249.601 174.086 247.334 171.807C245.081 169.541 243.949 166.763 243.949 163.338C243.949 159.912 245.081 157.135 247.334 154.869C249.601 152.59 252.301 151.469 255.551 151.469C258.948 151.469 261.704 152.603 263.957 154.869C266.211 157.135 267.343 159.912 267.343 163.338C267.343 166.763 266.211 169.541 263.957 171.807Z" fill="#4A51F8"/>
<path fill-rule="evenodd" clip-rule="evenodd" d="M244.971 191.076H266.509V295.759H244.971V191.076ZM246.971 293.759V193.076H264.509V293.759H246.971Z" fill="#4A51F8"/>
<path fill-rule="evenodd" clip-rule="evenodd" d="M583.131 15.7178L622.189 125.53L661.437 15.7178H684.189L634.703 147.759H609.676L560 15.7178H583.131ZM662.846 17.7178H681.304L633.317 145.759H611.06L562.889 17.7178H581.72L622.185 131.486L662.846 17.7178Z" fill="#4A51F8"/>
<path fill-rule="evenodd" clip-rule="evenodd" d="M768.943 115.651C769.322 120.084 771.408 123.82 775.2 126.86C779.118 129.773 783.985 131.23 789.799 131.23C795.866 131.23 800.543 130.09 803.83 127.81C807.243 125.404 808.949 122.364 808.949 118.691C808.949 114.764 807.053 111.851 803.261 109.951C799.595 108.052 793.718 105.962 785.628 103.682C777.791 101.529 771.408 99.4388 766.478 97.4123C761.548 95.3857 757.251 92.2826 753.585 88.1029C750.046 83.9232 748.276 78.4136 748.276 71.574C748.276 66.0011 749.92 60.9347 753.206 56.375C756.492 51.6887 761.169 48.0156 767.237 45.3558C773.43 42.696 780.509 41.3661 788.472 41.3661C800.354 41.3661 809.897 44.4059 817.102 50.4854C823.956 56.0509 827.827 63.5537 828.715 72.9938C828.777 73.6511 828.824 74.3177 828.857 74.9938H807.243C806.863 70.3074 804.967 66.571 801.554 63.7845C798.142 60.9981 793.528 59.6048 787.714 59.6048C782.025 59.6048 777.665 60.6814 774.631 62.8346C771.597 64.9878 770.081 67.8376 770.081 71.384C770.081 74.1705 771.092 76.5137 773.114 78.4136C775.137 80.3134 777.601 81.8333 780.509 82.9732C783.416 83.9865 787.714 85.3164 793.402 86.963C800.986 88.9895 807.179 91.0794 811.983 93.2326C816.912 95.2591 821.147 98.2989 824.686 102.352C828.225 106.405 830.058 111.788 830.184 118.501C830.184 124.454 828.541 129.773 825.255 134.46C821.968 139.146 817.291 142.819 811.224 145.479C805.283 148.139 798.268 149.469 790.178 149.469C781.962 149.469 774.568 148.012 767.995 145.099C761.548 142.059 756.429 138.006 752.637 132.94C749.248 128.299 747.273 123.203 746.71 117.651C746.644 116.991 746.597 116.324 746.57 115.651H768.943ZM786.17 101.757C794.278 104.042 800.314 106.174 804.17 108.17C806.307 109.243 808.025 110.661 809.203 112.47C810.389 114.292 810.949 116.392 810.949 118.691C810.949 123.111 808.842 126.723 804.982 129.445L804.976 129.449L804.97 129.454C801.216 132.057 796.076 133.23 789.799 133.23C783.639 133.23 778.332 131.681 774.007 128.465L773.977 128.444L773.949 128.421C770.29 125.488 768 121.884 767.2 117.651H748.721C749.274 122.763 751.109 127.453 754.246 131.751C757.813 136.514 762.652 140.365 768.827 143.28C775.105 146.059 782.211 147.469 790.178 147.469C798.053 147.469 804.778 146.174 810.407 143.654L810.414 143.65L810.421 143.647C816.207 141.111 820.572 137.653 823.617 133.311C826.654 128.981 828.181 124.072 828.184 118.521C828.062 112.167 826.335 107.281 823.179 103.667C819.842 99.8456 815.862 96.9898 811.222 95.0823L811.193 95.0704L811.164 95.0576C806.494 92.9637 800.411 90.9061 792.885 88.8952L792.865 88.8898L792.845 88.8841C787.148 87.2349 782.809 85.8931 779.85 84.8618L779.814 84.8492L779.779 84.8352C776.664 83.614 773.974 81.9658 771.745 79.8712C769.318 77.5915 768.081 74.72 768.081 71.384C768.081 67.153 769.942 63.7102 773.473 61.2037C776.981 58.7139 781.816 57.6048 787.714 57.6048C793.841 57.6048 798.949 59.0755 802.819 62.2353C806.218 65.0098 808.276 68.6328 809.009 72.9938H826.706C825.831 64.124 822.191 57.1944 815.841 52.0381L815.826 52.0262L815.812 52.014C809.054 46.3114 800.008 43.3661 788.472 43.3661C780.735 43.3661 773.935 44.6573 768.033 47.1903C762.251 49.7263 757.887 53.1831 754.843 57.5234L754.836 57.534L754.828 57.5445C751.785 61.7668 750.276 66.4247 750.276 71.574C750.276 78.054 751.944 83.0631 755.1 86.7972C758.569 90.7486 762.612 93.6605 767.239 95.5625C772.065 97.5466 778.363 99.6117 786.158 101.753L786.17 101.757Z" fill="#4A51F8"/>
<path fill-rule="evenodd" clip-rule="evenodd" d="M1072.41 60.1748C1080.5 60.1748 1086.88 62.7079 1091.56 67.7743C1096.24 72.7139 1098.57 79.8701 1098.57 89.2428V147.759H1120V86.013C1120 76.5137 1118.17 68.4076 1114.5 61.6947C1110.84 54.9818 1105.72 49.9155 1099.14 46.4957C1092.7 43.0759 1085.37 41.3661 1077.15 41.3661C1070.96 41.3661 1065.08 42.5693 1059.52 44.9758C1055.06 46.9498 1051.24 49.563 1048.06 52.8154C1047.36 53.528 1046.69 54.2712 1046.06 55.0451V43.0759H1024.44V147.759H1046.06V89.2428C1046.06 79.8701 1048.39 72.7139 1053.07 67.7743C1057.87 62.7079 1064.32 60.1748 1072.41 60.1748ZM1098.21 48.2625L1098.21 48.2662L1098.22 48.2699C1104.43 51.5003 1109.26 56.2769 1112.75 62.6532C1116.22 69.0092 1118 76.7688 1118 86.013V145.759H1100.57V89.2428C1100.57 79.5604 1098.16 71.8413 1093.02 66.4095C1087.9 60.8667 1080.95 58.1748 1072.41 58.1748C1063.87 58.1748 1056.86 60.8694 1051.62 66.3982L1051.62 66.3992C1046.47 71.8315 1044.06 79.5543 1044.06 89.2428V145.759H1026.44V45.0759H1044.06V60.6285L1047.6 56.315C1050.93 52.2676 1055.15 49.0965 1060.32 46.808C1065.62 44.5147 1071.23 43.3661 1077.15 43.3661C1085.08 43.3661 1092.08 45.0143 1098.21 48.2625Z" fill="#4A51F8"/>
<path fill-rule="evenodd" clip-rule="evenodd" d="M948.847 132.66C954.74 132.66 960.253 131.248 965.354 128.425C970.639 125.571 974.878 121.302 978.077 115.692C981.319 110.006 982.89 103.187 982.89 95.3224C982.89 87.4779 981.39 80.7273 978.279 75.166C975.21 69.5537 971.098 65.2757 965.932 62.4149C960.828 59.5886 955.312 58.1748 949.416 58.1748C943.52 58.1748 938.003 59.5886 932.9 62.4149L932.89 62.4204L932.88 62.426C927.833 65.2959 923.85 69.5844 920.913 75.2002C917.942 80.7536 916.511 87.4913 916.511 95.3224C916.511 106.923 919.441 116.207 925.568 122.892L925.583 122.908L925.597 122.923C931.805 129.413 939.602 132.66 948.847 132.66ZM918.511 95.3224C918.511 106.595 921.355 115.334 927.043 121.541C932.857 127.62 940.125 130.66 948.847 130.66C954.409 130.66 959.591 129.33 964.394 126.67C969.324 124.01 973.306 120.021 976.339 114.701C979.373 109.381 980.89 102.922 980.89 95.3224C980.89 87.7229 979.436 81.3267 976.529 76.1337C973.622 70.8141 969.767 66.8243 964.963 64.1645C960.16 61.5047 954.978 60.1748 949.416 60.1748C943.854 60.1748 938.672 61.5047 933.869 64.1645C929.192 66.8243 925.463 70.8141 922.682 76.1337C919.901 81.3267 918.511 87.7229 918.511 95.3224Z" fill="#4A51F8"/>
<path fill-rule="evenodd" clip-rule="evenodd" d="M903.343 123.82C907.893 131.927 914.15 138.26 922.113 142.819C930.077 147.252 938.988 149.469 948.847 149.469C958.833 149.469 967.934 147.252 976.15 142.819C984.492 138.26 991.065 131.863 995.868 123.631C1000.67 115.398 1003.07 105.962 1003.07 95.3224C1003.07 84.6831 1000.73 75.2471 996.058 67.0143C991.381 58.7815 984.998 52.4486 976.908 48.0156C968.818 43.5826 959.781 41.3661 949.795 41.3661C939.809 41.3661 930.772 43.5826 922.682 48.0156C914.592 52.4486 908.209 58.7815 903.532 67.0143C898.855 75.2471 896.517 84.6831 896.517 95.3224C896.517 106.088 898.792 115.588 903.343 123.82ZM948.847 147.469C939.304 147.469 930.736 145.328 923.096 141.078C915.459 136.702 909.465 130.637 905.091 122.85C900.728 114.955 898.517 105.798 898.517 95.3224C898.517 84.9858 900.786 75.898 905.271 68.0022C909.77 60.083 915.888 54.0194 923.643 49.7695C931.414 45.5111 940.117 43.3661 949.795 43.3661C959.473 43.3661 968.176 45.5111 975.947 49.7695C983.703 54.0194 989.82 60.083 994.319 68.0022C998.804 75.898 1001.07 84.9858 1001.07 95.3224C1001.07 105.65 998.746 114.73 994.141 122.623C989.521 130.54 983.216 136.677 975.196 141.061C967.293 145.325 958.523 147.469 948.847 147.469Z" fill="#4A51F8"/>
<path fill-rule="evenodd" clip-rule="evenodd" d="M713.262 29.2069C709.344 29.2069 706.057 27.877 703.403 25.2171C700.748 22.5573 699.421 19.2642 699.421 15.3378C699.421 11.4114 700.748 8.1183 703.403 5.45849C706.057 2.79866 709.344 1.46875 713.262 1.46875C717.054 1.46875 720.277 2.79866 722.932 5.45849C725.586 8.1183 726.913 11.4114 726.913 15.3378C726.913 19.2642 725.586 22.5573 722.932 25.2171C720.277 27.877 717.054 29.2069 713.262 29.2069ZM713.262 27.2069C709.849 27.2069 707.08 26.0707 704.818 23.8044C702.557 21.5378 701.421 18.761 701.421 15.3378C701.421 11.9147 702.557 9.13778 704.818 6.87126C707.08 4.60495 709.849 3.46875 713.262 3.46875C716.529 3.46875 719.241 4.59123 721.516 6.87126C723.778 9.13779 724.913 11.9147 724.913 15.3378C724.913 18.761 723.778 21.5378 721.516 23.8044C719.241 26.0844 716.529 27.2069 713.262 27.2069Z" fill="#4A51F8"/>
<path fill-rule="evenodd" clip-rule="evenodd" d="M723.88 43.0759V147.759H702.265V43.0759H723.88ZM721.88 45.0759V145.759H704.265V45.0759H721.88Z" fill="#4A51F8"/>
<path fill-rule="evenodd" clip-rule="evenodd" d="M864.536 29.2069C860.618 29.2069 857.332 27.877 854.677 25.2171C852.023 22.5573 850.695 19.2642 850.695 15.3378C850.695 11.4114 852.023 8.1183 854.677 5.45849C857.332 2.79866 860.618 1.46875 864.536 1.46875C868.328 1.46875 871.552 2.79866 874.206 5.45849C876.861 8.1183 878.188 11.4114 878.188 15.3378C878.188 19.2642 876.861 22.5573 874.206 25.2171C871.552 27.877 868.328 29.2069 864.536 29.2069ZM864.536 27.2069C861.124 27.2069 858.354 26.0707 856.093 23.8044C853.831 21.5378 852.695 18.761 852.695 15.3378C852.695 11.9147 853.831 9.13778 856.093 6.87126C858.354 4.60495 861.124 3.46875 864.536 3.46875C867.803 3.46875 870.515 4.59123 872.79 6.87126C875.052 9.13778 876.188 11.9147 876.188 15.3378C876.188 18.761 875.052 21.5378 872.79 23.8044C870.515 26.0844 867.803 27.2069 864.536 27.2069Z" fill="#4A51F8"/>
<path fill-rule="evenodd" clip-rule="evenodd" d="M875.154 43.0759V147.759H853.539V43.0759H875.154ZM873.154 45.0759V145.759H855.539V45.0759H873.154Z" fill="#4A51F8"/>
</g>
</svg>
